<svg xmlns:dc="http://purl.org/dc/elements/1.1/" xmlns:cc="http://creativecommons.org/ns#" xmlns:rdf="http://www.w3.org/1999/02/22-rdf-syntax-ns#" xmlns:svg="http://www.w3.org/2000/svg" xmlns="http://www.w3.org/2000/svg" xmlns:sodipodi="http://sodipodi.sourceforge.net/DTD/sodipodi-0.dtd" xmlns:inkscape="http://www.inkscape.org/namespaces/inkscape" id="Layer_1" x="0px" y="0px" viewBox="0 0 500 500" style="enable-background:new 0 0 500 500;" sodipodi:docname="target-4257497.svg" inkscape:version="1.0.2 (e86c8708, 2021-01-15)" inkscape:export-filename="/Users/seba/Downloads/target-4257497.png" inkscape:export-xdpi="96" inkscape:export-ydpi="96"><metadata></metadata><defs id="defs1405"></defs><style type="text/css" id="style928"> .st0{fill:#0CAA8F;} .st1{fill:#F86B00;} .st2{fill:#FFFFFF;} .st3{fill:#4D5357;} .st4{fill:#A2A5A7;} .st5{opacity:0.2;} .st6{fill:#B7D967;} .st7{fill:#FFBD35;} .st8{fill:#F85523;} .st9{fill:#CACACC;} .st10{fill:#43484D;} .st11{fill:#B2B4B6;} .st12{opacity:0.5;} .st13{fill:#2FCA74;} </style><rect class="st0" width="500" height="500" id="rect930" style="fill:none"></rect><path class="st1" d="M 435.8,198.8 C 435.8,134.8 383.9,83 320,83 c -64,0 -115.8,51.9 -115.8,115.8 0,64 51.9,115.8 115.8,115.8 63.9,0.1 115.8,-51.8 115.8,-115.8 z" id="path932" style="fill:#505080;fill-opacity:1"></path><circle transform="rotate(-3.1759795)" class="st2" cx="308.50302" cy="216.22881" id="ellipse934" r="92.903343" style="stroke-width:1.00004"></circle><circle class="st1" cx="320" cy="198.8" r="69.5" id="circle936" style="fill:#8381b5;fill-opacity:1"></circle><circle class="st2" cx="320" cy="198.8" r="51.400002" id="circle938"></circle><path class="st1" d="m 337,198.8 c 0,-9.4 -7.7,-17.1 -17.1,-17.1 -9.4,0 -17.1,7.7 -17.1,17.1 0,9.4 7.7,17.1 17.1,17.1 9.5,0 17.1,-7.6 17.1,-17.1 z" id="path940" style="fill:#a0a0f0;fill-opacity:1"></path><rect x="-182.58722" y="390.12518" transform="rotate(-65.38772)" class="st4" width="2.8001635" height="4.2002454" id="rect944" style="stroke-width:1.00006"></rect><rect x="-189.52924" y="390.10294" transform="rotate(-65.385333)" class="st4" width="2.7999091" height="4.1998634" id="rect946" style="stroke-width:0.999968"></rect><rect x="-196.4998" y="395.44202" transform="rotate(-65.398138)" class="st4" width="2.7999303" height="4.1998954" id="rect948" style="stroke-width:0.999975"></rect><rect x="-196.41867" y="390.13895" transform="rotate(-65.380125)" class="st4" width="2.8000257" height="4.2000384" id="rect950" style="stroke-width:1.00001"></rect><rect x="-203.38229" y="395.4722" transform="rotate(-65.392929)" class="st4" width="2.8000469" height="4.2000704" id="rect952" style="stroke-width:1.00002"></rect><rect x="-203.3403" y="390.10101" transform="rotate(-65.392929)" class="st4" width="2.8000469" height="4.2000704" id="rect954" style="stroke-width:1.00002"></rect><g id="g1348"><polygon class="st2" points="319.6,190.7 432.1,242.3 441.6,263.5 371.3,417 242.8,358.2 " id="polygon956" style="stroke:#f0edff;stroke-opacity:1"></polygon><g class="st5" id="g960"><rect x="351.29999" y="226.3" transform="matrix(0.4165,-0.9091,0.9091,0.4165,-50.5681,487.9054)" class="st3" width="7" height="114.2" id="rect958"></rect></g><rect x="350.20001" y="280.60001" transform="matrix(0.4163,-0.9092,0.9092,0.4163,-51.0653,484.1976)" class="st4" width="2.8" height="2.5999999" id="rect962"></rect><rect x="352.89999" y="282.20001" transform="matrix(0.4161,-0.9093,0.9093,0.4161,-50.5719,487.4952)" class="st4" width="2.8" height="1.9" id="rect964"></rect><rect x="355.89999" y="283.20001" transform="matrix(0.4166,-0.9091,0.9091,0.4166,-50.193,490.7192)" class="st4" width="2.8" height="2.5" id="rect966"></rect><rect x="358.79999" y="284.60001" transform="matrix(0.4166,-0.9091,0.9091,0.4166,-49.7093,494.1276)" class="st4" width="2.8" height="2.5" id="rect968"></rect><rect x="321.79999" y="266.70001" transform="matrix(0.4166,-0.9091,0.9091,0.4166,-55.8677,450.6694)" class="st4" width="2.8" height="4.4000001" id="rect970"></rect><rect x="317.10001" y="265.10001" transform="matrix(0.4162,-0.9093,0.9093,0.4162,-56.5861,445.2979)" class="st4" width="2.8" height="3.2" id="rect972"></rect><rect x="312.10001" y="262.29999" transform="matrix(0.4166,-0.9091,0.9091,0.4166,-57.4795,439.3016)" class="st4" width="2.8" height="4.1999998" id="rect974"></rect><rect x="307.20001" y="260.10001" transform="matrix(0.4165,-0.9092,0.9092,0.4165,-58.288,433.5243)" class="st4" width="2.8" height="4.1999998" id="rect976"></rect><rect x="395.89999" y="300.60001" transform="matrix(0.4162,-0.9093,0.9093,0.4162,-43.4129,537.9817)" class="st4" width="2.8" height="4.4000001" id="rect978"></rect><rect x="391.20001" y="299.10001" transform="matrix(0.4162,-0.9093,0.9093,0.4162,-44.1818,532.5025)" class="st4" width="2.8" height="3.2" id="rect980"></rect><rect x="386.20001" y="296.29999" transform="matrix(0.4166,-0.9091,0.9091,0.4166,-45.1116,526.4495)" class="st4" width="2.8" height="4.1999998" id="rect982"></rect><rect x="381.29999" y="294" transform="matrix(0.4164,-0.9092,0.9092,0.4164,-45.9008,520.7062)" class="st4" width="2.8" height="4.1999998" id="rect984"></rect><rect x="347.29999" y="286.89999" transform="matrix(0.4166,-0.9091,0.9091,0.4166,-58.5407,485.1073)" class="st4" width="2.8" height="2.5999999" id="rect986"></rect><rect x="350.10001" y="288.5" transform="matrix(0.4171,-0.9089,0.9089,0.4171,-58.179,488.1346)" class="st4" width="2.8" height="1.9" id="rect988"></rect><rect x="353" y="289.5" transform="matrix(0.4161,-0.9093,0.9093,0.4161,-57.4765,492.0161)" class="st4" width="2.8" height="2.5" id="rect990"></rect><rect x="355.89999" y="290.79999" transform="matrix(0.4166,-0.9091,0.9091,0.4166,-57.1131,495.1785)" class="st4" width="2.8" height="2.5" id="rect992"></rect><rect x="318.89999" y="273" transform="matrix(0.4163,-0.9093,0.9093,0.4163,-63.211,451.8528)" class="st4" width="2.8" height="4.4000001" id="rect994"></rect><rect x="314.20001" y="271.39999" transform="matrix(0.4164,-0.9092,0.9092,0.4164,-64.0168,446.2965)" class="st4" width="2.8" height="3.2" id="rect996"></rect><rect x="309.29999" y="268.60001" transform="matrix(0.4166,-0.9091,0.9091,0.4166,-64.895,440.3288)" class="st4" width="2.8" height="4.1999998" id="rect998"></rect><rect x="304.29999" y="266.29999" transform="matrix(0.4166,-0.9091,0.9091,0.4166,-65.7197,434.5158)" class="st4" width="2.8" height="4.1999998" id="rect1000"></rect><rect x="393" y="306.89999" transform="matrix(0.4168,-0.909,0.909,0.4168,-50.9494,538.7796)" class="st4" width="2.8" height="4.4000001" id="rect1002"></rect><rect x="388.29999" y="305.29999" transform="matrix(0.4167,-0.9091,0.9091,0.4167,-51.7089,533.3201)" class="st4" width="2.8" height="3.2" id="rect1004"></rect><rect x="383.29999" y="302.5" transform="matrix(0.4166,-0.9091,0.9091,0.4166,-52.5272,527.4772)" class="st4" width="2.8" height="4.1999998" id="rect1006"></rect><rect x="378.39999" y="300.29999" transform="matrix(0.4165,-0.9091,0.9091,0.4165,-53.3268,521.7154)" class="st4" width="2.8" height="4.1999998" id="rect1008"></rect><g class="st5" id="g1012"><rect x="345.5" y="238.8" transform="matrix(0.4165,-0.9091,0.9091,0.4165,-65.3816,489.9987)" class="st3" width="7" height="114.2" id="rect1010"></rect></g><rect x="344.39999" y="293.20001" transform="matrix(0.4169,-0.909,0.909,0.4169,-66.0004,486.0357)" class="st4" width="2.8" height="2.5999999" id="rect1014"></rect><rect x="347.20001" y="294.79999" transform="matrix(0.4171,-0.9089,0.9089,0.4171,-65.5801,489.183)" class="st4" width="2.8" height="1.9" id="rect1016"></rect><rect x="350.10001" y="295.79999" transform="matrix(0.4159,-0.9094,0.9094,0.4159,-64.8445,493.152)" class="st4" width="2.8" height="2.5" id="rect1018"></rect><rect x="353" y="297.10001" transform="matrix(0.4169,-0.909,0.909,0.4169,-64.5714,496.1144)" class="st4" width="2.8" height="2.5" id="rect1020"></rect><rect x="316" y="279.20001" transform="matrix(0.4168,-0.909,0.909,0.4168,-70.7111,452.6908)" class="st4" width="2.8" height="4.4000001" id="rect1022"></rect><rect x="311.39999" y="277.70001" transform="matrix(0.4168,-0.909,0.909,0.4168,-71.5073,447.1533)" class="st4" width="2.8" height="3.2" id="rect1024"></rect><rect x="306.39999" y="274.89999" transform="matrix(0.4163,-0.9092,0.9092,0.4163,-72.244,441.5049)" class="st4" width="2.8" height="4.1999998" id="rect1026"></rect><rect x="301.39999" y="272.60001" transform="matrix(0.4166,-0.9091,0.9091,0.4166,-73.115,435.5872)" class="st4" width="2.8" height="4.1999998" id="rect1028"></rect><rect x="390.10001" y="313.20001" transform="matrix(0.4165,-0.9091,0.9091,0.4165,-58.2951,539.9456)" class="st4" width="2.8" height="4.4000001" id="rect1030"></rect><rect x="385.39999" y="311.60001" transform="matrix(0.4164,-0.9092,0.9092,0.4164,-59.0568,534.4821)" class="st4" width="2.8" height="3.2" id="rect1032"></rect><rect x="380.5" y="308.79999" transform="matrix(0.4164,-0.9092,0.9092,0.4164,-59.8751,528.6423)" class="st4" width="2.8" height="4.1999998" id="rect1034"></rect><rect x="375.5" y="306.60001" transform="matrix(0.4166,-0.9091,0.9091,0.4166,-60.7559,522.7155)" class="st4" width="2.8" height="4.1999998" id="rect1036"></rect><rect x="341.60001" y="299.5" transform="matrix(0.4166,-0.9091,0.9091,0.4166,-73.3477,487.2077)" class="st4" width="2.8" height="2.5999999" id="rect1038"></rect><rect x="344.29999" y="301.10001" transform="matrix(0.4162,-0.9093,0.9093,0.4162,-72.814,490.6036)" class="st4" width="2.8" height="1.9" id="rect1040"></rect><rect x="347.20001" y="302.10001" transform="matrix(0.4166,-0.9091,0.9091,0.4166,-72.3981,493.8845)" class="st4" width="2.8" height="2.5" id="rect1042"></rect><rect x="350.10001" y="303.39999" transform="matrix(0.4161,-0.9093,0.9093,0.4161,-71.8057,497.5327)" class="st4" width="2.8" height="2.5" id="rect1044"></rect><rect x="313.20001" y="285.5" transform="matrix(0.4165,-0.9091,0.9091,0.4165,-78.0714,453.8416)" class="st4" width="2.8" height="4.4000001" id="rect1046"></rect><rect x="308.5" y="284" transform="matrix(0.4165,-0.9091,0.9091,0.4165,-78.8518,448.3404)" class="st4" width="2.8" height="3.2" id="rect1048"></rect><rect x="303.5" y="281.20001" transform="matrix(0.4163,-0.9092,0.9092,0.4163,-79.6495,442.5568)" class="st4" width="2.8" height="4.1999998" id="rect1050"></rect><rect x="298.5" y="278.89999" transform="matrix(0.4166,-0.9091,0.9091,0.4166,-80.5273,436.6173)" class="st4" width="2.8" height="4.1999998" id="rect1052"></rect><rect x="387.20001" y="319.5" transform="matrix(0.4163,-0.9092,0.9092,0.4163,-65.6368,541.1266)" class="st4" width="2.8" height="4.4000001" id="rect1054"></rect><rect x="382.60001" y="317.89999" transform="matrix(0.4164,-0.9092,0.9092,0.4164,-66.4512,535.5546)" class="st4" width="2.8" height="3.2" id="rect1056"></rect><rect x="377.60001" y="315.10001" transform="matrix(0.4164,-0.9092,0.9092,0.4164,-67.2766,529.703)" class="st4" width="2.8" height="4.1999998" id="rect1058"></rect><rect x="372.60001" y="312.89999" transform="matrix(0.4166,-0.9091,0.9091,0.4166,-68.16,523.7662)" class="st4" width="2.8" height="4.1999998" id="rect1060"></rect><g class="st5" id="g1064"><rect x="339.79999" y="251.39999" transform="matrix(0.4165,-0.9091,0.9091,0.4165,-80.1892,492.1045)" class="st3" width="7" height="114.2" id="rect1062"></rect></g><rect x="338.70001" y="305.79999" transform="matrix(0.4165,-0.9091,0.9091,0.4165,-80.7358,488.2962)" class="st4" width="2.8" height="2.5999999" id="rect1066"></rect><rect x="341.39999" y="307.39999" transform="matrix(0.416,-0.9094,0.9094,0.416,-80.172,491.767)" class="st4" width="2.8" height="1.9" id="rect1068"></rect><rect x="344.29999" y="308.39999" transform="matrix(0.4162,-0.9093,0.9093,0.4162,-79.7137,495.1371)" class="st4" width="2.8" height="2.5" id="rect1070"></rect><rect x="347.20001" y="309.70001" transform="matrix(0.4166,-0.9091,0.9091,0.4166,-79.3247,498.33)" class="st4" width="2.8" height="2.5" id="rect1072"></rect><rect x="310.29999" y="291.79999" transform="matrix(0.4166,-0.9091,0.9091,0.4166,-85.4898,454.8596)" class="st4" width="2.8" height="4.4000001" id="rect1074"></rect><rect x="305.60001" y="290.29999" transform="matrix(0.4164,-0.9092,0.9092,0.4164,-86.2389,449.4343)" class="st4" width="2.8" height="3.2" id="rect1076"></rect><rect x="300.60001" y="287.5" transform="matrix(0.4165,-0.9092,0.9092,0.4165,-87.0814,443.5432)" class="st4" width="2.8" height="4.1999998" id="rect1078"></rect><rect x="295.70001" y="285.20001" transform="matrix(0.4165,-0.9092,0.9092,0.4165,-87.9066,437.7296)" class="st4" width="2.8" height="4.1999998" id="rect1080"></rect><rect x="384.39999" y="325.79999" transform="matrix(0.4166,-0.9091,0.9091,0.4166,-73.1142,542.0245)" class="st4" width="2.8" height="4.4000001" id="rect1082"></rect><rect x="379.70001" y="324.20001" transform="matrix(0.4169,-0.909,0.909,0.4169,-73.9638,536.3744)" class="st4" width="2.8" height="3.2" id="rect1084"></rect><rect x="374.70001" y="321.39999" transform="matrix(0.4165,-0.9092,0.9092,0.4165,-74.7053,530.702)" class="st4" width="2.8" height="4.1999998" id="rect1086"></rect><rect x="369.70001" y="319.20001" transform="matrix(0.4164,-0.9092,0.9092,0.4164,-75.5203,524.912)" class="st4" width="2.8" height="4.1999998" id="rect1088"></rect><rect x="335.79999" y="312" transform="matrix(0.4166,-0.9091,0.9091,0.4166,-88.1552,489.3097)" class="st4" width="2.8" height="2.5999999" id="rect1090"></rect><rect x="338.5" y="313.70001" transform="matrix(0.4167,-0.909,0.909,0.4167,-87.7198,492.4832)" class="st4" width="2.8" height="1.9" id="rect1092"></rect><rect x="341.5" y="314.70001" transform="matrix(0.4161,-0.9093,0.9093,0.4161,-87.1113,496.2108)" class="st4" width="2.8" height="2.5" id="rect1094"></rect><rect x="344.39999" y="316" transform="matrix(0.4167,-0.909,0.909,0.4167,-86.7448,499.3413)" class="st4" width="2.8" height="2.5" id="rect1096"></rect><rect x="307.39999" y="298.10001" transform="matrix(0.4161,-0.9093,0.9093,0.4161,-92.8104,456.1245)" class="st4" width="2.8" height="4.4000001" id="rect1098"></rect><rect x="302.70001" y="296.60001" transform="matrix(0.4167,-0.9091,0.9091,0.4167,-93.6862,450.3761)" class="st4" width="2.8" height="3.2" id="rect1100"></rect><rect x="297.70001" y="293.79999" transform="matrix(0.4165,-0.9091,0.9091,0.4165,-94.4922,444.577)" class="st4" width="2.8" height="4.1999998" id="rect1102"></rect><rect x="292.79999" y="291.5" transform="matrix(0.4164,-0.9092,0.9092,0.4164,-95.2948,438.8268)" class="st4" width="2.8" height="4.1999998" id="rect1104"></rect><rect x="381.5" y="332.10001" transform="matrix(0.4166,-0.9091,0.9091,0.4166,-80.5185,543.0754)" class="st4" width="2.8" height="4.4000001" id="rect1106"></rect><rect x="376.79999" y="330.5" transform="matrix(0.4164,-0.9092,0.9092,0.4164,-81.2561,537.6694)" class="st4" width="2.8" height="3.2" id="rect1108"></rect><rect x="371.79999" y="327.70001" transform="matrix(0.4165,-0.9091,0.9091,0.4165,-82.1192,531.733)" class="st4" width="2.8" height="4.1999998" id="rect1110"></rect><rect x="366.89999" y="325.5" transform="matrix(0.4165,-0.9092,0.9092,0.4165,-82.9351,525.9398)" class="st4" width="2.8" height="4.1999998" id="rect1112"></rect><g class="st5" id="g1116"><rect x="334" y="264" transform="matrix(0.4165,-0.9091,0.9091,0.4165,-94.9953,494.2128)" class="st3" width="7" height="114.2" id="rect1114"></rect></g><rect x="332.89999" y="318.29999" transform="matrix(0.4163,-0.9092,0.9092,0.4163,-95.4985,490.5109)" class="st4" width="2.8" height="2.5999999" id="rect1118"></rect><rect x="335.60001" y="320" transform="matrix(0.4162,-0.9093,0.9093,0.4162,-95.0315,493.7608)" class="st4" width="2.8" height="1.9" id="rect1120"></rect><rect x="338.60001" y="321" transform="matrix(0.417,-0.9089,0.9089,0.417,-94.6788,496.864)" class="st4" width="2.8" height="2.5" id="rect1122"></rect><rect x="341.5" y="322.29999" transform="matrix(0.416,-0.9094,0.9094,0.416,-94.0098,500.7322)" class="st4" width="2.8" height="2.5" id="rect1124"></rect><rect x="304.5" y="304.39999" transform="matrix(0.4165,-0.9091,0.9091,0.4165,-100.289,456.9818)" class="st4" width="2.8" height="4.4000001" id="rect1126"></rect><rect x="299.79999" y="302.89999" transform="matrix(0.4168,-0.909,0.909,0.4168,-101.1121,451.3647)" class="st4" width="2.8" height="3.2" id="rect1128"></rect><rect x="294.79999" y="300.10001" transform="matrix(0.4165,-0.9091,0.9091,0.4165,-101.8964,445.6281)" class="st4" width="2.8" height="4.1999998" id="rect1130"></rect><rect x="289.89999" y="297.79999" transform="matrix(0.4165,-0.9092,0.9092,0.4165,-102.7159,439.8325)" class="st4" width="2.8" height="4.1999998" id="rect1132"></rect><rect x="378.60001" y="338.39999" transform="matrix(0.4166,-0.9091,0.9091,0.4166,-87.9229,544.1266)" class="st4" width="2.8" height="4.4000001" id="rect1134"></rect><rect x="373.89999" y="336.79999" transform="matrix(0.4164,-0.9092,0.9092,0.4164,-88.664,538.7149)" class="st4" width="2.8" height="3.2" id="rect1136"></rect><rect x="368.89999" y="334" transform="matrix(0.4165,-0.9091,0.9091,0.4165,-89.5241,532.7844)" class="st4" width="2.8" height="4.1999998" id="rect1138"></rect><rect x="364" y="331.79999" transform="matrix(0.4165,-0.9092,0.9092,0.4165,-90.3401,526.9913)" class="st4" width="2.8" height="4.1999998" id="rect1140"></rect><rect x="330" y="324.60001" transform="matrix(0.4166,-0.9091,0.9091,0.4166,-102.963,491.4108)" class="st4" width="2.8" height="2.5999999" id="rect1142"></rect><rect x="332.79999" y="326.20001" transform="matrix(0.416,-0.9094,0.9094,0.416,-102.3931,494.9286)" class="st4" width="2.8" height="1.9" id="rect1144"></rect><rect x="335.70001" y="327.29999" transform="matrix(0.4167,-0.909,0.909,0.4167,-102.0347,498.033)" class="st4" width="2.8" height="2.5" id="rect1146"></rect><rect x="338.60001" y="328.60001" transform="matrix(0.4167,-0.909,0.909,0.4167,-101.5512,501.4416)" class="st4" width="2.8" height="2.5" id="rect1148"></rect><rect x="301.60001" y="310.70001" transform="matrix(0.4167,-0.909,0.909,0.4167,-107.7191,457.9617)" class="st4" width="2.8" height="4.4000001" id="rect1150"></rect><rect x="296.89999" y="309.20001" transform="matrix(0.4164,-0.9092,0.9092,0.4164,-108.4495,452.6025)" class="st4" width="2.8" height="3.2" id="rect1152"></rect><rect x="292" y="306.39999" transform="matrix(0.4166,-0.9091,0.9091,0.4166,-109.3175,446.6325)" class="st4" width="2.8" height="4.1999998" id="rect1154"></rect><rect x="287" y="304.10001" transform="matrix(0.4164,-0.9092,0.9092,0.4164,-110.113,440.9051)" class="st4" width="2.8" height="4.1999998" id="rect1156"></rect><rect x="375.70001" y="344.70001" transform="matrix(0.4164,-0.9092,0.9092,0.4164,-95.2909,545.2632)" class="st4" width="2.8" height="4.4000001" id="rect1158"></rect><rect x="371" y="343.10001" transform="matrix(0.4168,-0.909,0.909,0.4168,-96.1595,539.5499)" class="st4" width="2.8" height="3.2" id="rect1160"></rect><rect x="366" y="340.29999" transform="matrix(0.4167,-0.9091,0.9091,0.4167,-96.9607,533.7564)" class="st4" width="2.8" height="4.1999998" id="rect1162"></rect><rect x="361.10001" y="338" transform="matrix(0.4169,-0.9089,0.9089,0.4169,-97.8376,527.8158)" class="st4" width="2.8" height="4.1999998" id="rect1164"></rect><g class="st5" id="g1168"><rect x="328.20001" y="276.60001" transform="matrix(0.4165,-0.9091,0.9091,0.4165,-109.8077,496.3075)" class="st3" width="7" height="114.2" id="rect1166"></rect></g><rect x="327.10001" y="330.89999" transform="matrix(0.4165,-0.9091,0.9091,0.4165,-110.3526,492.5003)" class="st4" width="2.8" height="2.5999999" id="rect1170"></rect><rect x="329.89999" y="332.5" transform="matrix(0.4171,-0.9089,0.9089,0.4171,-109.9876,495.4737)" class="st4" width="2.8" height="1.9" id="rect1172"></rect><rect x="332.79999" y="333.60001" transform="matrix(0.4161,-0.9093,0.9093,0.4161,-109.3295,499.3744)" class="st4" width="2.8" height="2.5" id="rect1174"></rect><rect x="335.70001" y="334.89999" transform="matrix(0.4166,-0.9091,0.9091,0.4166,-108.9389,502.5327)" class="st4" width="2.8" height="2.5" id="rect1176"></rect><rect x="298.70001" y="317" transform="matrix(0.4163,-0.9092,0.9092,0.4163,-115.0569,459.206)" class="st4" width="2.8" height="4.4000001" id="rect1178"></rect><rect x="294.10001" y="315.5" transform="matrix(0.4164,-0.9092,0.9092,0.4164,-115.8626,453.6306)" class="st4" width="2.8" height="3.2" id="rect1180"></rect><rect x="289.10001" y="312.70001" transform="matrix(0.4165,-0.9092,0.9092,0.4165,-116.7005,447.7487)" class="st4" width="2.8" height="4.1999998" id="rect1182"></rect><rect x="284.10001" y="310.39999" transform="matrix(0.4165,-0.9091,0.9091,0.4165,-117.5309,441.9179)" class="st4" width="2.8" height="4.1999998" id="rect1184"></rect><rect x="372.79999" y="350.89999" transform="matrix(0.4167,-0.9091,0.9091,0.4167,-102.7503,546.1788)" class="st4" width="2.8" height="4.4000001" id="rect1186"></rect><rect x="368.10001" y="349.39999" transform="matrix(0.4168,-0.909,0.909,0.4168,-103.5599,540.6053)" class="st4" width="2.8" height="3.2" id="rect1188"></rect><rect x="363.20001" y="346.60001" transform="matrix(0.4165,-0.9091,0.9091,0.4165,-104.332,534.8867)" class="st4" width="2.8" height="4.1999998" id="rect1190"></rect><rect x="358.20001" y="344.29999" transform="matrix(0.4167,-0.909,0.909,0.4167,-105.1998,528.9646)" class="st4" width="2.8" height="4.1999998" id="rect1192"></rect><rect x="324.29999" y="337.20001" transform="matrix(0.4165,-0.9091,0.9091,0.4165,-117.7561,493.5506)" class="st4" width="2.8" height="2.5999999" id="rect1194"></rect><rect x="327" y="338.79999" transform="matrix(0.417,-0.9089,0.9089,0.417,-117.3733,496.5662)" class="st4" width="2.8" height="1.9" id="rect1196"></rect><rect x="329.89999" y="339.89999" transform="matrix(0.4166,-0.9091,0.9091,0.4166,-116.8264,500.1742)" class="st4" width="2.8" height="2.5" id="rect1198"></rect><rect x="332.79999" y="341.20001" transform="matrix(0.4163,-0.9092,0.9092,0.4163,-116.2902,503.7292)" class="st4" width="2.8" height="2.5" id="rect1200"></rect><rect x="295.89999" y="323.29999" transform="matrix(0.4166,-0.9091,0.9091,0.4166,-122.5043,460.1266)" class="st4" width="2.8" height="4.4000001" id="rect1202"></rect><rect x="291.20001" y="321.79999" transform="matrix(0.417,-0.9089,0.9089,0.417,-123.3478,454.425)" class="st4" width="2.8" height="3.2" id="rect1204"></rect><rect x="286.20001" y="319" transform="matrix(0.4164,-0.9092,0.9092,0.4164,-124.0892,448.848)" class="st4" width="2.8" height="4.1999998" id="rect1206"></rect><rect x="281.20001" y="316.70001" transform="matrix(0.4166,-0.9091,0.9091,0.4166,-124.9496,442.9208)" class="st4" width="2.8" height="4.1999998" id="rect1208"></rect><rect x="369.89999" y="357.20001" transform="matrix(0.4166,-0.9091,0.9091,0.4166,-110.1351,547.2787)" class="st4" width="2.8" height="4.4000001" id="rect1210"></rect><rect x="365.29999" y="355.70001" transform="matrix(0.4164,-0.9092,0.9092,0.4164,-110.8898,541.8426)" class="st4" width="2.8" height="3.2" id="rect1212"></rect><rect x="360.29999" y="352.89999" transform="matrix(0.4163,-0.9092,0.9092,0.4163,-111.6948,536.0482)" class="st4" width="2.8" height="4.1999998" id="rect1214"></rect><rect x="355.29999" y="350.60001" transform="matrix(0.4166,-0.9091,0.9091,0.4166,-112.573,530.095)" class="st4" width="2.8" height="4.1999998" id="rect1216"></rect><g class="st5" id="g1220"><rect x="322.5" y="289.20001" transform="matrix(0.4165,-0.9091,0.9091,0.4165,-124.6158,498.4116)" class="st3" width="7" height="114.2" id="rect1218"></rect></g><rect x="321.39999" y="343.5" transform="matrix(0.4165,-0.9091,0.9091,0.4165,-125.161,494.6018)" class="st4" width="2.8" height="2.5999999" id="rect1222"></rect><rect x="324.10001" y="345.10001" transform="matrix(0.416,-0.9094,0.9094,0.416,-124.615,498.0889)" class="st4" width="2.8" height="1.9" id="rect1224"></rect><rect x="327" y="346.20001" transform="matrix(0.4168,-0.909,0.909,0.4168,-124.2658,501.1209)" class="st4" width="2.8" height="2.5" id="rect1226"></rect><rect x="329.89999" y="347.5" transform="matrix(0.4166,-0.9091,0.9091,0.4166,-123.7417,504.6476)" class="st4" width="2.8" height="2.5" id="rect1228"></rect><rect x="293" y="329.60001" transform="matrix(0.4166,-0.9091,0.9091,0.4166,-129.9084,461.178)" class="st4" width="2.8" height="4.4000001" id="rect1230"></rect><rect x="288.29999" y="328.10001" transform="matrix(0.4165,-0.9091,0.9091,0.4165,-130.6821,455.6987)" class="st4" width="2.8" height="3.2" id="rect1232"></rect><rect x="283.29999" y="325.29999" transform="matrix(0.4164,-0.9092,0.9092,0.4164,-131.5021,449.8739)" class="st4" width="2.8" height="4.1999998" id="rect1234"></rect><rect x="278.39999" y="323" transform="matrix(0.4166,-0.9091,0.9091,0.4166,-132.353,443.9718)" class="st4" width="2.8" height="4.1999998" id="rect1236"></rect><rect x="367.10001" y="363.5" transform="matrix(0.4162,-0.9093,0.9093,0.4162,-117.4715,548.5101)" class="st4" width="2.8" height="4.4000001" id="rect1238"></rect><rect x="362.39999" y="362" transform="matrix(0.4165,-0.9091,0.9091,0.4165,-118.31,542.8541)" class="st4" width="2.8" height="3.2" id="rect1240"></rect><rect x="357.39999" y="359.20001" transform="matrix(0.4163,-0.9092,0.9092,0.4163,-119.1036,537.0913)" class="st4" width="2.8" height="4.1999998" id="rect1242"></rect><rect x="352.39999" y="356.89999" transform="matrix(0.4166,-0.9091,0.9091,0.4166,-119.9868,531.1209)" class="st4" width="2.8" height="4.1999998" id="rect1244"></rect><rect x="318.5" y="349.79999" transform="matrix(0.4166,-0.9091,0.9091,0.4166,-132.578,495.6136)" class="st4" width="2.8" height="2.5999999" id="rect1246"></rect><rect x="321.20001" y="351.39999" transform="matrix(0.4167,-0.909,0.909,0.4167,-132.1382,498.7835)" class="st4" width="2.8" height="1.9" id="rect1248"></rect><rect x="324.20001" y="352.5" transform="matrix(0.4163,-0.9092,0.9092,0.4163,-131.5856,502.4237)" class="st4" width="2.8" height="2.5" id="rect1250"></rect><rect x="327.10001" y="353.79999" transform="matrix(0.4166,-0.9091,0.9091,0.4166,-131.15,505.6839)" class="st4" width="2.8" height="2.5" id="rect1252"></rect><rect x="290.10001" y="335.89999" transform="matrix(0.4164,-0.9092,0.9092,0.4164,-137.2965,462.2851)" class="st4" width="2.8" height="4.4000001" id="rect1254"></rect><rect x="285.39999" y="334.29999" transform="matrix(0.4165,-0.9092,0.9092,0.4165,-138.0796,456.7747)" class="st4" width="2.8" height="3.2" id="rect1256"></rect><rect x="280.39999" y="331.5" transform="matrix(0.4166,-0.9091,0.9091,0.4166,-138.933,450.835)" class="st4" width="2.8" height="4.1999998" id="rect1258"></rect><rect x="364.20001" y="369.79999" transform="matrix(0.4166,-0.9091,0.9091,0.4166,-124.9517,549.3555)" class="st4" width="2.8" height="4.4000001" id="rect1260"></rect><rect x="359.5" y="368.29999" transform="matrix(0.4169,-0.909,0.909,0.4169,-125.7799,543.7203)" class="st4" width="2.8" height="3.2" id="rect1262"></rect><rect x="354.5" y="365.5" transform="matrix(0.4163,-0.9092,0.9092,0.4163,-126.5144,538.1265)" class="st4" width="2.8" height="4.1999998" id="rect1264"></rect><rect x="349.60001" y="363.20001" transform="matrix(0.4166,-0.9091,0.9091,0.4166,-127.3861,532.1836)" class="st4" width="2.8" height="4.1999998" id="rect1266"></rect><g class="st5" id="g1270"><rect x="316.70001" y="301.79999" transform="matrix(0.4165,-0.9091,0.9091,0.4165,-139.4253,500.514)" class="st3" width="7" height="114.2" id="rect1268"></rect></g><rect x="315.60001" y="356.10001" transform="matrix(0.4166,-0.9091,0.9091,0.4166,-139.9807,496.664)" class="st4" width="2.8" height="2.5999999" id="rect1272"></rect><rect x="318.29999" y="357.70001" transform="matrix(0.417,-0.9089,0.9089,0.417,-139.5785,499.7126)" class="st4" width="2.8" height="1.9" id="rect1274"></rect><rect x="321.29999" y="358.79999" transform="matrix(0.4169,-0.909,0.909,0.4169,-139.0764,503.1996)" class="st4" width="2.8" height="2.5" id="rect1276"></rect><rect x="324.20001" y="360.10001" transform="matrix(0.4161,-0.9093,0.9093,0.4161,-138.4621,507.0263)" class="st4" width="2.8" height="2.5" id="rect1278"></rect><rect x="287.20001" y="342.20001" transform="matrix(0.4166,-0.9091,0.9091,0.4166,-144.7221,463.2573)" class="st4" width="2.8" height="4.4000001" id="rect1280"></rect><rect x="282.5" y="340.60001" transform="matrix(0.4167,-0.909,0.909,0.4167,-145.52,457.693)" class="st4" width="2.8" height="3.2" id="rect1282"></rect><rect x="277.5" y="337.79999" transform="matrix(0.4166,-0.9091,0.9091,0.4166,-146.3312,451.9047)" class="st4" width="2.8" height="4.1999998" id="rect1284"></rect><rect x="361.29999" y="376.10001" transform="matrix(0.4165,-0.9091,0.9091,0.4165,-132.341,550.4482)" class="st4" width="2.8" height="4.4000001" id="rect1286"></rect><rect x="356.60001" y="374.60001" transform="matrix(0.4162,-0.9093,0.9093,0.4162,-133.0685,545.1014)" class="st4" width="2.8" height="3.2" id="rect1288"></rect><rect x="351.60001" y="371.79999" transform="matrix(0.4165,-0.9091,0.9091,0.4165,-133.9498,539.0916)" class="st4" width="2.8" height="4.1999998" id="rect1290"></rect><rect x="346.70001" y="369.5" transform="matrix(0.4165,-0.9092,0.9092,0.4165,-134.7678,533.2994)" class="st4" width="2.8" height="4.1999998" id="rect1292"></rect><rect x="312.70001" y="362.39999" transform="matrix(0.4164,-0.9092,0.9092,0.4164,-147.3499,497.8362)" class="st4" width="2.8" height="2.5999999" id="rect1294"></rect><rect x="315.5" y="364" transform="matrix(0.416,-0.9094,0.9094,0.416,-146.8363,501.2502)" class="st4" width="2.8" height="1.9" id="rect1296"></rect><rect x="318.39999" y="365" transform="matrix(0.4169,-0.909,0.909,0.4169,-146.4791,504.2495)" class="st4" width="2.8" height="2.5" id="rect1298"></rect><rect x="321.29999" y="366.39999" transform="matrix(0.4167,-0.909,0.909,0.4167,-145.9701,507.7424)" class="st4" width="2.8" height="2.5" id="rect1300"></rect><rect x="284.29999" y="348.5" transform="matrix(0.4167,-0.9091,0.9091,0.4167,-152.1323,464.2849)" class="st4" width="2.8" height="4.4000001" id="rect1302"></rect><rect x="279.60001" y="346.89999" transform="matrix(0.4163,-0.9092,0.9092,0.4163,-152.8743,458.9332)" class="st4" width="2.8" height="3.2" id="rect1304"></rect><rect x="358.39999" y="382.39999" transform="matrix(0.4164,-0.9092,0.9092,0.4164,-139.7209,551.5734)" class="st4" width="2.8" height="4.4000001" id="rect1306"></rect><rect x="353.70001" y="380.89999" transform="matrix(0.4163,-0.9092,0.9092,0.4163,-140.484,546.1248)" class="st4" width="2.8" height="3.2" id="rect1308"></rect><rect x="348.70001" y="378.10001" transform="matrix(0.4165,-0.9091,0.9091,0.4165,-141.3543,540.1423)" class="st4" width="2.8" height="4.1999998" id="rect1310"></rect><rect x="343.79999" y="375.79999" transform="matrix(0.4165,-0.9092,0.9092,0.4165,-142.1728,534.3511)" class="st4" width="2.8" height="4.1999998" id="rect1312"></rect><g class="st5" id="g1316"><rect x="310.89999" y="314.39999" transform="matrix(0.4165,-0.9091,0.9091,0.4165,-154.2329,502.6189)" class="st3" width="7" height="114.2" id="rect1314"></rect></g><rect x="309.79999" y="368.70001" transform="matrix(0.4163,-0.9092,0.9092,0.4163,-154.7399,498.9434)" class="st4" width="2.8" height="2.5999999" id="rect1318"></rect><rect x="312.60001" y="370.29999" transform="matrix(0.417,-0.9089,0.9089,0.417,-154.3843,501.8011)" class="st4" width="2.8" height="1.9" id="rect1320"></rect><rect x="315.5" y="371.29999" transform="matrix(0.4166,-0.9091,0.9091,0.4166,-153.8452,505.4272)" class="st4" width="2.8" height="2.5" id="rect1322"></rect><rect x="318.39999" y="372.70001" transform="matrix(0.4166,-0.9091,0.9091,0.4166,-153.3607,508.8358)" class="st4" width="2.8" height="2.5" id="rect1324"></rect><rect x="281.39999" y="354.79999" transform="matrix(0.4167,-0.9091,0.9091,0.4167,-159.535,465.3399)" class="st4" width="2.8" height="4.4000001" id="rect1326"></rect><rect x="276.79999" y="353.20001" transform="matrix(0.4162,-0.9093,0.9093,0.4162,-160.2684,460.0326)" class="st4" width="2.8" height="3.2" id="rect1328"></rect><rect x="355.5" y="388.70001" transform="matrix(0.4166,-0.9091,0.9091,0.4166,-147.1616,552.5118)" class="st4" width="2.8" height="4.4000001" id="rect1330"></rect><rect x="350.79999" y="387.20001" transform="matrix(0.4167,-0.9091,0.9091,0.4167,-147.9538,546.9748)" class="st4" width="2.8" height="3.2" id="rect1332"></rect><rect x="345.89999" y="384.39999" transform="matrix(0.4166,-0.9091,0.9091,0.4166,-148.7762,541.1356)" class="st4" width="2.8" height="4.1999998" id="rect1334"></rect><rect x="340.89999" y="382.10001" transform="matrix(0.4167,-0.9091,0.9091,0.4167,-149.6112,535.2919)" class="st4" width="2.8" height="4.1999998" id="rect1336"></rect><rect x="360.60001" y="253" transform="matrix(0.4159,-0.9094,0.9094,0.4159,-20.32,478.8828)" class="st6" width="4.0999999" height="4.4000001" id="rect1338"></rect><rect x="357.5" y="259.79999" transform="matrix(0.416,-0.9094,0.9094,0.416,-28.2362,479.9795)" class="st7" width="4.0999999" height="4.4000001" id="rect1340"></rect><rect x="354.39999" y="266.5" transform="matrix(0.4159,-0.9094,0.9094,0.4159,-36.1195,481.1415)" class="st8" width="4.0999999" height="4.4000001" id="rect1342"></rect><polygon class="st1" points="414.7,271.5 398.2,280.9 397.9,281 397.7,280.7 394.4,275.7 386.1,277.9 384.8,278.3 383.8,277.1 376.8,268.8 362.3,269.9 361.7,271.3 361,272.9 371.7,272.2 374.5,272 375.4,272 382.3,280.2 383.7,281.8 384.5,281.6 392.7,279.4 396,284.4 396.8,285.6 398.7,284.5 415.6,274.6 416.3,274.1 417,275.2 418.1,271.3 413.8,270.1 " id="polygon1344"></polygon><polygon class="st9" points="441.6,263.5 432.1,242.3 425.7,256.3 " id="polygon1346"></polygon></g><rect x="138.2" y="196" class="st10" width="169.7" height="8" id="rect1350" style="fill:#00c893;fill-opacity:1"></rect><path class="st11" d="m 328.1,200.1 c 0,-2.6 -2.1,-4.8 -4.8,-4.8 -2.6,0 -4.8,2.1 -4.8,4.8 0,2.6 2.1,4.8 4.8,4.8 2.6,-0.1 4.8,-2.2 4.8,-4.8 z" id="path1352"></path><g id="g1364"><polygon class="st10" points="306.6,212.4 326.7,199.9 306.6,186.6 " id="polygon1354" style="fill:#00c893;fill-opacity:1"></polygon><polygon class="st7" points="141.6,195.8 158.4,195.8 146.1,179.1 129.3,179.1 " id="polygon1356" style="fill:#00f8c3;fill-opacity:1"></polygon><polygon class="st7" points="129.4,220.8 146.3,220.8 158.6,204 141.7,204 " id="polygon1358" style="fill:#00f8c3;fill-opacity:1"></polygon><polygon class="st1" points="153,195.8 169.9,195.8 157.6,179.1 140.7,179.1 " id="polygon1360" style="fill:#00dafc;fill-opacity:1"></polygon><polygon class="st1" points="140.9,220.8 157.7,220.8 170,204 153.2,204 " id="polygon1362" style="fill:#00dafc;fill-opacity:1"></polygon></g><path class="st11" d="m 60.6,185.5 h 46.7 c 1,0 1.9,-0.8 1.9,-1.9 v 0 c 0,-1 -0.8,-1.9 -1.9,-1.9 H 60.6 c -1,0 -1.9,0.8 -1.9,1.9 v 0 c 0,1.1 0.8,1.9 1.9,1.9 z" id="path1366" style="fill:#f0edff;fill-opacity:1"></path><path class="st11" d="m 46.7,199.7 h 46.7 c 1,0 1.9,-0.8 1.9,-1.9 v 0 c 0,-1 -0.8,-1.9 -1.9,-1.9 H 46.7 c -1,0 -1.9,0.8 -1.9,1.9 v 0 c 0,1.1 0.9,1.9 1.9,1.9 z" id="path1368" style="fill:#f0edff;fill-opacity:1"></path><path class="st11" d="m 64.4,215.1 h 40.2 c 0.2,0 0.3,-0.1 0.3,-0.3 v -3.1 c 0,-0.2 -0.1,-0.3 -0.3,-0.3 H 64.4 c -0.2,0 -0.3,0.1 -0.3,0.3 v 3.1 c 0,0.2 0.2,0.3 0.3,0.3 z" id="path1370" style="fill:#f0edff;fill-opacity:1"></path><g class="st12" id="g1374" style="fill:#00ff00;fill-opacity:1"><circle class="st13" cx="330.79999" cy="231.2" r="12.3" id="circle1372" style="fill:#00ff00;fill-opacity:1"></circle></g></svg>