<svg xmlns:dc="http://purl.org/dc/elements/1.1/" xmlns:cc="http://creativecommons.org/ns#" xmlns:rdf="http://www.w3.org/1999/02/22-rdf-syntax-ns#" xmlns:svg="http://www.w3.org/2000/svg" xmlns="http://www.w3.org/2000/svg" xmlns:sodipodi="http://sodipodi.sourceforge.net/DTD/sodipodi-0.dtd" xmlns:inkscape="http://www.inkscape.org/namespaces/inkscape" width="149.99976" height="149.99976" fill-rule="evenodd" viewBox="0 0 26.119765 26.119765" id="svg18" sodipodi:docname="telefon.svg" inkscape:version="1.0.2 (e86c8708, 2021-01-15)"><metadata></metadata><defs id="defs22"></defs><path d="m 10.839432,10.083684 c -2.4409689,1.409251 1.283406,8.391418 3.954462,6.849287 l 2.476553,4.289465 c -1.126952,0.650689 -2.080914,1.060848 -3.387446,0.313956 C 10.255295,19.462604 6.2619769,12.548917 6.3758105,8.4249138 6.4152713,6.9925824 7.2591413,6.4313918 8.3629686,5.7941029 l 2.4765524,4.2894651 z" fill="#1b1c1f" id="path10" style="fill:#505080;fill-opacity:1;stroke-width:0.448164"></path><path d="m 11.863217,9.9671169 c -0.26374,0.1522771 -0.603139,0.061385 -0.755443,-0.2023818 L 8.7730653,5.7208819 C 8.6207613,5.4570838 8.7116534,5.1177163 8.9754202,4.9654123 L 10.202488,4.2569775 c 0.263767,-0.152304 0.603219,-0.061331 0.755497,0.2024355 l 2.334709,4.0438263 c 0.152277,0.2637399 0.06136,0.6031388 -0.202382,0.7554159 z" fill="#1b1c1f" id="path12" style="fill:#505080;fill-opacity:1;stroke-width:0.448164"></path><path d="m 18.241439,21.014577 c -0.26374,0.152277 -0.603139,0.06139 -0.755443,-0.202408 l -2.334709,-4.043853 c -0.152304,-0.263767 -0.06141,-0.603166 0.202355,-0.755443 l 1.227068,-0.708462 c 0.263766,-0.152277 0.603219,-0.0613 0.755496,0.202436 l 2.334709,4.043826 c 0.152277,0.263767 0.06136,0.603166 -0.202382,0.755443 z" fill="#1b1c1f" id="path14" style="fill:#505080;fill-opacity:1;stroke-width:0.448164"></path><path d="m 13.060083,0 h 1.93e-4 v 0.00304303 c 3.607718,5.378e-5 6.872591,1.46101377 9.233966,3.82265747 2.361375,2.3616437 3.822433,5.6262477 3.822523,9.2339655 h 0.003 v 6.1e-4 h -0.003 c -5.4e-5,3.607718 -1.461014,6.872591 -3.822658,9.233966 -2.361643,2.361375 -5.626247,3.822433 -9.233966,3.822523 v 0.003 h -6.09e-4 v -0.003 C 9.4518138,26.116711 6.1869409,24.655751 3.8255661,22.294107 1.4641913,19.932464 0.00313266,16.66786 0.00304303,13.060141 H 0 v -6.09e-4 H 0.00304303 C 0.00309681,9.4518138 1.4640568,6.1869409 3.8257005,3.8255661 6.1873442,1.4641913 9.4519482,0.00313266 13.059666,0.00304303 V 0 Z m 1.93e-4,1.5577276 v 0.00304 h -6.1e-4 v -0.00304 C 9.8870256,1.5578127 7.0121448,2.8463328 4.9295278,4.9290842 2.8469109,7.0118355 1.5580368,9.8871197 1.5580368,13.059671 h 0.00304 v 6.09e-4 h -0.00304 c 8.51e-5,3.172641 1.2886052,6.047522 3.3713566,8.130139 2.0827514,2.082617 4.9580355,3.371491 8.1305866,3.371491 v -0.003 h 6.1e-4 v 0.003 c 3.17264,-8.5e-5 6.047521,-1.288605 8.130138,-3.371357 2.082617,-2.082751 3.371491,-4.958035 3.371491,-8.130586 h -0.003 v -6.1e-4 h 0.003 C 24.562134,9.8867164 23.273614,7.0118355 21.190863,4.9292186 19.108111,2.8466017 16.232827,1.5577276 13.060276,1.5577276 Z" fill="#1b1c1f" fill-rule="nonzero" id="path16" style="fill:#505080;fill-opacity:1;stroke-width:0.448164"></path></svg>