<svg xmlns:dc="http://purl.org/dc/elements/1.1/" xmlns:cc="http://creativecommons.org/ns#" xmlns:rdf="http://www.w3.org/1999/02/22-rdf-syntax-ns#" xmlns:svg="http://www.w3.org/2000/svg" xmlns="http://www.w3.org/2000/svg" xmlns:sodipodi="http://sodipodi.sourceforge.net/DTD/sodipodi-0.dtd" xmlns:inkscape="http://www.inkscape.org/namespaces/inkscape" id="Layer_1" x="0px" y="0px" viewBox="0 0 150 116.22485" xml:space="preserve" sodipodi:docname="lean.svg" width="150" height="116.22485" inkscape:version="1.0.2 (e86c8708, 2021-01-15)"><metadata></metadata><defs id="defs925"></defs>
<rect x="0" y="4.7800965" fill="#d6df16" width="150" height="9.560194" id="rect876" style="fill:#505080;fill-opacity:1;stroke-width:0.0698845"></rect><rect x="0" y="106.66465" fill="#d6df16" width="150" height="9.560194" id="rect878" style="fill:#505080;fill-opacity:1;stroke-width:0.0698845"></rect><path fill="#00aeef" d="m 28.429002,49.90449 c 5.50689,-4.76612 13.83712,-4.52851 19.06448,0.69885 1.54444,1.54444 2.65561,3.36843 3.3265,5.30423 l 9.53923,-2.55777 c -1.11117,-3.55712 -3.08191,-6.90459 -5.89825,-9.72093 -9.07799,-9.07799 -23.65589,-9.3156 -33.02041,-0.70583 z" id="path882" style="opacity:0.33;fill:#a0a0f0;fill-opacity:1;stroke-width:0.0698845"></path><path fill="#39b54a" d="m 32.985462,73.74208 c -1.9358,-0.67089 -3.75279,-1.78205 -5.30423,-3.3265 -5.22735,-5.22735 -5.45797,-13.55758 -0.69884,-19.06448 l -6.98146,-6.98146 c -8.60976,9.36452 -8.37216,23.94242 0.70583,33.02041 2.81635,2.81635 6.16381,4.7801 9.72093,5.89825 z" id="path884" style="fill:#a0a0f0;fill-opacity:1;stroke-width:0.0698845"></path><path fill="#ed373d" d="m 51.351102,57.87831 c 0.83861,4.40272 -0.44726,9.12691 -3.85762,12.53727 -3.41036,3.41036 -8.13455,4.68925 -12.53727,3.85763 l -2.55778,9.53922 c 7.70127,1.70518 16.08042,-0.43328 22.06253,-6.42238 5.98211,-5.9891 8.12756,-14.36824 6.42238,-22.06252 z" id="path886" style="opacity:0.66;fill:#a0a0f0;fill-opacity:1;stroke-width:0.0698845"></path><rect x="79.248993" y="66.222511" fill="#009444" width="6.6040816" height="18.155983" id="rect890" style="opacity:0.4;fill:#8381b5;fill-opacity:1;stroke-width:0.0698845"></rect><rect x="91.793274" y="60.610817" fill="#d7df23" width="6.6040816" height="23.767706" id="rect892" style="opacity:0.6;fill:#8381b5;fill-opacity:1;stroke-width:0.0698845"></rect><rect x="104.33752" y="54.999062" fill="#00aeef" width="6.6040816" height="29.379427" id="rect894" style="opacity:0.8;fill:#8381b5;fill-opacity:1;stroke-width:0.0698845"></rect><rect x="116.88177" y="54.999062" fill="#2b3990" width="6.6040816" height="29.379427" id="rect896" style="opacity:0.78;fill:#8381b5;fill-opacity:1;stroke-width:0.0698845"></rect><rect x="129.41901" y="48.23423" fill="#ed1c24" width="6.6040816" height="36.144245" id="rect898" style="fill:#8381b5;fill-opacity:1;stroke-width:0.0698845"></rect><polyline fill="none" stroke="#ef008f" stroke-width="20" stroke-linecap="round" stroke-linejoin="round" stroke-miterlimit="10" points="      1583.6,1324.5 1967,1144.4 2146.5,1144.4 2326,1059.4     " id="polyline900" style="stroke:#00c893;stroke-opacity:1" transform="matrix(0.06988446,0,0,0.06988446,-29.826688,-35.33358)"></polyline><polygon fill="#ef008f" points="2334.9,1084.2 2312.7,1034.7 2366.6,1040.2 " id="polygon902" style="fill:#00c893;fill-opacity:1" transform="matrix(0.06988446,0,0,0.06988446,-29.826688,-35.33358)"></polygon><path fill="#d2d4a9" d="M 100.04659,21.92974 H 49.946422 c -0.4822,0 -0.86656,-0.39135 -0.86656,-0.86656 v 0 c 0,-0.48221 0.39135,-0.86657 0.86656,-0.86657 h 50.100168 c 0.48221,0 0.86657,0.39135 0.86657,0.86657 v 0 c 0.007,0.4822 -0.38436,0.86656 -0.86657,0.86656 z" id="path908" style="fill:#8381b5;fill-opacity:1;stroke-width:0.0698845"></path><path fill="#d2d4a9" d="m 97.195312,25.49385 h -44.38362 c -0.48221,0 -0.86657,-0.39135 -0.86657,-0.86657 v 0 c 0,-0.4822 0.39135,-0.86656 0.86657,-0.86656 h 44.38362 c 0.4822,0 0.86656,0.39135 0.86656,0.86656 v 0 c 0,0.48221 -0.39135,0.86657 -0.86656,0.86657 z" id="path910" style="fill:#8381b5;fill-opacity:1;stroke-width:0.0698845"></path><path fill="#d2d4a9" d="M 134.7023,92.23351 H 84.015102 c -0.31448,0 -0.57306,-0.25857 -0.57306,-0.57305 v 0 c 0,-0.31448 0.25858,-0.57305 0.57306,-0.57305 h 50.694188 c 0.31448,0 0.57305,0.25857 0.57305,0.57305 v 0 c -0.007,0.32147 -0.26556,0.57305 -0.58004,0.57305 z" id="path912" style="fill:#f0edff;fill-opacity:1;stroke-width:0.0698845"></path><path fill="#d2d4a9" d="M 127.25261,95.42024 H 91.464782 c -0.31448,0 -0.57305,-0.25857 -0.57305,-0.57305 v 0 c 0,-0.31448 0.25857,-0.57305 0.57305,-0.57305 h 35.787828 c 0.31448,0 0.57306,0.25857 0.57306,0.57305 v 0 c 0,0.31448 -0.25858,0.57305 -0.57306,0.57305 z" id="path914" style="fill:#f0edff;fill-opacity:1;stroke-width:0.0698845"></path><path fill="#5d5f61" d="m 79.514542,9.56019 h -9.02907 c -2.64164,0 -4.7801,-2.13846 -4.7801,-4.78009 v 0 c 0,-2.64164 2.13846,-4.7801 4.7801,-4.7801 h 9.02907 c 2.64163,0 4.7801,2.13846 4.7801,4.7801 v 0 c 0,2.64163 -2.13847,4.78009 -4.7801,4.78009 z" id="path918" style="fill:#8381b5;fill-opacity:1;stroke-width:0.0698845"></path>
</svg>