<svg xmlns:dc="http://purl.org/dc/elements/1.1/" xmlns:cc="http://creativecommons.org/ns#" xmlns:rdf="http://www.w3.org/1999/02/22-rdf-syntax-ns#" xmlns:svg="http://www.w3.org/2000/svg" xmlns="http://www.w3.org/2000/svg" xmlns:xlink="http://www.w3.org/1999/xlink" xmlns:sodipodi="http://sodipodi.sourceforge.net/DTD/sodipodi-0.dtd" xmlns:inkscape="http://www.inkscape.org/namespaces/inkscape" viewBox="681 -350.7 149.99999 113.45801" xml:space="preserve" id="svg145" sodipodi:docname="rnd4d.svg" width="150" height="113.45801" inkscape:export-filename="/Users/seba/Downloads/lims-1604450.png" inkscape:export-xdpi="96.596558" inkscape:export-ydpi="96.596558" inkscape:version="1.0.2 (e86c8708, 2021-01-15)"><metadata></metadata><defs id="defs149"></defs>
<style type="text/css" id="style10">
	.st0{fill:#D0D0D2;}
	.st1{fill:#B3B7B7;}
	.st2{opacity:0.8706;fill:url(#f);enable-background:new    ;}
	.st3{fill:#1B698C;}
	.st4{opacity:0.54;fill:none;stroke:#65B8DE;stroke-width:3;stroke-miterlimit:10;}
	.st5{fill:#1B70A0;}
	.st6{opacity:0.1642;fill:url(#e);enable-background:new    ;}
	.st7{opacity:0.2637;fill:url(#d);enable-background:new    ;}
	.st8{fill:#65B8DE;}
	.st9{fill:#00447F;}
	.st10{fill:#FFC42A;}
	.st11{fill:#5FC5F2;}
	.st12{fill:#E5BC9C;}
	.st13{fill:#FFFFFF;}
</style>
		
		
		<path d="m 684.93437,-335.36375 130.65065,-15.3065 c 2.45173,-0.28116 4.65606,1.46205 4.93721,3.90254 l 10.44802,89.24102 c 0.28114,2.45173 -1.46205,4.65605 -3.90254,4.93721 l -130.65066,15.31774 c -2.45173,0.28116 -4.65605,-1.46204 -4.93721,-3.90254 l -10.448,-89.24101 c -0.29241,-2.4405 1.46204,-4.65606 3.90253,-4.94846 z" id="path16" style="fill:#505080;fill-opacity:1;stroke-width:0.112465"></path>
		
		<linearGradient id="f" x1="1485.2" x2="2606.1001" y1="683.07001" y2="683.07001" gradientTransform="matrix(0.9932,-0.1163,-0.1156,-0.9869,47.989,1040.2)" gradientUnits="userSpaceOnUse" xlink:href="#d">
		<stop stop-color="#6AC2FF" offset="0" id="stop20"></stop>
		<stop stop-color="#0087BF" offset="1" id="stop22"></stop>
	</linearGradient>
	<polygon class="st2" points="2516,-290.2 2598.7,416.2 1485.5,546.6 1402.8,-159.8 " id="polygon25" style="opacity:1;fill:#ffffff;fill-opacity:1;stroke:none;stroke-width:0.999601;stroke-miterlimit:4;stroke-dasharray:none" transform="matrix(0.11246505,0,0,0.11246505,530.39615,-310.99258)"></polygon>
<rect class="st3" transform="rotate(-7.146337)" x="807.0993" y="-216.59296" width="33.884636" height="26.214769" id="rect27" style="fill:#8381b5;fill-opacity:1;stroke-width:0.112461"></rect>





<rect class="st5" transform="rotate(-7.146337)" x="768.65057" y="-216.29128" width="32.310177" height="25.911118" id="rect39" style="fill:#8381b5;fill-opacity:1;stroke-width:0.112461"></rect>
<radialGradient id="e" cx="2342.1001" cy="981.59003" r="8.0897999" gradientTransform="matrix(0.14033389,-0.01643114,-0.01561015,-0.13330482,437.00517,-166.83487)" gradientUnits="userSpaceOnUse">
	<stop stop-color="#fff" offset="0" id="stop41"></stop>
	<stop stop-opacity="0" offset="1" id="stop43"></stop>
</radialGradient>
<path class="st6" d="m 751.45745,-336.53339 c 0.0675,0.59606 -0.38238,1.13589 -1.00094,1.21462 -0.6298,0.0675 -1.19213,-0.34864 -1.27086,-0.94471 -0.0675,-0.59606 0.38238,-1.13589 1.00094,-1.21462 0.62981,-0.0787 1.20338,0.34864 1.27086,0.94471 z" id="path46" style="fill:url(#e);stroke-width:0.112465"></path>
<linearGradient id="d" x1="2171.6001" x2="2493.3999" y1="987.71997" y2="190.44" gradientTransform="matrix(1.0024,-0.1174,-0.1171,-0.999,-639.9093,1067.6202)" gradientUnits="userSpaceOnUse">
	<stop stop-color="#fff" offset="0" id="stop48"></stop>
	<stop stop-opacity="0" offset="1" id="stop50"></stop>
</linearGradient>

<rect class="st8" transform="rotate(-6.6787069)" x="766.49402" y="-235.74606" width="72.606422" height="9.0982943" id="rect55" style="fill:#8381b5;fill-opacity:1;stroke-width:0.112463"></rect>
	<circle class="st9" cx="741.81915" cy="-265.64667" r="5.6232524" id="circle57" style="fill:#8381b5;fill-opacity:1;stroke-width:0.112465"></circle>
	<polygon class="st10" points="1885.7,395.9 1882.8,371 1869.7,372.6 1872.6,397.5 1847.7,400.4 1849.3,413.5 1874.1,410.6 1877,435.5 1890.2,434 1887.2,409 1912.1,406.1 1910.6,393 " id="polygon59" transform="matrix(0.11246505,0,0,0.11246505,530.39615,-310.99258)" style="fill:#ffffff;fill-opacity:1"></polygon>
<path class="st5" d="m 770.64398,-269.02062 -22.05439,2.57545 c -0.19119,0.0225 -0.35989,-0.11247 -0.38238,-0.30366 l -0.58482,-4.9822 c -0.0225,-0.19119 0.11246,-0.35989 0.30366,-0.38238 l 22.0544,-2.57545 c 0.19119,-0.0225 0.35987,0.11246 0.38238,0.30365 l 0.5848,4.98221 c 0.0226,0.19119 -0.11244,0.35988 -0.30365,0.38238 z" id="path61" style="fill:#8381b5;fill-opacity:1;stroke-width:0.112465"></path>
<polygon class="st11" points="2115.1,350.1 2120.5,343.3 2116.9,340.4 2111.5,347.4 2104.6,341.9 2101.7,345.5 2108.6,351 2103.1,357.8 2106.8,360.7 2112.2,353.8 2119.1,359.2 2122,355.6 " id="polygon63" transform="matrix(0.11246505,0,0,0.11246505,530.39615,-310.99258)" style="fill:#ffffff;fill-opacity:1"></polygon>
<path class="st5" d="m 784.24102,-270.61763 -12.19121,1.42831 c -0.19121,0.0225 -0.35989,-0.11246 -0.3824,-0.30366 l -0.5848,-4.9822 c -0.0226,-0.19119 0.11247,-0.35988 0.30366,-0.38238 l 12.1912,-1.42831 c 0.19119,-0.0225 0.35989,0.11247 0.38238,0.30366 l 0.58483,4.9822 c 0.0226,0.19119 -0.11247,0.35989 -0.30366,0.38238 z" id="path65" style="fill:#8381b5;fill-opacity:1;stroke-width:0.112465"></path>
<polygon class="st11" points="2236,336 2241.4,329.1 2237.8,326.3 2232.4,333.2 2225.5,327.7 2222.7,331.4 2229.5,336.8 2224.1,343.7 2227.7,346.5 2233.2,339.6 2240,345.1 2242.9,341.4 " id="polygon67" transform="matrix(0.11246505,0,0,0.11246505,530.39615,-310.99258)" style="fill:#ffffff;fill-opacity:1"></polygon>
<path class="st5" d="m 804.2373,-272.9569 -18.59047,2.18182 c -0.19119,0.0225 -0.35989,-0.11246 -0.3824,-0.30365 l -0.5848,-4.97096 c -0.0226,-0.19119 0.11247,-0.35989 0.30365,-0.38238 l 18.59047,-2.17057 c 0.19119,-0.0225 0.35989,0.11246 0.38238,0.30365 l 0.58483,4.9822 c 0.0226,0.1687 -0.11247,0.3374 -0.30366,0.35989 z" id="path69" style="fill:#8381b5;fill-opacity:1;stroke-width:0.112465"></path>
<polygon class="st11" points="2413.8,315.3 2419.2,308.3 2415.6,305.4 2410.1,312.4 2403.3,306.9 2400.4,310.5 2407.3,316 2401.9,322.8 2405.5,325.7 2410.9,318.9 2417.8,324.2 2420.7,320.6 " id="polygon71" transform="matrix(0.11246505,0,0,0.11246505,530.39615,-310.99258)" style="fill:#ffffff;fill-opacity:1"></polygon>
<path class="st5" d="m 788.18852,-264.62324 -18.59046,2.18182 c -0.19119,0.0225 -0.3599,-0.11246 -0.38238,-0.30365 l -0.58483,-4.9822 c -0.0226,-0.19119 0.11247,-0.35989 0.30366,-0.38238 l 18.59049,-2.18183 c 0.19119,-0.0225 0.35987,0.11247 0.38238,0.30366 l 0.5848,4.9822 c 0.0337,0.19119 -0.11244,0.37113 -0.30366,0.38238 z" id="path73" style="fill:#8381b5;fill-opacity:1;stroke-width:0.112465"></path>
<polygon class="st11" points="2271.1,389.4 2276.5,382.4 2272.9,379.5 2267.5,386.5 2260.6,381 2257.7,384.6 2264.6,390.1 2259.2,396.9 2262.8,399.8 2268.2,393 2275.1,398.4 2278,394.7 " id="polygon75" transform="matrix(0.11246505,0,0,0.11246505,530.39615,-310.99258)" style="fill:#ffffff;fill-opacity:1"></polygon>
<path class="st5" d="m 767.93358,-262.23898 -18.59048,2.18182 c -0.19119,0.0225 -0.35988,-0.11246 -0.38238,-0.30365 l -0.58482,-4.9822 c -0.0225,-0.1912 0.11247,-0.35989 0.30366,-0.38239 l 18.59047,-2.18182 c 0.19119,-0.0225 0.35989,0.11247 0.38238,0.30366 l 0.58483,4.9822 c 0.0226,0.19119 -0.11247,0.35989 -0.30366,0.38238 z" id="path77" style="fill:#8381b5;fill-opacity:1;stroke-width:0.112465"></path>
<polygon class="st11" points="2091,410.4 2096.4,403.6 2092.8,400.7 2087.3,407.5 2080.5,402.1 2077.6,405.8 2084.5,411.1 2079,418.1 2082.6,421 2088.1,414 2095,419.5 2097.9,415.9 " id="polygon79" transform="matrix(0.11246505,0,0,0.11246505,530.39615,-310.99258)" style="fill:#ffffff;fill-opacity:1"></polygon>
<rect class="st11" transform="rotate(-6.6787069)" x="775.41486" y="-181.2002" width="15.385003" height="1.5182568" id="rect81" style="fill:#ffffff;fill-opacity:1;stroke-width:0.112463"></rect>
<rect class="st11" transform="rotate(-6.6787069)" x="799.52173" y="-181.20374" width="5.3982463" height="1.5182568" id="rect83" style="fill:#ffffff;fill-opacity:1;stroke-width:0.112463"></rect>
<rect class="st11" transform="rotate(-6.6787069)" x="812.71326" y="-181.1933" width="12.258517" height="1.5182568" id="rect85" style="fill:#ffffff;fill-opacity:1;stroke-width:0.112463"></rect>
<rect class="st11" transform="rotate(-6.6787069)" x="795.79529" y="-174.78307" width="12.843328" height="1.5182568" id="rect87" style="fill:#ffffff;fill-opacity:1;stroke-width:0.112463"></rect>
<rect class="st11" transform="rotate(-6.6787069)" x="775.42535" y="-174.79274" width="12.843328" height="1.5182568" id="rect89" style="fill:#ffffff;fill-opacity:1;stroke-width:0.112463"></rect>

	<line class="st8" x1="739.40118" x2="765.67297" y1="-306.73016" y2="-310.01413" id="line93" style="stroke-width:0.112465"></line>
	<path class="st8" d="m 765.47061,-309.21563 -0.3824,0.045 c -0.29242,0.0337 -0.57356,-0.28116 -0.6298,-0.69728 -0.0562,-0.42737 0.1462,-0.7985 0.43861,-0.83224 l 0.38237,-0.045 c 0.29242,-0.0337 0.57359,0.28117 0.62982,0.69729 0.045,0.42736 -0.14621,0.7985 -0.4386,0.83224 z m -2.32805,0.29241 -0.38237,0.045 c -0.29242,0.0337 -0.57357,-0.28116 -0.6298,-0.69728 -0.0562,-0.41612 0.14619,-0.7985 0.43861,-0.83224 l 0.38237,-0.045 c 0.29242,-0.0337 0.57359,0.28117 0.62982,0.69729 0.045,0.41612 -0.14622,0.7985 -0.43863,0.83224 z m -2.32802,0.29241 -0.38238,0.045 c -0.29241,0.0337 -0.57358,-0.28116 -0.62979,-0.69728 -0.0562,-0.42737 0.14619,-0.7985 0.43861,-0.83224 l 0.38237,-0.045 c 0.29242,-0.0337 0.57356,0.28116 0.6298,0.69728 0.0562,0.41612 -0.1462,0.79851 -0.43861,0.83225 z m -2.32802,0.29241 -0.38238,0.045 c -0.29241,0.0337 -0.57358,-0.28116 -0.62981,-0.69728 -0.0562,-0.42737 0.14621,-0.79851 0.4386,-0.83224 l 0.3824,-0.045 c 0.29241,-0.0337 0.57356,0.28116 0.6298,0.69728 0.0562,0.41612 -0.1462,0.79851 -0.43861,0.83225 z m -2.32803,0.29241 -0.38238,0.045 c -0.29241,0.0337 -0.57358,-0.28116 -0.62981,-0.69728 -0.0562,-0.42737 0.14621,-0.79851 0.43862,-0.83224 l 0.38238,-0.045 c 0.29241,-0.0337 0.57357,0.28116 0.6298,0.69728 0.0562,0.41612 -0.13496,0.78726 -0.43861,0.83225 z m -2.31678,0.2924 -0.38238,0.045 c -0.29241,0.0337 -0.57358,-0.28116 -0.62981,-0.69729 -0.0562,-0.42736 0.14621,-0.7985 0.43862,-0.83224 l 0.38238,-0.045 c 0.2924,-0.0337 0.57357,0.28116 0.6298,0.69728 0.045,0.41612 -0.1462,0.78726 -0.43861,0.83224 z m -2.32803,0.29241 -0.38238,0.045 c -0.29241,0.0337 -0.57357,-0.28116 -0.62981,-0.69729 -0.0562,-0.42736 0.14621,-0.7985 0.43862,-0.83224 l 0.38238,-0.045 c 0.29241,-0.0337 0.57357,0.28116 0.62981,0.69728 0.045,0.41612 -0.14621,0.78726 -0.43862,0.83224 z m -2.32803,0.29241 -0.38238,0.045 c -0.29241,0.0337 -0.57357,-0.28116 -0.6298,-0.69729 -0.0562,-0.42736 0.1462,-0.7985 0.43861,-0.83224 l 0.38238,-0.045 c 0.29241,-0.0337 0.57357,0.28116 0.62981,0.69728 0.0562,0.41612 -0.14621,0.78725 -0.43862,0.83224 z m -2.32802,0.28116 -0.38238,0.045 c -0.29241,0.0337 -0.57358,-0.28116 -0.62981,-0.69728 -0.0562,-0.42737 0.14621,-0.7985 0.43862,-0.83224 l 0.38238,-0.045 c 0.29241,-0.0337 0.57357,0.28116 0.6298,0.69728 0.0562,0.42737 -0.1462,0.7985 -0.43861,0.83224 z m -2.31678,0.29241 -0.38238,0.045 c -0.29241,0.0337 -0.57358,-0.28116 -0.62981,-0.69728 -0.0562,-0.41613 0.14621,-0.7985 0.43862,-0.83225 l 0.38238,-0.045 c 0.29241,-0.0337 0.57357,0.28116 0.6298,0.69728 0.045,0.42737 -0.1462,0.7985 -0.43861,0.83224 z m -2.32803,0.29241 -0.38238,0.045 c -0.29241,0.0337 -0.57357,-0.28116 -0.6298,-0.69728 -0.0562,-0.42737 0.1462,-0.79851 0.43861,-0.83225 l 0.38238,-0.045 c 0.29241,-0.0337 0.57357,0.28116 0.62981,0.69728 0.0562,0.41612 -0.14621,0.7985 -0.43862,0.83224 z m -2.32802,0.29241 -0.38239,0.045 c -0.29241,0.0337 -0.57357,-0.28117 -0.6298,-0.69728 -0.0562,-0.42737 0.1462,-0.79851 0.43861,-0.83225 l 0.38238,-0.045 c 0.29241,-0.0337 0.57357,0.28116 0.62981,0.69728 0.045,0.42737 -0.14621,0.7985 -0.43861,0.83224 z" id="path95" style="fill:#f0edff;fill-opacity:1;stroke-width:0.112465"></path>
	<line class="st8" x1="739.72729" x2="765.99915" y1="-304.12097" y2="-307.41617" id="line97" style="stroke-width:0.112465"></line>
	<path class="st8" d="m 765.79675,-306.61769 -0.38238,0.045 c -0.29241,0.0337 -0.57358,-0.28117 -0.62982,-0.69729 -0.0562,-0.41612 0.14622,-0.7985 0.43861,-0.83224 l 0.3824,-0.045 c 0.29241,-0.0337 0.57356,0.28116 0.6298,0.69728 0.045,0.42737 -0.1462,0.7985 -0.43861,0.83224 z m -2.32803,0.29241 -0.38239,0.045 c -0.29239,0.0337 -0.57357,-0.28116 -0.6298,-0.69728 -0.0562,-0.41612 0.1462,-0.7985 0.43861,-0.83224 l 0.3824,-0.045 c 0.29239,-0.0337 0.57356,0.28117 0.62979,0.69729 0.0562,0.41612 -0.14622,0.7985 -0.43861,0.83224 z m -2.32804,0.29241 -0.38238,0.045 c -0.29241,0.0337 -0.57356,-0.28116 -0.62979,-0.69728 -0.0562,-0.42737 0.14619,-0.7985 0.43861,-0.83224 l 0.38237,-0.045 c 0.29242,-0.0337 0.57359,0.28117 0.62982,0.69729 0.0562,0.42737 -0.14622,0.7985 -0.43863,0.83224 z m -2.32802,0.29241 -0.38238,0.045 c -0.29241,0.0337 -0.57356,-0.28116 -0.62979,-0.69728 -0.0562,-0.42737 0.14619,-0.7985 0.43861,-0.83224 l 0.38237,-0.045 c 0.29241,-0.0337 0.57359,0.28117 0.6298,0.69729 0.0562,0.41612 -0.1462,0.7985 -0.43861,0.83224 z m -2.32802,0.29241 -0.38238,0.045 c -0.29241,0.0337 -0.57358,-0.28116 -0.62981,-0.69728 -0.0562,-0.41612 0.1462,-0.7985 0.43861,-0.83224 l 0.38238,-0.045 c 0.29241,-0.0337 0.57358,0.28116 0.62981,0.69728 0.0562,0.41613 -0.13496,0.79851 -0.43861,0.83225 z m -2.31678,0.29241 -0.38239,0.045 c -0.29241,0.0337 -0.57357,-0.28116 -0.6298,-0.69728 -0.0562,-0.42737 0.1462,-0.7985 0.43861,-0.83224 l 0.38239,-0.045 c 0.2924,-0.0337 0.57357,0.28116 0.6298,0.69728 0.0562,0.41613 -0.14621,0.78726 -0.43861,0.83225 z m -2.32803,0.2924 -0.38238,0.045 c -0.29241,0.0337 -0.57357,-0.28116 -0.62981,-0.69728 -0.0562,-0.42737 0.14621,-0.7985 0.43862,-0.83224 l 0.38238,-0.045 c 0.29241,-0.0337 0.57357,0.28116 0.6298,0.69728 0.045,0.41612 -0.1462,0.78726 -0.43861,0.83224 z m -2.32803,0.29241 -0.38238,0.045 c -0.29241,0.0337 -0.57357,-0.28116 -0.6298,-0.69728 -0.0562,-0.42737 0.1462,-0.7985 0.43861,-0.83225 l 0.38238,-0.045 c 0.29241,-0.0337 0.57357,0.28116 0.62981,0.69728 0.0562,0.41612 -0.14621,0.78726 -0.43862,0.83224 z m -2.32802,0.29241 -0.38239,0.045 c -0.2924,0.0337 -0.57357,-0.28116 -0.6298,-0.69728 -0.0562,-0.42737 0.14621,-0.79851 0.43862,-0.83225 l 0.38237,-0.045 c 0.29241,-0.0337 0.57358,0.28116 0.62981,0.69728 0.0562,0.41612 -0.1462,0.78726 -0.43861,0.83224 z m -2.32803,0.28117 -0.38238,0.045 c -0.29241,0.0337 -0.57357,-0.28116 -0.62981,-0.69728 -0.0562,-0.42737 0.14621,-0.7985 0.43862,-0.83224 l 0.38238,-0.045 c 0.29241,-0.0337 0.57357,0.28116 0.6298,0.69729 0.0562,0.42736 -0.13496,0.7985 -0.43861,0.83224 z m -2.31678,0.2924 -0.38238,0.045 c -0.29241,0.0337 -0.57357,-0.28116 -0.62981,-0.69728 -0.0562,-0.41612 0.14621,-0.7985 0.43862,-0.83224 l 0.38238,-0.045 c 0.29241,-0.0337 0.57357,0.28116 0.6298,0.69728 0.045,0.42737 -0.1462,0.79851 -0.43861,0.83224 z m -2.32803,0.29241 -0.38238,0.045 c -0.29241,0.0337 -0.57357,-0.28116 -0.6298,-0.69728 -0.0562,-0.42737 0.1462,-0.79851 0.43861,-0.83225 l 0.38238,-0.045 c 0.29241,-0.0337 0.57357,0.28116 0.62981,0.69728 0.045,0.42737 -0.14621,0.79851 -0.43862,0.83224 z" id="path99" style="fill:#f0edff;fill-opacity:1;stroke-width:0.112465"></path>
	<line class="st8" x1="740.05347" x2="766.32532" y1="-301.52301" y2="-304.81824" id="line101" style="stroke-width:0.112465"></line>
	<path class="st8" d="m 766.12289,-304.01975 -0.38238,0.045 c -0.29241,0.0337 -0.57356,-0.28116 -0.62979,-0.69729 -0.0562,-0.41612 0.14619,-0.7985 0.4386,-0.83224 l 0.38238,-0.045 c 0.29241,-0.0337 0.57358,0.28116 0.6298,0.69728 0.045,0.42737 -0.1462,0.7985 -0.43861,0.83224 z m -2.32803,0.29241 -0.38237,0.045 c -0.29241,0.0337 -0.57359,-0.28116 -0.62982,-0.69729 -0.0562,-0.42736 0.14622,-0.7985 0.43863,-0.83224 l 0.38238,-0.045 c 0.29241,-0.0337 0.57356,0.28116 0.62979,0.69728 0.0562,0.41612 -0.14619,0.7985 -0.43861,0.83224 z m -2.32802,0.29241 -0.38237,0.045 c -0.29241,0.0337 -0.57359,-0.28116 -0.62982,-0.69729 -0.0562,-0.42736 0.14622,-0.7985 0.43861,-0.83224 l 0.3824,-0.045 c 0.29239,-0.0337 0.57356,0.28116 0.62979,0.69728 0.0562,0.42737 -0.14619,0.7985 -0.43861,0.83224 z m -2.32802,0.29241 -0.3824,0.045 c -0.29239,0.0337 -0.57356,-0.28117 -0.62979,-0.69729 -0.0562,-0.42736 0.14619,-0.7985 0.43861,-0.83224 l 0.38237,-0.045 c 0.29241,-0.0337 0.57359,0.28117 0.62982,0.69729 0.0562,0.42737 -0.14622,0.7985 -0.43861,0.83224 z m -2.32804,0.29241 -0.38238,0.045 c -0.29241,0.0337 -0.57357,-0.28117 -0.6298,-0.69729 -0.0562,-0.42737 0.1462,-0.7985 0.43861,-0.83224 l 0.38238,-0.045 c 0.29241,-0.0337 0.57358,0.28117 0.62981,0.69729 0.0562,0.41612 -0.13496,0.7985 -0.43862,0.83224 z m -2.31678,0.29241 -0.38238,0.045 c -0.29241,0.0337 -0.57357,-0.28116 -0.6298,-0.69728 -0.0562,-0.42737 0.1462,-0.7985 0.43861,-0.83224 l 0.38238,-0.045 c 0.29241,-0.0337 0.57358,0.28117 0.62981,0.69729 0.045,0.41612 -0.14621,0.7985 -0.43862,0.83224 z m -2.32802,0.29241 -0.38238,0.045 c -0.29241,0.0337 -0.57357,-0.28116 -0.62981,-0.69728 -0.0562,-0.42737 0.14621,-0.7985 0.43861,-0.83224 l 0.38239,-0.045 c 0.29241,-0.0337 0.57357,0.28117 0.6298,0.69729 0.045,0.41612 -0.1462,0.7985 -0.43861,0.83224 z m -2.32803,0.29241 -0.38238,0.045 c -0.29241,0.0337 -0.57357,-0.28116 -0.6298,-0.69728 -0.0562,-0.42737 0.1462,-0.7985 0.43861,-0.83224 l 0.38238,-0.045 c 0.29241,-0.0337 0.57357,0.28116 0.6298,0.69729 0.0562,0.41612 -0.1462,0.78725 -0.43861,0.83224 z m -2.32803,0.29241 -0.38238,0.045 c -0.2924,0.0337 -0.57357,-0.28116 -0.6298,-0.69728 -0.0562,-0.42737 0.1462,-0.7985 0.43861,-0.83224 l 0.38238,-0.045 c 0.29241,-0.0337 0.57358,0.28116 0.62981,0.69728 0.0562,0.41612 -0.14621,0.78726 -0.43862,0.83225 z m -2.32802,0.29241 -0.38238,0.045 c -0.29241,0.0337 -0.57358,-0.28116 -0.62981,-0.69728 -0.0562,-0.42737 0.14621,-0.7985 0.43862,-0.83224 l 0.38238,-0.045 c 0.29241,-0.0337 0.57357,0.28116 0.6298,0.69728 0.0562,0.41612 -0.13496,0.78726 -0.43861,0.83225 z m -2.31678,0.29241 -0.38238,0.045 c -0.29241,0.0337 -0.57357,-0.28116 -0.62981,-0.69728 -0.0562,-0.42737 0.14621,-0.79851 0.43862,-0.83224 l 0.38238,-0.045 c 0.29241,-0.0337 0.57357,0.28116 0.6298,0.69728 0.045,0.41612 -0.1462,0.78726 -0.43861,0.83225 z m -2.32803,0.28116 -0.39363,0.0562 c -0.29241,0.0337 -0.57357,-0.28116 -0.6298,-0.69728 -0.0562,-0.42737 0.14621,-0.79851 0.43861,-0.83224 l 0.38238,-0.045 c 0.29241,-0.0337 0.57358,0.28116 0.62981,0.69728 0.0562,0.41612 -0.13496,0.78726 -0.42737,0.821 z" id="path103" style="fill:#f0edff;fill-opacity:1;stroke-width:0.112465"></path>
	<line class="st8" x1="740.37958" x2="766.65143" y1="-298.92508" y2="-302.22031" id="line105" style="stroke-width:0.112465"></line>
	<path class="st8" d="m 766.44905,-301.4218 -0.3824,0.045 c -0.29239,0.0337 -0.57356,-0.28116 -0.62979,-0.69728 -0.0562,-0.42737 0.14619,-0.7985 0.4386,-0.83224 l 0.38238,-0.045 c 0.29241,-0.0337 0.57359,0.28116 0.62982,0.69728 0.045,0.42737 -0.14622,0.79851 -0.43861,0.83225 z m -2.32804,0.2924 -0.38238,0.045 c -0.29241,0.0337 -0.57356,-0.28116 -0.6298,-0.69728 -0.0562,-0.42737 0.1462,-0.7985 0.43861,-0.83224 l 0.38238,-0.045 c 0.29241,-0.0337 0.57358,0.28116 0.62982,0.69728 0.045,0.42737 -0.14622,0.79851 -0.43863,0.83224 z m -2.32803,0.29241 -0.38237,0.045 c -0.29241,0.0337 -0.57359,-0.28116 -0.6298,-0.69728 -0.0562,-0.42737 0.1462,-0.7985 0.43861,-0.83225 l 0.38238,-0.045 c 0.29241,-0.0337 0.57356,0.28116 0.62979,0.69728 0.045,0.42737 -0.14619,0.79851 -0.43861,0.83224 z m -2.32802,0.29241 -0.38237,0.045 c -0.29242,0.0337 -0.57359,-0.28116 -0.62982,-0.69728 -0.0562,-0.42737 0.14622,-0.79851 0.43863,-0.83225 l 0.38238,-0.045 c 0.29241,-0.0337 0.57356,0.28116 0.62979,0.69728 0.0562,0.42737 -0.14619,0.7985 -0.43861,0.83224 z m -2.32803,0.29241 -0.38238,0.045 c -0.29241,0.0337 -0.57357,-0.28116 -0.6298,-0.69729 -0.0562,-0.42736 0.1462,-0.7985 0.43861,-0.83223 l 0.38238,-0.045 c 0.29241,-0.0337 0.57357,0.28116 0.62981,0.69728 0.0562,0.42737 -0.13496,0.7985 -0.43862,0.83224 z m -2.31678,0.29241 -0.38238,0.045 c -0.29241,0.0337 -0.57357,-0.28116 -0.6298,-0.69729 -0.0562,-0.42736 0.1462,-0.7985 0.43861,-0.83224 l 0.38238,-0.045 c 0.29241,-0.0337 0.57357,0.28116 0.62981,0.69728 0.045,0.41612 -0.14621,0.7985 -0.43862,0.83224 z m -2.32802,0.29241 -0.38239,0.045 c -0.2924,0.0337 -0.57357,-0.28116 -0.6298,-0.69729 -0.0562,-0.42736 0.14621,-0.7985 0.43861,-0.83224 l 0.38239,-0.045 c 0.29241,-0.0337 0.57357,0.28116 0.6298,0.69728 0.045,0.41612 -0.1462,0.7985 -0.43861,0.83224 z m -2.32803,0.29241 -0.38238,0.045 c -0.29241,0.0337 -0.57357,-0.28117 -0.62981,-0.69729 -0.0562,-0.42736 0.14621,-0.7985 0.43862,-0.83224 l 0.38238,-0.045 c 0.29241,-0.0337 0.57357,0.28117 0.6298,0.69729 0.0562,0.41612 -0.1462,0.7985 -0.43861,0.83224 z m -2.32803,0.29241 -0.38238,0.045 c -0.29241,0.0337 -0.57357,-0.28117 -0.6298,-0.69729 -0.0562,-0.42737 0.1462,-0.7985 0.43861,-0.83224 l 0.38238,-0.045 c 0.29241,-0.0337 0.57358,0.28117 0.62981,0.69729 0.0562,0.41612 -0.14621,0.78725 -0.43862,0.83224 z m -2.32802,0.29241 -0.38238,0.045 c -0.29241,0.0337 -0.57358,-0.28117 -0.62981,-0.69729 -0.0562,-0.42737 0.14621,-0.7985 0.43862,-0.83224 l 0.38238,-0.045 c 0.2924,-0.0337 0.57357,0.28117 0.6298,0.69729 0.0562,0.41612 -0.13496,0.78725 -0.43861,0.83224 z m -2.31678,0.29241 -0.38238,0.045 c -0.29241,0.0337 -0.57358,-0.28116 -0.62981,-0.69728 -0.0562,-0.42737 0.14621,-0.7985 0.43861,-0.83224 l 0.38239,-0.045 c 0.29241,-0.0337 0.57357,0.28116 0.6298,0.69729 0.045,0.41612 -0.1462,0.78725 -0.43861,0.83224 z m -2.32803,0.29241 -0.38238,0.045 c -0.29241,0.0337 -0.57357,-0.28116 -0.62981,-0.69728 -0.0562,-0.42737 0.14621,-0.7985 0.43862,-0.83224 l 0.38238,-0.045 c 0.29241,-0.0337 0.57357,0.28116 0.6298,0.69729 0.045,0.41612 -0.1462,0.78725 -0.43861,0.83224 z" id="path107" style="fill:#f0edff;fill-opacity:1;stroke-width:0.112465"></path>
	<line class="st8" x1="740.70575" x2="766.9776" y1="-296.32715" y2="-299.62234" id="line109" style="stroke-width:0.112465"></line>
	<path class="st8" d="m 766.76395,-298.82386 -0.38238,0.045 c -0.29241,0.0338 -0.57358,-0.28116 -0.62982,-0.69728 -0.0562,-0.42736 0.14622,-0.7985 0.43861,-0.83224 l 0.3824,-0.045 c 0.29239,-0.0337 0.57356,0.28116 0.6298,0.69728 0.0562,0.42736 -0.13496,0.7985 -0.43861,0.83224 z m -2.31678,0.29241 -0.3824,0.045 c -0.29239,0.0337 -0.57356,-0.28116 -0.6298,-0.69728 -0.0562,-0.42737 0.14622,-0.7985 0.43861,-0.83224 l 0.3824,-0.045 c 0.29239,-0.0337 0.57356,0.28117 0.6298,0.69729 0.045,0.42736 -0.1462,0.7985 -0.43861,0.83224 z m -2.32802,0.29241 -0.3824,0.045 c -0.29241,0.0337 -0.57356,-0.28116 -0.6298,-0.69728 -0.0562,-0.42737 0.1462,-0.7985 0.43861,-0.83224 l 0.38238,-0.045 c 0.29241,-0.0337 0.57358,0.28117 0.62982,0.69729 0.045,0.42736 -0.14622,0.7985 -0.43861,0.83224 z m -2.32805,0.29241 -0.38237,0.045 c -0.29242,0.0337 -0.57356,-0.28116 -0.6298,-0.69728 -0.0562,-0.42737 0.1462,-0.7985 0.43861,-0.83224 l 0.38238,-0.045 c 0.29241,-0.0337 0.57358,0.28116 0.62982,0.69728 0.0562,0.42737 -0.14622,0.79851 -0.43864,0.83225 z m -2.32802,0.29241 -0.38238,0.045 c -0.29241,0.0337 -0.57357,-0.28116 -0.6298,-0.69728 -0.0562,-0.42737 0.1462,-0.7985 0.43861,-0.83224 l 0.38238,-0.045 c 0.29241,-0.0337 0.57357,0.28116 0.6298,0.69728 0.0562,0.42737 -0.13495,0.79851 -0.43861,0.83225 z m -2.31678,0.29241 -0.38238,0.045 c -0.29241,0.0337 -0.57357,-0.28116 -0.6298,-0.69728 -0.0562,-0.42737 0.1462,-0.7985 0.43861,-0.83224 l 0.38238,-0.045 c 0.29241,-0.0337 0.57357,0.28116 0.62981,0.69728 0.045,0.42737 -0.14621,0.7985 -0.43862,0.83225 z m -2.32802,0.2924 -0.38239,0.045 c -0.29241,0.0337 -0.57357,-0.28116 -0.6298,-0.69728 -0.0562,-0.42737 0.14621,-0.7985 0.43861,-0.83225 l 0.38238,-0.045 c 0.29241,-0.0337 0.57358,0.28116 0.62981,0.69728 0.045,0.42737 -0.14621,0.7985 -0.43861,0.83224 z m -2.32803,0.29241 -0.38238,0.045 c -0.29241,0.0337 -0.57357,-0.28116 -0.62981,-0.69728 -0.0562,-0.42737 0.14621,-0.79851 0.43862,-0.83225 l 0.38238,-0.045 c 0.29241,-0.0337 0.57357,0.28116 0.6298,0.69728 0.0562,0.41612 -0.1462,0.7985 -0.43861,0.83224 z m -2.32803,0.29241 -0.38238,0.045 c -0.29241,0.0337 -0.57357,-0.28116 -0.6298,-0.69728 -0.0562,-0.42737 0.1462,-0.79851 0.43861,-0.83225 l 0.38238,-0.045 c 0.29241,-0.0337 0.57357,0.28116 0.6298,0.69728 0.0562,0.41612 -0.1462,0.7985 -0.43861,0.83224 z m -2.32802,0.29241 -0.38239,0.045 c -0.29241,0.0337 -0.57357,-0.28117 -0.6298,-0.69729 -0.0562,-0.42736 0.1462,-0.7985 0.43861,-0.83224 l 0.38239,-0.045 c 0.2924,-0.0337 0.57357,0.28116 0.6298,0.69728 0.0562,0.41612 -0.13496,0.78725 -0.43861,0.83224 z m -2.31678,0.29241 -0.38239,0.045 c -0.29241,0.0337 -0.57357,-0.28117 -0.6298,-0.69729 -0.0562,-0.42736 0.14621,-0.7985 0.43861,-0.83224 l 0.38239,-0.045 c 0.29241,-0.0337 0.57357,0.28116 0.6298,0.69728 0.045,0.41612 -0.14621,0.78725 -0.43861,0.83224 z m -2.32803,0.29241 -0.38238,0.045 c -0.29241,0.0337 -0.57357,-0.28116 -0.62981,-0.69728 -0.0562,-0.42736 0.14621,-0.7985 0.43862,-0.83224 l 0.38238,-0.045 c 0.29241,-0.0337 0.57357,0.28116 0.6298,0.69728 0.045,0.41612 -0.1462,0.78725 -0.43861,0.83224 z" id="path111" style="fill:#f0edff;fill-opacity:1;stroke-width:0.112465"></path>
	<line class="st8" x1="741.03192" x2="767.30371" y1="-293.72919" y2="-297.02441" id="line113" style="stroke-width:0.112465"></line>
	<path class="st8" d="m 767.09009,-296.22592 -0.38238,0.045 c -0.29241,0.0337 -0.57358,-0.28117 -0.62979,-0.69729 -0.0562,-0.42736 0.14619,-0.7985 0.43861,-0.83224 l 0.38237,-0.045 c 0.29242,-0.0337 0.57356,0.28116 0.6298,0.69728 0.0562,0.42737 -0.13496,0.7985 -0.43861,0.83224 z m -2.31678,0.29241 -0.38238,0.045 c -0.29241,0.0337 -0.57358,-0.28117 -0.62982,-0.69729 -0.0562,-0.42736 0.14622,-0.7985 0.43864,-0.83224 l 0.38237,-0.045 c 0.29242,-0.0337 0.57356,0.28116 0.6298,0.69728 0.0562,0.41612 -0.1462,0.7985 -0.43861,0.83224 z m -2.32802,0.29241 -0.38238,0.045 c -0.29241,0.0337 -0.57358,-0.28117 -0.62982,-0.69729 -0.0562,-0.42736 0.14622,-0.7985 0.43861,-0.83224 l 0.3824,-0.045 c 0.29241,-0.0337 0.57356,0.28117 0.6298,0.69729 0.045,0.42737 -0.1462,0.7985 -0.43861,0.83224 z m -2.32802,0.29241 -0.3824,0.045 c -0.29239,0.0337 -0.57356,-0.28117 -0.6298,-0.69729 -0.0562,-0.42737 0.1462,-0.7985 0.43861,-0.83224 l 0.3824,-0.045 c 0.29239,-0.0337 0.57356,0.28117 0.6298,0.69729 0.0562,0.42737 -0.14622,0.7985 -0.43861,0.83224 z m -2.32805,0.29241 -0.38237,0.045 c -0.29241,0.0337 -0.57357,-0.28117 -0.6298,-0.69729 -0.0562,-0.42737 0.1462,-0.7985 0.43861,-0.83224 l 0.38237,-0.045 c 0.29242,-0.0337 0.57359,0.28117 0.62982,0.69729 0.0562,0.41612 -0.14621,0.7985 -0.43863,0.83224 z m -2.31677,0.29241 -0.38238,0.045 c -0.29241,0.0337 -0.57357,-0.28116 -0.62981,-0.69728 -0.0562,-0.42737 0.14621,-0.7985 0.43862,-0.83224 l 0.38238,-0.045 c 0.29241,-0.0337 0.57357,0.28116 0.6298,0.69729 0.045,0.42736 -0.1462,0.7985 -0.43861,0.83224 z m -2.32803,0.29241 -0.38238,0.045 c -0.29241,0.0337 -0.57357,-0.28116 -0.6298,-0.69728 -0.0562,-0.42737 0.1462,-0.7985 0.43861,-0.83224 l 0.38238,-0.045 c 0.29241,-0.0337 0.57357,0.28116 0.62981,0.69729 0.045,0.42736 -0.14621,0.7985 -0.43862,0.83224 z m -2.32802,0.2924 -0.38238,0.045 c -0.29241,0.0337 -0.57358,-0.28116 -0.62981,-0.69728 -0.0562,-0.42737 0.14621,-0.7985 0.43862,-0.83224 l 0.38238,-0.045 c 0.29241,-0.0337 0.57357,0.28116 0.6298,0.69729 0.0562,0.42736 -0.1462,0.7985 -0.43861,0.83223 z m -2.32803,0.29241 -0.38238,0.045 c -0.29241,0.0337 -0.57357,-0.28116 -0.6298,-0.69728 -0.0562,-0.42737 0.1462,-0.7985 0.43861,-0.83224 l 0.38238,-0.045 c 0.29241,-0.0337 0.57357,0.28116 0.6298,0.69728 0.0562,0.41612 -0.1462,0.79851 -0.43861,0.83224 z m -2.32803,0.29241 -0.38238,0.045 c -0.29241,0.0337 -0.57357,-0.28116 -0.6298,-0.69728 -0.0562,-0.41612 0.1462,-0.79851 0.43861,-0.83224 l 0.38238,-0.045 c 0.29241,-0.0337 0.57358,0.28116 0.62981,0.69728 0.0562,0.41612 -0.13496,0.7985 -0.43862,0.83224 z m -2.31678,0.29241 -0.38238,0.045 c -0.29241,0.0337 -0.57357,-0.28116 -0.6298,-0.69728 -0.0562,-0.42737 0.1462,-0.79851 0.43861,-0.83224 l 0.38238,-0.045 c 0.29241,-0.0337 0.57357,0.28116 0.62981,0.69728 0.045,0.41612 -0.14621,0.7985 -0.43862,0.83224 z m -2.32802,0.29241 -0.38238,0.045 c -0.29241,0.0337 -0.57358,-0.28117 -0.62981,-0.69729 -0.0562,-0.42736 0.14621,-0.7985 0.43862,-0.83224 l 0.38238,-0.045 c 0.29241,-0.0337 0.57357,0.28116 0.6298,0.69728 0.045,0.41612 -0.1462,0.78726 -0.43861,0.83224 z" id="path115" style="fill:#f0edff;fill-opacity:1;stroke-width:0.112465"></path>
	<line class="st8" x1="741.35803" x2="767.62988" y1="-291.13126" y2="-294.42645" id="line117" style="stroke-width:0.112465"></line>
	<path class="st8" d="m 767.41623,-293.61673 -0.38238,0.045 c -0.29241,0.0337 -0.57356,-0.28117 -0.62979,-0.69729 -0.0562,-0.42736 0.14619,-0.7985 0.43861,-0.83224 l 0.38237,-0.045 c 0.29242,-0.0337 0.57359,0.28117 0.62982,0.69729 0.0562,0.41612 -0.13498,0.78725 -0.43863,0.83224 z m -2.31678,0.28116 -0.38237,0.045 c -0.29242,0.0337 -0.57357,-0.28116 -0.6298,-0.69728 -0.0562,-0.42737 0.14619,-0.7985 0.43861,-0.83225 l 0.38237,-0.045 c 0.29242,-0.0337 0.57359,0.28116 0.62982,0.69728 0.045,0.42737 -0.14622,0.7985 -0.43863,0.83224 z m -2.32802,0.29241 -0.38238,0.045 c -0.29241,0.0337 -0.57356,-0.28116 -0.62979,-0.69728 -0.0562,-0.41613 0.14619,-0.79851 0.43861,-0.83225 l 0.38237,-0.045 c 0.29241,-0.0337 0.57359,0.28116 0.6298,0.69728 0.045,0.42737 -0.1462,0.7985 -0.43861,0.83224 z m -2.32802,0.29241 -0.38238,0.045 c -0.29241,0.0337 -0.57358,-0.28116 -0.62982,-0.69728 -0.0562,-0.42737 0.14622,-0.79851 0.43864,-0.83225 l 0.38237,-0.045 c 0.29241,-0.0337 0.57356,0.28116 0.6298,0.69728 0.0562,0.42737 -0.1462,0.7985 -0.43861,0.83224 z m -2.32802,0.29241 -0.38238,0.045 c -0.29242,0.0337 -0.57358,-0.28117 -0.62982,-0.69729 -0.0562,-0.41612 0.14621,-0.7985 0.43862,-0.83224 l 0.38239,-0.045 c 0.29239,-0.0337 0.57356,0.28116 0.62979,0.69728 0.0562,0.42737 -0.14619,0.7985 -0.4386,0.83224 z m -2.31679,0.29241 -0.38238,0.045 c -0.29241,0.0337 -0.57357,-0.28117 -0.62981,-0.69729 -0.0562,-0.42737 0.14621,-0.7985 0.43862,-0.83224 l 0.38238,-0.045 c 0.29241,-0.0337 0.57357,0.28116 0.6298,0.69728 0.045,0.42737 -0.1462,0.7985 -0.43861,0.83224 z m -2.32803,0.29241 -0.38238,0.045 c -0.29241,0.0337 -0.57357,-0.28116 -0.6298,-0.69728 -0.0562,-0.42737 0.1462,-0.7985 0.43861,-0.83224 l 0.38238,-0.045 c 0.29241,-0.0337 0.57357,0.28116 0.62981,0.69728 0.045,0.42736 -0.14621,0.7985 -0.43862,0.83224 z m -2.32802,0.29241 -0.38238,0.045 c -0.29241,0.0337 -0.57358,-0.28116 -0.62981,-0.69728 -0.0562,-0.42737 0.1462,-0.7985 0.43861,-0.83224 l 0.38238,-0.045 c 0.29241,-0.0337 0.57358,0.28117 0.62981,0.69729 0.0562,0.42736 -0.1462,0.7985 -0.43861,0.83224 z m -2.32803,0.29241 -0.38238,0.045 c -0.29241,0.0337 -0.57357,-0.28116 -0.62981,-0.69728 -0.0562,-0.42737 0.14621,-0.7985 0.43862,-0.83224 l 0.38238,-0.045 c 0.29241,-0.0337 0.57357,0.28117 0.6298,0.69729 0.0562,0.42736 -0.1462,0.7985 -0.43861,0.83224 z m -2.32803,0.29241 -0.38238,0.045 c -0.29241,0.0337 -0.57357,-0.28116 -0.6298,-0.69728 -0.0562,-0.42737 0.1462,-0.7985 0.43861,-0.83224 l 0.38238,-0.045 c 0.29241,-0.0337 0.57357,0.28116 0.62981,0.69728 0.0562,0.41612 -0.13496,0.79851 -0.43862,0.83225 z m -2.31678,0.29241 -0.38238,0.045 c -0.29241,0.0337 -0.57357,-0.28116 -0.6298,-0.69728 -0.0562,-0.42737 0.1462,-0.7985 0.43861,-0.83224 l 0.38238,-0.045 c 0.29241,-0.0337 0.57357,0.28116 0.62981,0.69728 0.045,0.41612 -0.14621,0.79851 -0.43862,0.83225 z m -2.32802,0.29241 -0.38239,0.045 c -0.2924,0.0337 -0.57357,-0.28116 -0.6298,-0.69728 -0.0562,-0.42737 0.14621,-0.7985 0.43862,-0.83224 l 0.38237,-0.045 c 0.29241,-0.0337 0.57358,0.28116 0.62981,0.69728 0.045,0.41612 -0.1462,0.79851 -0.43861,0.83225 z" id="path119" style="fill:#f0edff;fill-opacity:1;stroke-width:0.112465"></path>
	<line class="st8" x1="741.6842" x2="767.95605" y1="-288.53329" y2="-291.82852" id="line121" style="stroke-width:0.112465"></line>
	<path class="st8" d="m 767.74239,-291.01879 -0.38237,0.045 c -0.29242,0.0337 -0.57359,-0.28116 -0.62982,-0.69728 -0.0562,-0.42737 0.14622,-0.79851 0.43861,-0.83225 l 0.3824,-0.045 c 0.29241,-0.0337 0.57356,0.28116 0.62979,0.69728 0.0562,0.41612 -0.13495,0.78726 -0.43861,0.83224 z m -2.31678,0.29241 -0.38237,0.045 c -0.29241,0.0337 -0.57359,-0.28116 -0.62982,-0.69728 -0.0562,-0.41612 0.14622,-0.79851 0.43861,-0.83225 l 0.3824,-0.045 c 0.29239,-0.0337 0.57356,0.28116 0.62979,0.69728 0.045,0.41612 -0.14619,0.78726 -0.43861,0.83224 z m -2.32802,0.28117 -0.3824,0.045 c -0.29239,0.0337 -0.57356,-0.28116 -0.62979,-0.69728 -0.0562,-0.41612 0.14619,-0.7985 0.43861,-0.83224 l 0.38237,-0.045 c 0.29241,-0.0337 0.57359,0.28116 0.62982,0.69728 0.0562,0.41613 -0.14622,0.79851 -0.43861,0.83225 z m -2.32804,0.29241 -0.38238,0.045 c -0.29241,0.0337 -0.57356,-0.28116 -0.62979,-0.69728 -0.0562,-0.42737 0.14619,-0.7985 0.43861,-0.83225 l 0.38237,-0.045 c 0.29241,-0.0337 0.57359,0.28116 0.62982,0.69728 0.0562,0.41613 -0.14622,0.79851 -0.43863,0.83225 z m -2.32802,0.2924 -0.38238,0.045 c -0.29241,0.0337 -0.57358,-0.28116 -0.62981,-0.69728 -0.0562,-0.42737 0.14621,-0.79851 0.43862,-0.83225 l 0.38238,-0.045 c 0.29241,-0.0337 0.57356,0.28116 0.62979,0.69728 0.0562,0.42737 -0.14619,0.79851 -0.4386,0.83224 z m -2.31678,0.29241 -0.38238,0.045 c -0.29241,0.0337 -0.57357,-0.28116 -0.62981,-0.69728 -0.0562,-0.42737 0.14621,-0.79851 0.43862,-0.83225 l 0.38238,-0.045 c 0.29241,-0.0337 0.57357,0.28116 0.6298,0.69728 0.045,0.42737 -0.1462,0.79851 -0.43861,0.83224 z m -2.32803,0.29241 -0.38238,0.045 c -0.29241,0.0337 -0.57357,-0.28116 -0.6298,-0.69728 -0.0562,-0.42737 0.1462,-0.79851 0.43861,-0.83225 l 0.38238,-0.045 c 0.29241,-0.0337 0.57357,0.28116 0.6298,0.69728 0.045,0.42737 -0.1462,0.7985 -0.43861,0.83224 z m -2.32803,0.29241 -0.38238,0.045 c -0.29241,0.0337 -0.57357,-0.28117 -0.6298,-0.69729 -0.0562,-0.42736 0.1462,-0.7985 0.43861,-0.83224 l 0.38238,-0.045 c 0.29241,-0.0337 0.57358,0.28116 0.62981,0.69728 0.0562,0.42737 -0.14621,0.7985 -0.43862,0.83224 z m -2.32802,0.29241 -0.38238,0.045 c -0.29241,0.0337 -0.57358,-0.28117 -0.62981,-0.69729 -0.0562,-0.42736 0.14621,-0.7985 0.43862,-0.83224 l 0.38238,-0.045 c 0.29241,-0.0337 0.57357,0.28116 0.6298,0.69728 0.0562,0.42737 -0.1462,0.7985 -0.43861,0.83224 z m -2.32803,0.29241 -0.38238,0.045 c -0.29241,0.0337 -0.57357,-0.28117 -0.6298,-0.69729 -0.0562,-0.42736 0.1462,-0.7985 0.43861,-0.83224 l 0.38238,-0.045 c 0.29241,-0.0337 0.57357,0.28116 0.62981,0.69728 0.0562,0.42737 -0.13496,0.7985 -0.43862,0.83224 z m -2.31678,0.29241 -0.38238,0.045 c -0.29241,0.0337 -0.57357,-0.28117 -0.6298,-0.69729 -0.0562,-0.42736 0.1462,-0.7985 0.43861,-0.83224 l 0.38238,-0.045 c 0.29241,-0.0337 0.57357,0.28117 0.62981,0.69729 0.045,0.42737 -0.14621,0.7985 -0.43862,0.83224 z m -2.32803,0.29241 -0.38238,0.045 c -0.2924,0.0337 -0.57357,-0.28117 -0.6298,-0.69729 -0.0562,-0.42737 0.1462,-0.7985 0.43861,-0.83224 l 0.38238,-0.045 c 0.29241,-0.0337 0.57358,0.28117 0.62981,0.69729 0.045,0.41612 -0.14621,0.7985 -0.43862,0.83224 z" id="path123" style="fill:#f0edff;fill-opacity:1;stroke-width:0.112465"></path>
	<path class="st13" d="m 727.55862,-276.07218 c -0.61855,-1.77695 -5.25211,-7.83881 -6.28679,-9.55953 -0.91097,-1.50703 -1.84443,-3.01406 -2.74415,-4.53234 -0.9672,-1.6195 -1.42831,-3.46393 -1.64199,-5.3196 -0.10122,-0.82099 -0.4611,-2.31678 -0.21368,-3.11528 0.0562,-0.1687 0.10122,-0.28116 0.15745,-0.37114 0.23618,-0.41612 0.47235,-0.17994 1.01218,-0.77601 0.26992,-0.30365 0.34865,-0.78725 0.11247,-1.12464 -0.44986,-0.62981 -4.41988,0.10121 -5.74696,0.30365 -1.33834,0.13496 -5.36459,0.40487 -5.64575,1.12465 -0.1462,0.38238 0.045,0.83224 0.38238,1.05717 0.66355,0.44986 0.84349,0.1687 1.16964,0.5061 0.0675,0.0787 0.1462,0.17994 0.24742,0.32614 0.43862,0.70853 0.46111,2.24931 0.56233,3.0703 0.24742,1.85567 0.25867,3.75633 -0.28117,5.56702 -0.50609,1.69822 -1.03467,3.3852 -1.54077,5.07218 -0.58482,1.92315 -3.57639,8.94096 -3.73384,10.81913 -0.1462,1.66448 0.51734,3.52016 2.00188,4.29617 1.18088,0.61856 2.60919,0.43861 3.92503,0.25867 1.31584,-0.19119 12.33742,-1.57451 13.6645,-1.70947 1.32709,-0.14621 2.74415,-0.32615 3.74509,-1.21463 1.21462,-1.13589 1.39457,-3.09278 0.85473,-4.67854 z" id="path125" style="fill:#00c893;fill-opacity:1;stroke-width:0.112465"></path>
	<circle class="st13" cx="714.46765" cy="-305.57175" r="2.2830403" id="circle127" style="fill:#00dafc;fill-opacity:1;stroke-width:0.112465"></circle>
	<circle class="st13" cx="707.55109" cy="-309.83417" r="1.3945665" id="circle129" style="fill:#00f8c3;fill-opacity:1;stroke-width:0.112465"></circle>
	<circle class="st13" cx="710.54266" cy="-313.6355" r="1.180883" id="circle131" style="fill:#f0edff;fill-opacity:1;stroke-width:0.112465"></circle>

<rect class="st10" transform="rotate(-7.146337)" x="810.27625" y="-211.47473" width="4.1273355" height="20.74914" id="rect135" style="fill:#f0edff;fill-opacity:1;stroke-width:0.112461"></rect>
<rect class="st10" transform="rotate(-7.146337)" x="816.12463" y="-208.93791" width="4.1273355" height="18.20751" id="rect137" style="fill:#f0edff;fill-opacity:1;stroke-width:0.112461"></rect>
<rect class="st10" transform="rotate(-7.146337)" x="821.98401" y="-206.21921" width="4.1273355" height="15.49719" id="rect139" style="fill:#f0edff;fill-opacity:1;stroke-width:0.112461"></rect>
<rect class="st10" transform="rotate(-7.146337)" x="827.83014" y="-202.03302" width="4.1273355" height="11.302378" id="rect141" style="fill:#f0edff;fill-opacity:1;stroke-width:0.112461"></rect>
<rect class="st10" transform="rotate(-7.146337)" x="833.68427" y="-197.2374" width="4.1272349" height="6.5113606" id="rect143" style="fill:#f0edff;fill-opacity:1;stroke-width:0.112459"></rect>
</svg>