<svg xmlns:dc="http://purl.org/dc/elements/1.1/" xmlns:cc="http://creativecommons.org/ns#" xmlns:rdf="http://www.w3.org/1999/02/22-rdf-syntax-ns#" xmlns:svg="http://www.w3.org/2000/svg" xmlns="http://www.w3.org/2000/svg" xmlns:sodipodi="http://sodipodi.sourceforge.net/DTD/sodipodi-0.dtd" xmlns:inkscape="http://www.inkscape.org/namespaces/inkscape" id="svg2191" viewBox="0 0 39.687499 33.486201" height="126.56202" width="150" sodipodi:docname="wdrozenia.svg" inkscape:version="1.0.2 (e86c8708, 2021-01-15)"><defs id="defs2185"></defs><metadata></metadata><g transform="translate(-169.3328,-82.6871)" id="layer1"><path id="path2374" d="m 170.57334,82.6871 a 1.2403537,1.2403537 0 0 0 -1.24054,1.240519 v 24.804301 a 1.2403537,1.2403537 0 0 0 1.24054,1.24052 h 37.20689 a 1.2403537,1.2403537 0 0 0 1.24007,-1.24052 V 83.927619 A 1.2403537,1.2403537 0 0 0 207.78023,82.6871 Z" style="color:#000000;font-style:normal;font-variant:normal;font-weight:normal;font-stretch:normal;font-size:medium;line-height:normal;font-family:sans-serif;font-variant-ligatures:normal;font-variant-position:normal;font-variant-caps:normal;font-variant-numeric:normal;font-variant-alternates:normal;font-feature-settings:normal;text-indent:0;text-align:start;text-decoration:none;text-decoration-line:none;text-decoration-style:solid;text-decoration-color:#000000;letter-spacing:normal;word-spacing:normal;text-transform:none;writing-mode:lr-tb;direction:ltr;text-orientation:mixed;dominant-baseline:auto;baseline-shift:baseline;text-anchor:start;white-space:normal;shape-padding:0;clip-rule:nonzero;display:inline;overflow:visible;visibility:visible;isolation:auto;mix-blend-mode:normal;color-interpolation:sRGB;color-interpolation-filters:linearRGB;solid-color:#000000;solid-opacity:1;vector-effect:none;fill:#505080;fill-opacity:1;fill-rule:evenodd;stroke:none;stroke-width:2.48045;stroke-linecap:round;stroke-linejoin:round;stroke-miterlimit:4;stroke-dasharray:none;stroke-dashoffset:0;stroke-opacity:1;color-rendering:auto;image-rendering:auto;shape-rendering:auto;text-rendering:auto;enable-background:accumulate"></path><path id="path2376" d="m 171.81342,85.167692 h 34.72626 v 22.324138 h -34.72626 z" style="color:#000000;font-style:normal;font-variant:normal;font-weight:normal;font-stretch:normal;font-size:medium;line-height:normal;font-family:sans-serif;font-variant-ligatures:normal;font-variant-position:normal;font-variant-caps:normal;font-variant-numeric:normal;font-variant-alternates:normal;font-feature-settings:normal;text-indent:0;text-align:start;text-decoration:none;text-decoration-line:none;text-decoration-style:solid;text-decoration-color:#000000;letter-spacing:normal;word-spacing:normal;text-transform:none;writing-mode:lr-tb;direction:ltr;text-orientation:mixed;dominant-baseline:auto;baseline-shift:baseline;text-anchor:start;white-space:normal;shape-padding:0;clip-rule:nonzero;display:inline;overflow:visible;visibility:visible;isolation:auto;mix-blend-mode:normal;color-interpolation:sRGB;color-interpolation-filters:linearRGB;solid-color:#000000;solid-opacity:1;vector-effect:none;fill:#ffffff;fill-opacity:1;fill-rule:evenodd;stroke:none;stroke-width:2.48045;stroke-linecap:round;stroke-linejoin:round;stroke-miterlimit:4;stroke-dasharray:none;stroke-dashoffset:0;stroke-opacity:1;color-rendering:auto;image-rendering:auto;shape-rendering:auto;text-rendering:auto;enable-background:accumulate"></path><path id="path2378" d="m 187.93625,108.73192 v 6.20128 h 2.48061 v -6.20128 z" style="color:#000000;font-style:normal;font-variant:normal;font-weight:normal;font-stretch:normal;font-size:medium;line-height:normal;font-family:sans-serif;font-variant-ligatures:normal;font-variant-position:normal;font-variant-caps:normal;font-variant-numeric:normal;font-variant-alternates:normal;font-feature-settings:normal;text-indent:0;text-align:start;text-decoration:none;text-decoration-line:none;text-decoration-style:solid;text-decoration-color:#000000;letter-spacing:normal;word-spacing:normal;text-transform:none;writing-mode:lr-tb;direction:ltr;text-orientation:mixed;dominant-baseline:auto;baseline-shift:baseline;text-anchor:start;white-space:normal;shape-padding:0;clip-rule:nonzero;display:inline;overflow:visible;visibility:visible;isolation:auto;mix-blend-mode:normal;color-interpolation:sRGB;color-interpolation-filters:linearRGB;solid-color:#000000;solid-opacity:1;vector-effect:none;fill:#505080;fill-opacity:1;fill-rule:evenodd;stroke:none;stroke-width:2.48045;stroke-linecap:butt;stroke-linejoin:miter;stroke-miterlimit:4;stroke-dasharray:none;stroke-dashoffset:0;stroke-opacity:1;color-rendering:auto;image-rendering:auto;shape-rendering:auto;text-rendering:auto;enable-background:accumulate"></path><path id="path2380" d="m 181.73541,113.69313 v 2.48017 h 1.24007 12.40214 1.24055 v -2.48017 h -1.24055 -12.40214 z" style="color:#000000;font-style:normal;font-variant:normal;font-weight:normal;font-stretch:normal;font-size:medium;line-height:normal;font-family:sans-serif;font-variant-ligatures:normal;font-variant-position:normal;font-variant-caps:normal;font-variant-numeric:normal;font-variant-alternates:normal;font-feature-settings:normal;text-indent:0;text-align:start;text-decoration:none;text-decoration-line:none;text-decoration-style:solid;text-decoration-color:#000000;letter-spacing:normal;word-spacing:normal;text-transform:none;writing-mode:lr-tb;direction:ltr;text-orientation:mixed;dominant-baseline:auto;baseline-shift:baseline;text-anchor:start;white-space:normal;shape-padding:0;clip-rule:nonzero;display:inline;overflow:visible;visibility:visible;isolation:auto;mix-blend-mode:normal;color-interpolation:sRGB;color-interpolation-filters:linearRGB;solid-color:#000000;solid-opacity:1;vector-effect:none;fill:#505080;fill-opacity:1;fill-rule:evenodd;stroke:none;stroke-width:2.48045;stroke-linecap:square;stroke-linejoin:miter;stroke-miterlimit:4;stroke-dasharray:none;stroke-dashoffset:0;stroke-opacity:1;color-rendering:auto;image-rendering:auto;shape-rendering:auto;text-rendering:auto;enable-background:accumulate"></path><path style="color:#000000;clip-rule:nonzero;display:inline;overflow:visible;visibility:visible;isolation:auto;mix-blend-mode:normal;color-interpolation:sRGB;color-interpolation-filters:linearRGB;solid-color:#000000;solid-opacity:1;fill:#8381b5;fill-opacity:1;fill-rule:nonzero;stroke:none;stroke-width:0.805239;stroke-linecap:round;stroke-linejoin:round;stroke-miterlimit:4;stroke-dasharray:none;stroke-dashoffset:0;stroke-opacity:1;color-rendering:auto;image-rendering:auto;shape-rendering:auto;text-rendering:auto;enable-background:accumulate" d="m 182.92833,89.240442 v 1.250587 a 5.3682531,5.3682531 0 0 0 -1.37939,0.571664 l -0.88451,-0.884525 -1.89807,1.898107 0.88461,0.884579 a 5.3682531,5.3682531 0 0 0 -0.57269,1.37932 h -1.24969 v 2.684289 h 1.24896 a 5.3682531,5.3682531 0 0 0 0.56891,1.383827 l -0.8801,0.880072 1.89807,1.898218 0.88115,-0.88115 a 5.3682531,5.3682531 0 0 0 1.38275,0.57161 v 1.24721 h 2.68433 v -1.24823 a 5.3682531,5.3682531 0 0 0 1.3795,-0.57386 l 0.8844,0.88442 1.89818,-1.898218 -0.88409,-0.884045 a 5.3682531,5.3682531 0 0 0 0.57069,-1.379854 h 1.25106 v -2.684289 h -1.24497 a 5.3682531,5.3682531 0 0 0 -0.57531,-1.381305 l 0.88262,-0.882594 -1.89818,-1.898107 -0.88168,0.881682 a 5.3682531,5.3682531 0 0 0 -1.38222,-0.569304 v -1.250104 z" id="path2401"></path><path style="color:#000000;clip-rule:nonzero;display:inline;overflow:visible;visibility:visible;isolation:auto;mix-blend-mode:normal;color-interpolation:sRGB;color-interpolation-filters:linearRGB;solid-color:#000000;solid-opacity:1;fill:#ffffff;fill-opacity:1;fill-rule:nonzero;stroke:none;stroke-width:0.406784;stroke-linecap:round;stroke-linejoin:round;stroke-miterlimit:4;stroke-dasharray:none;stroke-dashoffset:0;stroke-opacity:1;color-rendering:auto;image-rendering:auto;shape-rendering:auto;text-rendering:auto;enable-background:accumulate" id="path2403" d="m 186.9824,95.68232 a 2.7119073,2.7119073 0 0 1 -2.5502,2.707082 2.7119073,2.7119073 0 0 1 -2.85433,-2.384237 2.7119073,2.7119073 0 0 1 2.2098,-2.991417 2.7119073,2.7119073 0 0 1 3.11787,2.027486"></path><path id="path2407" d="m 198.08985,93.474098 v 0.39115 a 1.6790483,1.6790483 0 0 0 -0.43143,0.178804 l -0.27665,-0.276658 -0.59367,0.593677 0.27668,0.276674 a 1.6790483,1.6790483 0 0 0 -0.17912,0.431415 h -0.39087 v 0.839574 h 0.39064 a 1.6790483,1.6790483 0 0 0 0.17794,0.432826 l -0.27527,0.275263 0.59367,0.593712 0.2756,-0.2756 a 1.6790483,1.6790483 0 0 0 0.43248,0.178785 v 0.390094 h 0.83959 v -0.390413 a 1.6790483,1.6790483 0 0 0 0.43147,-0.179491 l 0.27662,0.276625 0.5937,-0.593712 -0.27652,-0.276505 a 1.6790483,1.6790483 0 0 0 0.1785,-0.431584 h 0.3913 V 95.06916 h -0.3894 a 1.6790483,1.6790483 0 0 0 -0.17994,-0.432036 l 0.27606,-0.276053 -0.5937,-0.593677 -0.27576,0.275767 a 1.6790483,1.6790483 0 0 0 -0.43233,-0.178063 v -0.391 z" style="color:#000000;clip-rule:nonzero;display:inline;overflow:visible;visibility:visible;isolation:auto;mix-blend-mode:normal;color-interpolation:sRGB;color-interpolation-filters:linearRGB;solid-color:#000000;solid-opacity:1;fill:#a0a0f0;fill-opacity:1;fill-rule:nonzero;stroke:none;stroke-width:0.251858;stroke-linecap:round;stroke-linejoin:round;stroke-miterlimit:4;stroke-dasharray:none;stroke-dashoffset:0;stroke-opacity:1;color-rendering:auto;image-rendering:auto;shape-rendering:auto;text-rendering:auto;enable-background:accumulate"></path><path d="m 199.35786,95.488956 a 0.84821326,0.84821326 0 0 1 -0.79763,0.846703 0.84821326,0.84821326 0 0 1 -0.89276,-0.745725 0.84821326,0.84821326 0 0 1 0.69117,-0.935638 0.84821326,0.84821326 0 0 1 0.97518,0.634144" id="path2409" style="color:#000000;clip-rule:nonzero;display:inline;overflow:visible;visibility:visible;isolation:auto;mix-blend-mode:normal;color-interpolation:sRGB;color-interpolation-filters:linearRGB;solid-color:#000000;solid-opacity:1;fill:#ffffff;fill-opacity:1;fill-rule:nonzero;stroke:none;stroke-width:0.127232;stroke-linecap:round;stroke-linejoin:round;stroke-miterlimit:4;stroke-dasharray:none;stroke-dashoffset:0;stroke-opacity:1;color-rendering:auto;image-rendering:auto;shape-rendering:auto;text-rendering:auto;enable-background:accumulate"></path><path style="color:#000000;clip-rule:nonzero;display:inline;overflow:visible;visibility:visible;isolation:auto;mix-blend-mode:normal;color-interpolation:sRGB;color-interpolation-filters:linearRGB;solid-color:#000000;solid-opacity:1;fill:#00c893;fill-opacity:1;fill-rule:nonzero;stroke:none;stroke-width:0.452321;stroke-linecap:round;stroke-linejoin:round;stroke-miterlimit:4;stroke-dasharray:none;stroke-dashoffset:0;stroke-opacity:1;color-rendering:auto;image-rendering:auto;shape-rendering:auto;text-rendering:auto;enable-background:accumulate" d="m 194.76646,96.156871 -0.28023,0.644168 a 3.0154693,3.0154693 0 0 0 -0.83862,-0.01463 l -0.25739,-0.653815 -1.40301,0.552376 0.25743,0.653866 a 3.0154693,3.0154693 0 0 0 -0.60406,0.582148 l -0.64371,-0.280033 -0.6015,1.382655 0.64333,0.279869 a 3.0154693,3.0154693 0 0 0 -0.017,0.840285 l -0.65054,0.2561 0.55233,1.40308 0.65132,-0.25642 a 3.0154693,3.0154693 0 0 0 0.58415,0.60428 l -0.27948,0.64243 1.38269,0.60151 0.2797,-0.64295 a 3.0154693,3.0154693 0 0 0 0.83916,0.0135 l 0.25736,0.65373 1.4031,-0.55241 -0.25729,-0.65347 a 3.0154693,3.0154693 0 0 0 0.60316,-0.58288 l 0.64441,0.28034 0.6015,-1.38265 -0.64128,-0.27898 a 3.0154693,3.0154693 0 0 0 0.0132,-0.840406 l 0.6524,-0.256841 -0.55241,-1.403045 -0.65171,0.256581 a 3.0154693,3.0154693 0 0 0 -0.5844,-0.602975 l 0.28013,-0.643919 z" id="path2413"></path><path style="color:#000000;clip-rule:nonzero;display:inline;overflow:visible;visibility:visible;isolation:auto;mix-blend-mode:normal;color-interpolation:sRGB;color-interpolation-filters:linearRGB;solid-color:#000000;solid-opacity:1;fill:#ffffff;fill-opacity:1;fill-rule:nonzero;stroke:none;stroke-width:0.228501;stroke-linecap:round;stroke-linejoin:round;stroke-miterlimit:4;stroke-dasharray:none;stroke-dashoffset:0;stroke-opacity:1;color-rendering:auto;image-rendering:auto;shape-rendering:auto;text-rendering:auto;enable-background:accumulate" id="path2415" d="m 195.41114,100.38352 a 1.5233398,1.5233398 0 0 1 -1.9202,0.82295 1.5233398,1.5233398 0 0 1 -0.93597,-1.867708 1.5233398,1.5233398 0 0 1 1.80857,-1.045679 1.5233398,1.5233398 0 0 1 1.15166,1.742997"></path></g></svg>