<svg xmlns:dc="http://purl.org/dc/elements/1.1/" xmlns:cc="http://creativecommons.org/ns#" xmlns:rdf="http://www.w3.org/1999/02/22-rdf-syntax-ns#" xmlns:svg="http://www.w3.org/2000/svg" xmlns="http://www.w3.org/2000/svg" xmlns:sodipodi="http://sodipodi.sourceforge.net/DTD/sodipodi-0.dtd" xmlns:inkscape="http://www.inkscape.org/namespaces/inkscape" width="149.99976" height="149.99976" fill-rule="evenodd" viewBox="0 0 26.119765 26.119765" id="svg18" sodipodi:docname="lokalizacja.svg" inkscape:version="1.0.2 (e86c8708, 2021-01-15)"><metadata></metadata><defs id="defs22"></defs><path d="m 13.060083,0 h 1.93e-4 v 0.00304303 c 3.607718,5.378e-5 6.872591,1.46101377 9.233966,3.82265747 2.361375,2.3616437 3.822433,5.6262477 3.822523,9.2339655 h 0.003 v 6.1e-4 h -0.003 c -5.4e-5,3.607718 -1.461014,6.872591 -3.822658,9.233966 -2.361643,2.361375 -5.626247,3.822433 -9.233966,3.822523 v 0.003 h -6.09e-4 v -0.003 C 9.4518138,26.116711 6.1869409,24.655751 3.8255661,22.294107 1.4641913,19.932464 0.00313266,16.66786 0.00304303,13.060141 H 0 v -6.09e-4 H 0.00304303 C 0.00309681,9.4518138 1.4640568,6.1869409 3.8257005,3.8255661 6.1873442,1.4641913 9.4519482,0.00313266 13.059666,0.00304303 V 0 Z m 1.93e-4,1.5577276 v 0.00304 h -6.1e-4 v -0.00304 C 9.8870256,1.5578127 7.0121448,2.8463328 4.9295278,4.9290842 2.8469109,7.0118355 1.5580368,9.8871197 1.5580368,13.059671 h 0.00304 v 6.09e-4 h -0.00304 c 8.51e-5,3.172641 1.2886052,6.047522 3.3713566,8.130139 2.0827514,2.082617 4.9580355,3.371491 8.1305866,3.371491 v -0.003 h 6.1e-4 v 0.003 c 3.17264,-8.5e-5 6.047521,-1.288605 8.130138,-3.371357 2.082617,-2.082751 3.371491,-4.958035 3.371491,-8.130586 h -0.003 v -6.1e-4 h 0.003 C 24.562134,9.8867164 23.273614,7.0118355 21.190863,4.9292186 19.108111,2.8466017 16.232827,1.5577276 13.060276,1.5577276 Z" fill="#1b1c1f" fill-rule="nonzero" id="path16" style="fill:#505080;fill-opacity:1;stroke-width:0.448164"></path><path class="fil1" d="M 13.159687,21.746967 18.53969,11.677274 c 0.102435,-0.29394 0.178145,-0.596788 0.231589,-0.90409 0.05345,-0.311755 0.08017,-0.632417 0.08017,-0.9619871 0,-1.5721372 -0.636871,-2.9973042 -1.665664,-4.0260965 C 16.15254,4.7563082 14.731827,4.1194368 13.15969,4.1194368 c -1.572138,0 -2.99285,0.6368714 -4.026098,1.6656636 -1.0287939,1.0287923 -1.6656654,2.4539593 -1.6656654,4.0260965 0,0.3295701 0.026719,0.6502321 0.080169,0.9619871 0.053451,0.307302 0.1291521,0.61015 0.2315908,0.90409 z m 0,-15.4764191 c 0.997615,0 1.897252,0.4052818 2.547485,1.0599678 0.654685,0.6502323 1.059967,1.5498682 1.059967,2.5474852 0,0.2048671 -0.0178,0.4052811 -0.05345,0.6056951 -0.03563,0.200416 -0.08463,0.396376 -0.151423,0.587883 -0.249399,0.712583 -0.717032,1.322731 -1.322728,1.750281 -0.587881,0.41419 -1.304919,0.659141 -2.079852,0.659141 -0.774935,0 -1.491972,-0.244951 -2.079853,-0.659141 -0.605696,-0.42755 -1.068875,-1.037698 -1.3182804,-1.750281 l -0.0044,0.0045 c -0.06687,-0.19151 -0.115853,-0.387469 -0.15149,-0.592337 -0.03563,-0.200414 -0.05345,-0.400828 -0.05345,-0.6056961 0,-0.997616 0.405283,-1.8972529 1.0599674,-2.5474853 0.650218,-0.6546558 1.549854,-1.0599377 2.547472,-1.0599377 z m 1.995231,1.6122199 C 14.642751,7.3750522 13.939073,7.0588433 13.159687,7.0588433 c -0.779389,0 -1.483066,0.3162089 -1.995235,0.8239245 -0.507716,0.5121688 -0.823925,1.2158451 -0.823925,1.9952331 0,0.1647851 0.01337,0.3251171 0.04008,0.4765401 0.02672,0.155878 0.0668,0.311756 0.1158,0.458725 0.19596,0.556706 0.561159,1.033246 1.033245,1.36727 0.458724,0.325116 1.019885,0.516624 1.630034,0.516624 0.610149,0 1.171309,-0.191508 1.630036,-0.516624 0.472085,-0.334024 0.837285,-0.810564 1.033245,-1.36727 0.049,-0.146969 0.08907,-0.298393 0.1158,-0.458725 0.02672,-0.151423 0.04008,-0.311755 0.04008,-0.4765401 0,-0.779388 -0.316208,-1.4830643 -0.823924,-1.9952331 z m 4.092902,4.1285292 -5.74075,10.746649 c -0.03563,0.07127 -0.08907,0.129152 -0.164785,0.164784 -0.187053,0.102435 -0.42755,0.03117 -0.529983,-0.160331 L 7.0849127,12.038019 c -0.013366,-0.02672 -0.026719,-0.049 -0.03563,-0.08017 C 6.9290418,11.619373 6.8355084,11.263081 6.7731574,10.902336 6.7152644,10.54159 6.6796344,10.180845 6.6796344,9.8111919 c 0,-1.7903651 0.7259442,-3.4070385 1.901707,-4.5828013 1.1713092,-1.1713089 2.7879826,-1.8972532 4.5783486,-1.8972532 1.790366,0 3.40704,0.7259443 4.578349,1.8972532 1.175763,1.1757628 1.901707,2.7924362 1.901707,4.5828013 0,0.3696531 -0.03563,0.7303981 -0.09352,1.0911441 -0.06235,0.360745 -0.155878,0.717037 -0.276127,1.055514 -0.0044,0.01782 -0.01335,0.03563 -0.02227,0.05345 z" id="path848" style="clip-rule:evenodd;fill:#505080;fill-opacity:1;fill-rule:nonzero;stroke-width:0.00445364;image-rendering:optimizeQuality;shape-rendering:geometricPrecision;text-rendering:geometricPrecision"></path></svg>