<svg xmlns:dc="http://purl.org/dc/elements/1.1/" xmlns:cc="http://creativecommons.org/ns#" xmlns:rdf="http://www.w3.org/1999/02/22-rdf-syntax-ns#" xmlns:svg="http://www.w3.org/2000/svg" xmlns="http://www.w3.org/2000/svg" xmlns:sodipodi="http://sodipodi.sourceforge.net/DTD/sodipodi-0.dtd" xmlns:inkscape="http://www.inkscape.org/namespaces/inkscape" id="Layer_1" x="0px" y="0px" viewBox="0 0 150 110.79792" xml:space="preserve" sodipodi:docname="outsource.svg" width="150" height="110.79792" inkscape:version="1.0.2 (e86c8708, 2021-01-15)"><metadata></metadata><defs id="defs3622">
	
	
	
	

		
		
		
		
		
		
		
		
		
		
		
		
	
		
		
		
		
		
		
		
		
		
		
	</defs>
<style type="text/css" id="style3542">
	.st0{fill:#1771DD;}
	.st1{fill-rule:evenodd;clip-rule:evenodd;fill:#FDD4A6;}
	.st2{fill-rule:evenodd;clip-rule:evenodd;fill:#EAB88E;}
	.st3{fill-rule:evenodd;clip-rule:evenodd;fill:#5C5C5C;}
	.st4{fill-rule:evenodd;clip-rule:evenodd;fill:#4B4B4B;}
	.st5{fill-rule:evenodd;clip-rule:evenodd;fill:#FFF0E6;}
	.st6{fill-rule:evenodd;clip-rule:evenodd;fill:#E6E6E6;}
	.st7{fill:#C2C291;}
	.st8{fill:#333333;}
	.st9{fill-rule:evenodd;clip-rule:evenodd;fill:#EF5160;}
	.st10{fill-rule:evenodd;clip-rule:evenodd;fill:#FFD600;}
	.st11{fill-rule:evenodd;clip-rule:evenodd;fill:#D3AAAA;}
	.st12{fill-rule:evenodd;clip-rule:evenodd;fill:#FFE76A;}
	.st13{fill-rule:evenodd;clip-rule:evenodd;fill:#F5F5F5;}
	.st14{fill-rule:evenodd;clip-rule:evenodd;fill:#FFFFFF;}
	.st15{fill-rule:evenodd;clip-rule:evenodd;fill:#666666;}
	.st16{fill-rule:evenodd;clip-rule:evenodd;fill:#DB8A8A;}
	.st17{fill:#C2424D;}
</style>

<path class="st6" d="m 53.390839,0.2109935 h 36.50187 c 1.85674,0 3.37589,1.51916 3.37589,3.3759 V 58.740573 c 0,1.85674 -1.51915,3.37589 -3.37589,3.37589 h -36.50187 c -1.85674,0 -3.375891,-1.51915 -3.375891,-3.37589 V 3.5868935 c -0.0422,-1.85674 1.519151,-3.3759 3.375891,-3.3759 z m 2.19434,2.74292 c 0.54858,0 1.01276,0.46418 1.01276,1.01277 0,0.59078 -0.46418,1.05496 -1.01276,1.05496 -0.59079,0 -1.05497,-0.46418 -1.05497,-1.05496 0.0422,-0.54859 0.50638,-1.01277 1.05497,-1.01277 z m 16.0355,0 c 0.59078,0 1.05496,0.46418 1.05496,1.01277 0,0.59078 -0.46418,1.05496 -1.05496,1.05496 -0.54859,0 -1.01277,-0.46418 -1.01277,-1.05496 0,-0.54859 0.42198,-1.01277 1.01277,-1.01277 z m 5.35923,0 c 0.54858,0 1.05497,0.46418 1.05497,1.01277 0,0.59078 -0.46419,1.05496 -1.05497,1.05496 -0.54858,0 -1.05497,-0.46418 -1.05497,-1.05496 0,-0.54859 0.46419,-1.01277 1.05497,-1.01277 z m 5.31703,0 c 0.59078,0 1.05497,0.46418 1.05497,1.01277 0,0.59078 -0.46419,1.05496 -1.05497,1.05496 -0.54858,0 -1.01277,-0.46418 -1.01277,-1.05496 0,-0.54859 0.46419,-1.01277 1.01277,-1.01277 z m 5.35924,0 c 0.54858,0 1.05496,0.46418 1.05496,1.01277 0,0.59078 -0.46418,1.05496 -1.05496,1.05496 -0.54859,0 -1.05497,-0.46418 -1.05497,-1.05496 0,-0.54859 0.46418,-1.01277 1.05497,-1.01277 z m -21.39474,0 c 0.54859,0 1.05497,0.46418 1.05497,1.01277 0,0.59078 -0.46419,1.05496 -1.05497,1.05496 -0.54858,0 -1.05496,-0.46418 -1.05496,-1.05496 0.0422,-0.54859 0.50638,-1.01277 1.05496,-1.01277 z m -5.31703,0 c 0.59078,0 1.05497,0.46418 1.05497,1.01277 0,0.59078 -0.46419,1.05496 -1.05497,1.05496 -0.54858,0 -1.01277,-0.46418 -1.01277,-1.05496 -0.0422,-0.54859 0.42199,-1.01277 1.01277,-1.01277 z" id="path3571" style="fill:none;stroke:#8381b5;stroke-width:0.421987;stroke-opacity:1"></path><path class="st7" d="m 56.429149,11.731233 c -0.33759,0 -0.59078,-0.25319 -0.59078,-0.59078 0,-0.33759 0.25319,-0.59078 0.59078,-0.59078 h 30.55185 c 0.33759,0 0.59078,0.25319 0.59078,0.59078 0,0.33759 -0.25319,0.59078 -0.59078,0.59078 z" id="path3573" style="fill:#8381b5;fill-opacity:1;stroke:none;stroke-width:0.421987;stroke-opacity:1"></path><path class="st7" d="m 56.429149,17.343663 c -0.33759,0 -0.59078,-0.25319 -0.59078,-0.59078 0,-0.33759 0.25319,-0.59078 0.59078,-0.59078 h 30.55185 c 0.33759,0 0.59078,0.25319 0.59078,0.59078 0,0.33759 -0.25319,0.59078 -0.59078,0.59078 z" id="path3575" style="fill:#8381b5;fill-opacity:1;stroke:none;stroke-width:0.421987;stroke-opacity:1"></path><path class="st7" d="m 56.429149,22.956083 c -0.33759,0 -0.59078,-0.25319 -0.59078,-0.59078 0,-0.33759 0.25319,-0.59078 0.59078,-0.59078 h 30.55185 c 0.33759,0 0.59078,0.25319 0.59078,0.59078 0,0.33759 -0.25319,0.59078 -0.59078,0.59078 z" id="path3577" style="fill:#8381b5;fill-opacity:1;stroke:none;stroke-width:0.421987;stroke-opacity:1"></path><path class="st7" d="m 56.429149,28.568513 c -0.33759,0 -0.59078,-0.25319 -0.59078,-0.59078 0,-0.33759 0.25319,-0.59078 0.59078,-0.59078 h 30.55185 c 0.33759,0 0.59078,0.25319 0.59078,0.59078 0,0.33759 -0.25319,0.59078 -0.59078,0.59078 z" id="path3579" style="fill:#8381b5;fill-opacity:1;stroke:none;stroke-width:0.421987;stroke-opacity:1"></path><path class="st9" d="m 87.613979,32.113203 c 4.97944,0 9.03052,4.00887 9.03052,8.98832 0,1.81454 -0.54859,3.54469 -1.51916,4.97944 l 2.44753,10.12769 -0.67518,-0.46419 -3.46029,-2.32093 -2.02554,3.67129 -0.42199,0.71738 -1.85674,-7.80676 c -0.46419,0.0844 -0.97057,0.1266 -1.47695,0.1266 -0.50639,0 -1.01277,-0.0422 -1.47696,-0.1266 l -1.85674,7.80676 -0.42199,-0.71738 -2.02553,-3.67129 -3.50249,2.36313 -0.67518,0.46419 2.44752,-10.12769 c -0.92837,-1.43475 -1.51915,-3.1227 -1.51915,-4.97944 0,-4.97945 4.05107,-9.03052 8.98832,-9.03052 z" id="path3583" style="fill:#00c893;fill-opacity:1;stroke:none;stroke-width:0.421987;stroke-opacity:1"></path><path class="st10" d="m 87.656179,47.178133 c 3.33369,0 6.03441,-2.74291 6.03441,-6.07661 0,-3.3337 -2.70072,-6.07661 -6.03441,-6.07661 -3.3337,0 -6.07661,2.74291 -6.07661,6.07661 0,3.37589 2.70071,6.07661 6.07661,6.07661 z" id="path3585" style="fill:#00f8c3;fill-opacity:1;stroke:none;stroke-width:0.421987;stroke-opacity:1"></path><path class="st11" d="m 57.146529,33.716753 h 17.34366 c 0.42198,0 0.80177,0.33759 0.80177,0.80177 v 5.40144 c 0,0.42198 -0.33759,0.80177 -0.80177,0.80177 h -17.34366 c -0.42199,0 -0.80178,-0.33759 -0.80178,-0.80177 v -5.40144 c 0,-0.46418 0.37979,-0.80177 0.80178,-0.80177 z" id="path3587" style="fill:#8381b5;fill-opacity:1;stroke:none;stroke-width:0.421987;stroke-opacity:1"></path><path class="st11" d="m 56.682339,44.308623 h 18.27203 c 0.1688,0 0.33759,0.1266 0.33759,0.33759 v 2.19433 c 0,0.16879 -0.12659,0.33759 -0.33759,0.33759 h -18.27203 c -0.16879,0 -0.33759,-0.1266 -0.33759,-0.33759 v -2.19433 c 0,-0.21099 0.1266,-0.33759 0.33759,-0.33759 z" id="path3589" style="fill:#8381b5;fill-opacity:1;stroke:none;stroke-width:0.421987;stroke-opacity:1"></path>
<path class="st1" d="m 77.402579,49.824603 14.30535,1.26596 12.533011,-2.91171 c 0,0 13.25039,19.83338 13.29259,21.94332 0.0422,2.06773 -15.65571,8.27094 -17.681251,7.76455 l -27.59794,-6.62519 z" id="path3546" style="stroke-width:0.421987"></path><path class="st2" d="m 43.179445,82.486383 39.371374,22.027707 c 9.83229,5.52803 13.03939,-3.33369 6.83619,-6.793977 7.38477,3.460287 10.929461,-5.14824 5.69682,-7.80676 5.274831,2.95391 11.309251,-3.71348 5.823421,-6.75179 5.31703,2.95391 8.01775,-4.26207 3.2071,-7.30037 l -24.264251,-15.44472 -3.33369,1.01277 -3.1649,-7.76456 c -2.36313,-5.73902 -11.77344,-0.50638 -18.52523,1.39256 -2.53192,0.71737 -9.030516,-2.06774 -11.478039,-1.05497 -2.742915,1.13936 -5.443631,5.02164 -7.258174,7.80676 -7.637962,11.85783 -2.447524,15.31812 7.089379,20.67735 z" id="path3548" style="stroke-width:0.421987"></path><path class="st1" d="m 51.070599,78.350913 -4.641855,8.65073 c -3.54469,6.583 2.025536,12.57521 5.865615,6.75179 -1.43475,2.19433 -0.84397,5.14824 1.35036,6.582987 v 0 c 2.19433,1.43476 5.14824,0.84398 6.58299,-1.350347 -1.43475,2.194327 -0.84397,5.148237 1.35036,6.582987 v 0 c 2.19433,1.43476 5.14824,0.84398 6.583,-1.35036 -1.64575,2.53192 -0.54859,8.52414 4.47306,5.95002 4.00887,-2.06774 7.63796,-8.39754 9.91669,-10.549667 1.89894,-1.77235 0.84397,-5.14824 -1.35036,-6.583 v 0 c -2.19433,-1.43475 -5.14824,-0.84397 -6.58299,1.35036 1.43475,-2.19433 0.84397,-5.14824 -1.35036,-6.58299 v 0 c -2.19433,-1.43476 -5.14824,-0.84398 -6.583,1.35035 1.43476,-2.19433 0.84398,-5.14824 -1.35035,-6.58299 v 0 c -2.19434,-1.43476 -5.14824,-0.84398 -6.583,1.35036 1.43476,-2.19434 0.84397,-5.14824 -1.35036,-6.583 v 0 c -2.02553,-1.35036 -4.81065,-0.88617 -6.3298,1.01277 z" id="path3550" style="stroke-width:0.421987"></path><path class="st1" d="m 77.402579,49.824603 c -6.24541,3.92448 -12.9972,6.07661 -15.06493,9.11491 -2.65852,3.96668 1.09716,6.4986 6.2876,4.93725 4.13547,-1.26596 8.31314,-2.48972 12.44861,-3.75568 z" id="path3552" style="stroke-width:0.421987"></path><path class="st3" d="m 102.553,47.166083 35.2781,-13.84117 c 1.09716,-0.42198 2.36312,0.1266 2.78511,1.22377 l 9.24151,23.46246 c 0.42199,1.09717 -0.1266,2.36313 -1.22376,2.78512 l -35.2781,13.84117 c -1.09717,0.42198 -2.36313,-0.1266 -2.78511,-1.22377 l -9.24152,-23.46246 c -0.42198,-1.09717 0.1266,-2.36313 1.22377,-2.78512 z" id="path3554" style="fill:#8381b5;fill-opacity:1;stroke-width:0.421987"></path><path class="st3" d="m 13.344974,36.996203 34.602922,15.48692 c 1.097166,0.46418 1.561352,1.77234 1.097166,2.82731 L 38.706384,78.393113 C 38.2,79.490273 36.93404,79.954463 35.879072,79.490273 L 1.2761503,64.003363 c -1.09716595,-0.46419 -1.56135095,-1.77235 -1.09716595,-2.82731 L 10.475463,38.177763 c 0.506385,-1.13936 1.772345,-1.64575 2.869511,-1.18156 z" id="path3558" style="fill:#505080;fill-opacity:1;stroke-width:0.421987"></path><path class="st5" d="m 58.792959,80.840633 c -0.84397,-1.77234 -1.81454,-3.2493 -5.31704,-3.2071 -0.59078,3.96668 2.27873,5.69682 5.31704,3.2071 z" id="path3562" style="fill:#f0edff;fill-opacity:1;stroke-width:0.421987"></path><path class="st5" d="m 66.599719,85.988873 c -0.80178,-1.77234 -1.81455,-3.2493 -5.31704,-3.2071 -0.63298,3.96668 2.27873,5.65463 5.31704,3.2071 z" id="path3564" style="fill:#f0edff;fill-opacity:1;stroke-width:0.421987"></path><path class="st5" d="m 74.575269,91.390303 c -0.80178,-1.77234 -1.81455,-3.2493 -5.31704,-3.2071 -0.59078,3.96668 2.27873,5.65463 5.31704,3.2071 z" id="path3566" style="fill:#f0edff;fill-opacity:1;stroke-width:0.421987"></path><path class="st5" d="m 82.593019,96.665143 c -0.80178,-1.77235 -1.81455,-3.2493 -5.31704,-3.2071 -0.59078,3.96668 2.27873,5.69682 5.31704,3.2071 z" id="path3568" style="fill:#f0edff;fill-opacity:1;stroke-width:0.421987"></path></svg>