<svg xmlns:dc="http://purl.org/dc/elements/1.1/" xmlns:cc="http://creativecommons.org/ns#" xmlns:rdf="http://www.w3.org/1999/02/22-rdf-syntax-ns#" xmlns:svg="http://www.w3.org/2000/svg" xmlns="http://www.w3.org/2000/svg" xmlns:sodipodi="http://sodipodi.sourceforge.net/DTD/sodipodi-0.dtd" xmlns:inkscape="http://www.inkscape.org/namespaces/inkscape" id="Layer_1" x="0px" y="0px" viewBox="0 0 150 145.62695" xml:space="preserve" sodipodi:docname="szkolenia2.svg" inkscape:version="1.0.2 (e86c8708, 2021-01-15)" width="150" height="145.62695" inkscape:export-filename="/Users/seba/Downloads/school-5000781.png" inkscape:export-xdpi="96" inkscape:export-ydpi="96"><metadata></metadata><defs id="defs1285"></defs>
<style type="text/css" id="style1184">
	.st0{fill:#211D19;}
	.st1{fill-rule:evenodd;clip-rule:evenodd;fill:#05755F;}
	.st2{fill-rule:evenodd;clip-rule:evenodd;fill:#D2D2D2;}
	.st3{fill-rule:evenodd;clip-rule:evenodd;fill:#E9E9E9;}
	.st4{fill-rule:evenodd;clip-rule:evenodd;fill:#333333;}
	.st5{fill-rule:evenodd;clip-rule:evenodd;fill:#292929;}
	.st6{fill-rule:evenodd;clip-rule:evenodd;fill:#010000;}
	.st7{fill-rule:evenodd;clip-rule:evenodd;fill:#323232;}
	.st8{fill-rule:evenodd;clip-rule:evenodd;fill:#F78729;}
	.st9{fill-rule:evenodd;clip-rule:evenodd;fill:#E17C28;}
	.st10{fill-rule:evenodd;clip-rule:evenodd;fill:#B85E34;}
	.st11{fill-rule:evenodd;clip-rule:evenodd;fill:#954D2A;}
	.st12{fill-rule:evenodd;clip-rule:evenodd;fill:#7E4B1E;}
	.st13{fill-rule:evenodd;clip-rule:evenodd;fill:#E6E6E6;}
	.st14{fill-rule:evenodd;clip-rule:evenodd;fill:#45B431;}
	.st15{fill-rule:evenodd;clip-rule:evenodd;fill:#58BC46;}
	.st16{fill-rule:evenodd;clip-rule:evenodd;fill:#9C6127;}
	.st17{fill:#DB9D2C;}
	.st18{fill-rule:evenodd;clip-rule:evenodd;fill:#71441B;}
	.st19{fill-rule:evenodd;clip-rule:evenodd;fill:#8B5D35;}
	.st20{fill-rule:evenodd;clip-rule:evenodd;fill:#032D59;}
	.st21{fill-rule:evenodd;clip-rule:evenodd;fill:#335579;}
	.st22{fill-rule:evenodd;clip-rule:evenodd;fill:#CCCCCC;}
	.st23{fill-rule:evenodd;clip-rule:evenodd;fill:#7D7091;}
	.st24{fill-rule:evenodd;clip-rule:evenodd;fill:#9A8AB3;}
	.st25{fill-rule:evenodd;clip-rule:evenodd;fill:#B3B3B3;}
	.st26{fill-rule:evenodd;clip-rule:evenodd;fill:#C86E21;}
	.st27{fill:#999999;}
	.st28{fill:#808080;}
</style>

<path class="st1" d="m 34.60815,54.357367 h 109.37304 c 3.29154,0 6.01881,2.727272 6.01881,6.018809 v 71.849534 c 0,3.29153 -2.72727,6.0188 -6.01881,6.0188 H 34.60815 c -3.291536,0 -6.018808,-2.72727 -6.018808,-6.0188 V 60.376176 c 0,-3.291537 2.727272,-6.018809 6.018808,-6.018809 z" id="path1188" style="fill:#505080;fill-opacity:1;stroke-width:0.470219"></path><path class="st1" d="m 74.952978,142.19436 h 28.636362 c 0.94044,0 1.73981,0.79937 1.73981,1.73981 v 0 c 0,0.94044 -0.79937,1.69279 -1.73981,1.69279 H 74.952978 c -0.940439,0 -1.739812,-0.75235 -1.739812,-1.69279 v 0 c 0.04702,-0.94044 0.799373,-1.73981 1.739812,-1.73981 z" id="path1190" style="fill:#505080;fill-opacity:1;stroke-width:0.470219"></path><path class="st1" d="m 89.29467,137.16301 v 0 c 1.12853,0 2.02194,0.89342 2.02194,2.02194 v 2.7743 c 0,1.12852 -0.89341,2.02194 -2.02194,2.02194 v 0 c -1.12853,0 -2.06896,-0.89342 -2.06896,-2.02194 v -2.7743 c 0.047,-1.12852 0.94043,-2.02194 2.06896,-2.02194 z" id="path1192" style="fill:#505080;fill-opacity:1;stroke-width:0.470219"></path><path class="st2" d="m 36.30094,58.495298 h 105.94044 c 1.97492,0 3.57367,1.598746 3.57367,3.526646 v 68.557996 c 0,1.9279 -1.59875,3.57367 -3.57367,3.57367 H 36.30094 c -1.927899,0 -3.573667,-1.59875 -3.573667,-3.57367 V 62.021944 c 0.04702,-1.9279 1.645768,-3.526646 3.573667,-3.526646 z" id="path1194" style="fill:#ffffff;fill-opacity:1;stroke-width:0.470219"></path><path class="st4" d="m 61.9279,24.733542 27.36677,3.244514 27.36677,-3.244514 c 3.94985,-0.470219 7.14734,2.351097 7.14734,6.300941 v 20.454545 c 0,3.949843 -3.29154,7.147336 -7.14734,7.993731 L 89.29467,65.595611 61.9279,59.482759 C 58.0721,58.636364 54.780564,55.438871 54.780564,51.489028 V 31.034483 c -0.04702,-3.949844 3.197492,-6.77116 7.147336,-6.300941 z" id="path1199" style="fill:#a0a0f0;fill-opacity:1;stroke-width:0.470219"></path><path class="st5" d="m 89.29467,27.978056 27.36677,-3.244514 c 3.94985,-0.470219 7.14734,2.351097 7.14734,6.300941 v 20.454545 c 0,3.949843 -3.29154,7.147336 -7.14734,7.993731 l -27.36677,6.112852 z" id="path1201" style="fill:#8381b5;fill-opacity:1;stroke-width:0.470219"></path><polygon class="st6" points="380.9,139.8 263.4,184.3 145.9,139.8 145.9,132 159.5,134.6 363.7,133.3 380.9,132 " id="polygon1203" style="fill:#505080;fill-opacity:1" transform="matrix(0.47021944,0,0,0.47021944,-34.561129,-41.097179)"></polygon><polygon class="st7" points="380.9,132 263.4,176.5 145.9,132 263.4,87.4 " id="polygon1205" style="fill:#8381b5;fill-opacity:1" transform="matrix(0.47021944,0,0,0.47021944,-34.561129,-41.097179)"></polygon><path class="st8" d="m 144.54545,19.326019 h -3.0094 -51.30094 c -1.22257,0 -3.29154,0 -3.29154,1.927899 0,2.021944 2.25706,1.9279 3.52665,1.9279 h 51.06583 v 25.673981 h 3.0094 V 23.181818 Z" id="path1207" style="fill:#00c893;fill-opacity:1;stroke-width:0.470219"></path><polygon class="st8" points="365.1,228.4 373,193.3 377.7,194.4 382.4,193.3 390.3,228.4 384.8,223.4 381.9,230.3 377.7,211.7 373.5,230.3 370.6,223.4 " id="polygon1209" style="fill:#00c893;fill-opacity:1" transform="matrix(0.47021944,0,0,0.47021944,-34.561129,-41.097179)"></polygon><path class="st9" d="m 143.04075,54.075235 c 2.21003,0 4.04389,-1.833856 4.04389,-4.043887 0,-2.210031 -1.83386,-4.043887 -4.04389,-4.043887 -2.21003,0 -4.04388,1.833856 -4.04388,4.043887 0,2.257053 1.83385,4.043887 4.04388,4.043887 z" id="path1211" style="fill:#00dafc;fill-opacity:1;stroke-width:0.470219"></path><path class="st20" d="m 6.253918,120.4232 h 60.188088 v 2.72727 c -1.69279,0.94044 -2.868338,2.58621 -2.868338,4.51411 v 10.62696 c 0,1.88087 1.128526,3.57366 2.868338,4.5141 v 2.72728 H 6.253918 C 2.821317,145.53292 0,142.7116 0,139.279 v -12.50784 c 0,-3.52665 2.821317,-6.34796 6.253918,-6.34796 z" id="path1244" style="stroke-width:0.470219"></path><path class="st22" d="m 66.442006,123.24451 c -1.598746,0.94044 -2.680251,2.58621 -2.680251,4.37304 v 10.62696 c 0,1.83386 1.081505,3.43261 2.680251,4.37304 H 14.811912 c -2.633229,0 -4.796238,-2.163 -4.796238,-4.79623 v -9.78057 c 0,-2.63323 2.163009,-4.79624 4.796238,-4.79624 z" id="path1248" style="fill:#ffffff;fill-opacity:1;stroke-width:0.470219"></path><path class="st23" d="m 8.416928,120.4232 h 54.545454 v -2.06897 c -1.269592,-0.70533 -2.163009,-1.97492 -2.163009,-3.38558 v -3.99686 c 0,-1.41066 0.846395,-2.68025 2.163009,-3.38558 v -2.06897 H 8.416928 c -2.586207,0 -4.702194,2.11599 -4.702194,4.7022 v 5.45454 c 0,2.63323 2.115987,4.74922 4.702194,4.74922 z" id="path1250" style="stroke-width:0.470219"></path><path class="st3" d="m 62.962382,118.30721 c -1.175548,-0.70533 -2.021943,-1.9279 -2.021943,-3.29154 v -3.99686 c 0,-1.36364 0.799373,-2.58621 2.021943,-3.29154 H 12.460815 c -1.974922,0 -3.62069,1.59875 -3.62069,3.62069 v 3.38558 c 0,1.97492 1.645768,3.62069 3.62069,3.62069 h 50.501567 z" id="path1254" style="fill:#ffffff;fill-opacity:1;stroke-width:0.470219"></path><path class="st25" d="m 61.175549,116.19122 c -0.04702,-0.18809 -0.141066,-0.32915 -0.141066,-0.51724 H 13.824451 v 0.51724 z m -0.23511,-1.97492 v -0.51724 H 13.824451 v 0.51724 z m 0,-1.97492 v -0.51724 H 13.824451 v 0.51724 z m 0.09404,-1.9279 c 0.04702,-0.18809 0.09404,-0.37618 0.141066,-0.51724 H 13.824451 v 0.51724 z" id="path1256" style="fill:#f0edff;fill-opacity:1;stroke-width:0.470219"></path><path class="st26" d="M 54.639498,93.197492 H 0.094044 v 2.068966 c 1.269592,0.705329 2.163009,1.974921 2.163009,3.38558 v 1.457682 c 0,1.41066 -0.846395,2.68025 -2.163009,3.38558 v 2.06896 h 54.545454 c 2.586207,0 4.702195,-2.11598 4.702195,-4.70219 v -2.915362 c 0,-2.586206 -2.115988,-4.749216 -4.702195,-4.749216 z" id="path1258" style="fill:#8381b5;fill-opacity:1;stroke-width:0.470219"></path><path class="st3" d="m 0.094044,95.360502 c 1.22257,0.705329 2.021943,1.927899 2.021943,3.291536 v 1.457682 c 0,1.36363 -0.799373,2.5862 -2.021943,3.29153 h 50.501567 c 1.974922,0 3.62069,-1.64576 3.62069,-3.620686 v -0.846395 c 0,-1.974921 -1.598746,-3.620689 -3.62069,-3.620689 H 0.094044 Z" id="path1262" style="fill:#ffffff;fill-opacity:1;stroke-width:0.470219"></path><path class="st25" d="m 1.69279,97.00627 c 0.09404,0.188087 0.188088,0.376175 0.23511,0.517241 H 49.749216 V 97.00627 Z m 0.376176,1.974921 v 0.517242 h 47.633228 v -0.517242 z m -0.09404,1.974919 c -0.04702,0.18809 -0.09404,0.37618 -0.188088,0.51724 h 47.91536 v -0.51724 z" id="path1264" style="fill:#f0edff;fill-opacity:1;stroke-width:0.470219"></path><path class="st27" d="M 63.714734,127.61755 H 16.598746 v -1.0815 h 47.115988 z m 0,7.85267 H 16.598746 v -1.08151 h 47.115988 z m 0,3.90282 H 16.598746 v -1.0815 h 47.115988 z m 0,-7.85266 H 16.598746 v -1.03449 h 47.115988 z" id="path1266" style="fill:#f0edff;fill-opacity:1;stroke-width:0.470219"></path><path class="st28" d="m 44.341693,77.163009 c -0.47022,0 -0.799373,-0.376175 -0.799373,-0.799373 0,-0.423197 0.329153,-0.799373 0.799373,-0.799373 h 57.413797 c 0.42319,0 0.79937,0.376176 0.79937,0.799373 0,0.423198 -0.37618,0.799373 -0.79937,0.799373 z" id="path1271" style="fill:#8381b5;fill-opacity:1;stroke-width:0.470219"></path><path class="st28" d="m 67.147335,86.097179 c -0.470219,0 -0.799373,-0.376176 -0.799373,-0.799373 0,-0.423198 0.329154,-0.799373 0.799373,-0.799373 h 43.777425 c 0.4232,0 0.79938,0.376175 0.79938,0.799373 0,0.423197 -0.37618,0.799373 -0.79938,0.799373 z" id="path1273" style="fill:#8381b5;fill-opacity:1;stroke-width:0.470219"></path><path class="st28" d="m 67.805643,95.736677 c -0.423198,0 -0.799373,-0.329153 -0.799373,-0.799373 0,-0.423197 0.376175,-0.799373 0.799373,-0.799373 h 36.159877 c 0.42319,0 0.79937,0.376176 0.79937,0.799373 0,0.47022 -0.37618,0.799373 -0.79937,0.799373 z" id="path1275" style="fill:#8381b5;fill-opacity:1;stroke-width:0.470219"></path><path class="st28" d="m 72.225705,105.89342 c -0.423197,0 -0.799373,-0.37618 -0.799373,-0.79938 0,-0.47022 0.376176,-0.79937 0.799373,-0.79937 h 34.561125 c 0.47022,0 0.79938,0.32915 0.79938,0.79937 0,0.4232 -0.32916,0.79938 -0.79938,0.79938 z" id="path1277" style="fill:#8381b5;fill-opacity:1;stroke-width:0.470219"></path><path id="A_Grade" class="st14" d="m 129.68652,85.815047 h -7.10031 l 3.57366,-9.169279 z m 0.65831,1.880878 2.16301,5.501567 c 0.14106,0.423198 0.47022,0.705329 0.98746,0.705329 0.61128,0 1.03448,-0.470219 1.03448,-1.034482 0,-0.09404 -0.047,-0.282132 -0.094,-0.47022 l -7.33543,-18.526646 c -0.14106,-0.376175 -0.47022,-0.705329 -0.98746,-0.705329 -0.51724,0 -0.79937,0.329154 -0.94044,0.705329 l -7.33542,18.573668 c -0.047,0.141066 -0.094,0.329154 -0.094,0.47022 0,0.564263 0.47022,1.034482 1.03448,1.034482 0.51724,0 0.84639,-0.329153 0.98746,-0.752351 l 2.21003,-5.501567 z" style="fill:#8381b5;fill-opacity:1;stroke-width:0.470219"></path>
</svg>