<?xml version="1.0" encoding="UTF-8" standalone="no"?>
<svg
   xmlns:dc="http://purl.org/dc/elements/1.1/"
   xmlns:cc="http://creativecommons.org/ns#"
   xmlns:rdf="http://www.w3.org/1999/02/22-rdf-syntax-ns#"
   xmlns:svg="http://www.w3.org/2000/svg"
   xmlns="http://www.w3.org/2000/svg"
   xmlns:xlink="http://www.w3.org/1999/xlink"
   xmlns:sodipodi="http://sodipodi.sourceforge.net/DTD/sodipodi-0.dtd"
   xmlns:inkscape="http://www.inkscape.org/namespaces/inkscape"
   width="132.29167mm"
   height="126.46132mm"
   viewBox="0 0 500.00003 477.964"
   version="1.1"
   id="svg1461"
   inkscape:version="1.0.2 (e86c8708, 2021-01-15)"
   sodipodi:docname="eko2.svg"
   inkscape:export-filename="/Users/seba/Library/Mobile Documents/com~apple~CloudDocs/Progressor/Content/Logo/svg/eko2.png"
   inkscape:export-xdpi="96"
   inkscape:export-ydpi="96">
  <defs
     id="defs1455">
    <linearGradient
       inkscape:collect="always"
       id="linearGradient3870">
      <stop
         style="stop-color:#7bc8cd;stop-opacity:1;"
         offset="0"
         id="stop3866" />
      <stop
         style="stop-color:#7bc8cd;stop-opacity:0;"
         offset="1"
         id="stop3868" />
    </linearGradient>
    <radialGradient
       id="a"
       cx="0"
       cy="1"
       r="2.1087"
       gradientUnits="userSpaceOnUse">
      <stop
         stop-color="#8dff00"
         stop-opacity=".996"
         offset="0"
         id="stop2286" />
      <stop
         stop-color="#5ead40"
         stop-opacity=".996"
         offset="1"
         id="stop2288" />
    </radialGradient>
    <radialGradient
       id="t"
       cx="-25.872"
       cy="20.799999"
       r="0"
       gradientUnits="userSpaceOnUse">
      <stop
         stop-color="#F6F6F6"
         offset="0"
         id="stop2674" />
      <stop
         stop-color="#F2F2F2"
         offset=".2275"
         id="stop2676" />
      <stop
         stop-color="#E7E7E7"
         offset=".5097"
         id="stop2678" />
      <stop
         stop-color="#D4D4D4"
         offset=".8195"
         id="stop2680" />
      <stop
         stop-color="#C6C6C6"
         offset="1"
         id="stop2682" />
    </radialGradient>
    <linearGradient
       id="u"
       x1="122.86"
       x2="199.39"
       y1="297.44"
       y2="297.44"
       gradientUnits="userSpaceOnUse">
      <stop
         stop-color="#2C6B35"
         offset="0"
         id="stop2687" />
      <stop
         stop-color="#92C144"
         offset="1"
         id="stop2689" />
    </linearGradient>
    <linearGradient
       id="v"
       x1="168.38"
       x2="238.16"
       y1="253.39999"
       y2="253.39999"
       gradientUnits="userSpaceOnUse">
      <stop
         stop-color="#2C6B35"
         offset="0"
         id="stop2694" />
      <stop
         stop-color="#92C144"
         offset="1"
         id="stop2696" />
    </linearGradient>
    <linearGradient
       id="w"
       x1="223.28"
       x2="302.14999"
       y1="217.57001"
       y2="217.57001"
       gradientUnits="userSpaceOnUse">
      <stop
         stop-color="#2C6B35"
         offset="0"
         id="stop2701" />
      <stop
         stop-color="#92C144"
         offset="1"
         id="stop2703" />
    </linearGradient>
    <linearGradient
       id="x"
       x1="269.84"
       x2="345.20001"
       y1="174.03"
       y2="174.03"
       gradientUnits="userSpaceOnUse">
      <stop
         stop-color="#2C6B35"
         offset="0"
         id="stop2708" />
      <stop
         stop-color="#92C144"
         offset="1"
         id="stop2710" />
    </linearGradient>
    <linearGradient
       id="y"
       x1="327.51999"
       x2="351.56"
       y1="256.63"
       y2="97.269997"
       gradientUnits="userSpaceOnUse">
      <stop
         stop-color="#92C144"
         offset="0"
         id="stop2715" />
      <stop
         stop-color="#2C6B35"
         offset="1"
         id="stop2717" />
    </linearGradient>
    <linearGradient
       id="z"
       x1="234.46001"
       x2="397.14001"
       y1="251.75"
       y2="251.75"
       gradientUnits="userSpaceOnUse">
      <stop
         stop-color="#92C144"
         offset="0"
         id="stop2722" />
      <stop
         stop-color="#2C6B35"
         offset="1"
         id="stop2724" />
    </linearGradient>
    <linearGradient
       id="aa"
       x1="179.45"
       x2="368.70999"
       y1="340.57999"
       y2="340.57999"
       gradientUnits="userSpaceOnUse">
      <stop
         stop-color="#92C144"
         offset="0"
         id="stop2729" />
      <stop
         stop-color="#2C6B35"
         offset="1"
         id="stop2731" />
    </linearGradient>
    <linearGradient
       id="ab"
       x1="135.46001"
       x2="298.23999"
       y1="391.13"
       y2="391.13"
       gradientUnits="userSpaceOnUse">
      <stop
         stop-color="#92C144"
         offset="0"
         id="stop2736" />
      <stop
         stop-color="#2C6B35"
         offset="1"
         id="stop2738" />
    </linearGradient>
    <linearGradient
       id="o"
       x1="322.57001"
       x2="112.38"
       y1="64.626999"
       y2="410.13"
       gradientUnits="userSpaceOnUse"
       xlink:href="#ab">
      <stop
         stop-color="#7BC8CD"
         offset="0"
         id="stop2743" />
      <stop
         stop-color="#7BC8CD"
         stop-opacity="0"
         offset="1"
         id="stop2745" />
    </linearGradient>
    <linearGradient
       id="p"
       x1="142.46729"
       x2="396.60001"
       y1="219.58069"
       y2="244.95"
       gradientUnits="userSpaceOnUse">
      <stop
         stop-color="#19598C"
         offset="0"
         id="stop2750"
         style="stop-color:#32328c;stop-opacity:1" />
      <stop
         stop-color="#19598C"
         stop-opacity="0"
         offset="1"
         id="stop2752" />
    </linearGradient>
    <linearGradient
       id="q"
       x1="135.06"
       x2="346.42001"
       y1="243.97"
       y2="243.97"
       gradientUnits="userSpaceOnUse">
      <stop
         stop-color="#2C6B35"
         offset="0"
         id="stop2757" />
      <stop
         stop-color="#92C144"
         offset=".4988"
         id="stop2759" />
      <stop
         stop-color="#2C6B35"
         offset="1"
         id="stop2761" />
    </linearGradient>
    <linearGradient
       id="r"
       x1="135.06"
       x2="205.05"
       y1="412.16"
       y2="412.16"
       gradientUnits="userSpaceOnUse">
      <stop
         stop-color="#2C6B35"
         offset="0"
         id="stop2766" />
      <stop
         stop-color="#92C144"
         offset=".4988"
         id="stop2768" />
      <stop
         stop-color="#2C6B35"
         offset="1"
         id="stop2770" />
    </linearGradient>
    <linearGradient
       id="s"
       x1="122.9"
       x2="345.25"
       y1="248.53"
       y2="248.53"
       gradientUnits="userSpaceOnUse">
      <stop
         stop-color="#2C6B35"
         offset="0"
         id="stop2775" />
      <stop
         stop-color="#92C144"
         offset=".4988"
         id="stop2777" />
      <stop
         stop-color="#2C6B35"
         offset="1"
         id="stop2779" />
    </linearGradient>
    <linearGradient
       inkscape:collect="always"
       xlink:href="#linearGradient3870"
       id="linearGradient3872"
       x1="122.65414"
       y1="249.14999"
       x2="344.60001"
       y2="249.14999"
       gradientUnits="userSpaceOnUse" />
    <linearGradient
       inkscape:collect="always"
       xlink:href="#ab"
       id="linearGradient4498"
       gradientUnits="userSpaceOnUse"
       x1="135.46001"
       y1="391.13"
       x2="298.23999"
       y2="391.13" />
  </defs>
  <sodipodi:namedview
     id="base"
     pagecolor="#ffffff"
     bordercolor="#666666"
     borderopacity="1.0"
     inkscape:pageopacity="0.0"
     inkscape:pageshadow="2"
     inkscape:zoom="0.97258583"
     inkscape:cx="148.86895"
     inkscape:cy="261.29028"
     inkscape:document-units="px"
     inkscape:current-layer="g4425"
     inkscape:document-rotation="0"
     showgrid="false"
     inkscape:window-width="1920"
     inkscape:window-height="968"
     inkscape:window-x="1440"
     inkscape:window-y="25"
     inkscape:window-maximized="0"
     showguides="true"
     inkscape:guide-bbox="true" />
  <metadata
     id="metadata1458">
    <rdf:RDF>
      <cc:Work
         rdf:about="">
        <dc:format>image/svg+xml</dc:format>
        <dc:type
           rdf:resource="http://purl.org/dc/dcmitype/StillImage" />
        <dc:title />
      </cc:Work>
    </rdf:RDF>
  </metadata>
  <g
     inkscape:label="Layer 1"
     inkscape:groupmode="layer"
     id="layer1"
     transform="translate(-190.7199,-179.58304)">
    <g
       id="g1096"
       transform="matrix(3.7795752,0,0,3.7795752,190.84424,179.20545)">
      <g
         id="g4425"
         style="fill:#00c800;fill-opacity:1"
         transform="matrix(0.08078895,0,0,0.08078895,5.9770141,4.5058101)">
        <g
           id="g936"
           transform="matrix(10,0,0,10,669.51246,490.82413)">
          <path
             inkscape:connector-curvature="0"
             id="path4377"
             d="m -57.107307,74.177506 c -2.747724,-1.27655 -12.881216,-6.3855 -15.487578,-7.80828 l -1.795387,-0.98008 1.984375,-0.91051 c 4.070252,-1.8676 5.193964,-2.49267 5.255319,-2.92329 0.03198,-0.22445 -0.545018,-2.17911 -1.282222,-4.34369 -4.612185,-13.542301 -5.280751,-25.495445 -2.16801,-38.761373 2.173699,-9.2639123 7.760287,-20.3596063 12.714292,-25.2522523 l 1.312926,-1.296662 3.092402,2.218238 c 3.205594,2.299427 5.175391,3.873151 5.687906,4.544221 0.282043,0.36929997 0.227881,0.48132197 -1.050837,2.17336197 -2.500365,3.30856403 -4.116964,5.92464203 -5.890577,9.53250633 -2.113169,4.298574 -2.666754,5.828514 -3.881435,10.727063 -1.372055,5.533207 -1.568598,7.220215 -1.557539,13.36892 0.01262,7.017083 0.528662,10.380974 2.550938,16.628727 1.393254,4.30442 2.057924,5.67187 2.7569,5.67187 0.155962,0 1.768325,-0.5998 3.583028,-1.33288 1.814703,-0.73307 3.340155,-1.29217 3.389893,-1.24243 0.129191,0.12919 -0.226077,1.31768 -3.086051,10.32382 -3.436554,10.82179 -3.275298,10.34078 -3.540403,10.5608 -0.169177,0.1404 -0.894305,-0.11123 -2.58794,-0.89808 z"
             style="fill:#00b400;fill-opacity:1;stroke:none;stroke-width:0.188988" />
          <path
             inkscape:connector-curvature="0"
             id="path4379"
             d="M 26.391958,-10.428435 C 18.085857,-16.620362 7.9467645,-20.544549 -1.7553665,-21.32244 c -3.932494,-0.315298 -10.7987985,-0.110045 -13.4556095,0.402223 -4.912156,0.947131 -11.919937,3.035265 -13.07465,3.895905 -0.873633,0.651142 -0.909664,1.005025 -0.258188,2.535967 0.316878,0.744654 0.576143,1.437529 0.576143,1.539727 0,0.260504 -0.942226,0.08786 -5.858632,-1.073465 -5.099767,-1.204642 -6.191842,-1.438881 -10.083948,-2.162886 -1.648291,-0.306613 -3.026547,-0.587135 -3.062793,-0.623377 -0.190651,-0.190651 6.662333,-14.179597 8.526659,-17.405405 l 0.745826,-1.290492 1.606399,3.269967 c 1.066824,2.171613 1.778074,3.392937 2.117505,3.636066 l 0.511106,0.366098 2.229221,-0.86301 c 8.080838,-3.128377 15.674128,-4.492193 24.9853915,-4.487576 6.03313004,0.003 10.919664,0.601554 16.213514,1.986023 6.5567135,1.714738 11.7424575,3.842934 17.1180005,7.025123 4.42152,2.617425 9.39669,6.202026 9.39669,6.770296 0,0.426794 -2.11916,2.985947 -6.99256,8.4444067 l -0.66146,0.740868 z"
             style="fill:#00b400;fill-opacity:1;stroke:none;stroke-width:0.188988" />
          <path
             inkscape:connector-curvature="0"
             id="path4385"
             d="m 44.981728,73.434436 c -0.67563,-0.48504 -2.78031,-2.01925 -4.67708,-3.40934 -3.23085,-2.36781 -3.43514,-2.55346 -3.23469,-2.93953 0.11769,-0.22666 1.00237,-1.60273 1.96597,-3.05794 3.58595,-5.41544 7.49547,-12.80821 9.59451,-18.14285 3.357,-8.531768 4.82386,-15.608608 6.4635,-31.183038 1.69804,-16.1292813 2.61854,-21.8025433 4.75119,-29.282761 2.29172,-8.038174 5.25071,-15.108445 9.52122,-22.750191 0.94823,-1.696771 1.76804,-3.356129 1.8218,-3.687464 0.12539,-0.77266 0.0315,-0.854596 -3.23704,-2.824461 -1.44803,-0.872695 -2.66073,-1.670564 -2.69489,-1.77304 -0.13313,-0.399378 19.94868,-9.229505 20.26674,-8.911447 0.0935,0.09347 2.63546,13.963304 3.42925,18.710974 0.29005,1.734825 0.46411,3.217484 0.3868,3.294798 -0.0773,0.07731 -1.52846,-0.569854 -3.22477,-1.438148 -1.79826,-0.920475 -3.207,-1.531594 -3.37871,-1.465699 -0.70551,0.270727 -4.65722,7.50264 -7.03005,12.865488 -4.51462,10.203484 -6.1356,17.4647267 -8.23391,36.883975 -1.94658,18.015058 -3.11885,24.067299 -6.50673,33.593224 -2.116,5.9497 -4.73028,11.46247 -8.04334,16.96109 -2.99076,4.9637 -6.08828,9.45569 -6.51216,9.44384 -0.10955,-0.003 -0.75197,-0.40243 -1.42761,-0.88748 z"
             style="fill:#00b400;fill-opacity:1;stroke:none;stroke-width:0.188988" />
          <path
             inkscape:connector-curvature="0"
             id="path4387"
             d="m 26.038088,100.78044 c -1.117776,-2.547784 -2.689975,-5.539104 -3.015484,-5.737374 -0.348829,-0.21246 -0.386538,-0.20176 -4.593698,1.30335 -4.663948,1.66853 -9.1979785,2.73847 -14.5520845,3.43402 -2.093007,0.271904 -3.90943496,0.342194 -8.693451,0.336414 -5.3217815,-0.006 -6.3765165,-0.0586 -8.7879475,-0.434414 -10.557322,-1.64549 -19.338369,-4.96898 -27.403274,-10.37174 -4.033544,-2.70211 -6.331101,-4.52455 -6.331101,-5.0219 0,-0.33859 4.087625,-5.32655 6.269321,-7.6502 l 1.290203,-1.37414 1.984375,1.46218 c 7.002106,5.15951 14.245429,8.49606 22.226088,10.2382 3.342097,0.72956 5.046641,0.92969 9.1459365,1.07379 6.11676104,0.21503 10.186042,-0.22385 16.049992,-1.73101 2.5128305,-0.64585 7.1929925,-2.26781 7.7625085,-2.69018 0.795866,-0.59023 0.708628,-1.26676 -0.554062,-4.2967 -0.630007,-1.51175 -1.200605,-2.96834 -1.267997,-3.23685 -0.156472,-0.62343 -0.885992,-0.81292 9.287087,2.41223 11.466138,3.63508 11.718058,3.73124 11.513108,4.39459 -0.39869,1.29043 -8.57938,17.676924 -9.43418,18.897314 -0.26673,0.38081 -0.30521,0.33749 -0.89534,-1.00758 z"
             style="fill:#00b400;fill-opacity:1;stroke:none;stroke-width:0.188988" />
          <g
             id="g3629"
             transform="matrix(0.25521028,0.08660056,-0.08660045,0.25520998,-45.167292,-55.661302)">
            <path
               d="M -25.9,20.8"
               fill="url(#t)"
               id="path2685"
               style="fill:url(#t)" />
            <path
               d="m 179.4,354.4 c -26.4,18.2 -43.9,31.4 -43.9,49.9 0,8.4 0,16.2 -0.1,23.5 -0.5,1.2 -0.9,2.3 -1.4,3.6 -3.4,-75.6 -10.3,-113.3 -11,-125.7 -2.7,-50.7 15.4,-118 76.3,-142.3 -23.9,55 -44.3,119.2 -19.9,191 z"
               fill="url(#u)"
               id="path2692"
               style="fill:url(#u)" />
            <path
               d="m 234.5,314.4 c -20.3,16.6 -39.3,29.2 -55,40 -24.5,-71.8 -4.1,-136 19.9,-191 6.2,-2.5 12.8,-4.5 19.9,-6 6.5,-1.4 12.8,-3.1 18.9,-5 -15.7,40.3 -22.1,109.7 -3.7,162 z"
               fill="url(#v)"
               id="path2699"
               style="fill:url(#v)" />
            <path
               d="m 269.8,282.1 -0.6,0.6 c -11.8,12 -23.5,22.4 -34.8,31.6 -18.4,-52.3 -11.9,-121.6 3.7,-162 24.2,-7.6 45,-19.1 61.8,-31.6 4.1,38.6 6.6,122.6 -30.1,161.4 z"
               fill="url(#w)"
               id="path2706"
               style="fill:url(#w)" />
            <path
               d="m 345.2,65.9 c -1.9,50.7 -11.1,139.9 -49.8,187.6 -8.5,10.4 -17,19.9 -25.5,28.6 36.6,-38.8 34.1,-122.8 30.1,-161.3 25.1,-18.9 41,-40.2 45.2,-54.9 z"
               fill="url(#x)"
               id="path2713"
               style="fill:url(#x)" />
            <path
               d="M 393.1,182.4 C 355.3,284.3 269.3,282.8 269.3,282.8 l 0.6,-0.6 c 8.5,-8.7 17,-18.1 25.5,-28.6 38.8,-47.7 47.9,-136.9 49.8,-187.6 0.6,-2.2 1,-4.2 1.1,-6.1 7.2,8 36,61.5 46.8,122.5 z"
               fill="url(#y)"
               id="path2720"
               style="fill:url(#y)" />
            <path
               d="m 368.7,317.4 c -57,9.8 -134.2,-3.1 -134.2,-3.1 11.3,-9.2 23,-19.6 34.8,-31.6 0,0 86,1.5 123.8,-100.4 8.2,46.4 5.9,97 -24.4,135.1 z"
               fill="url(#z)"
               id="path2727"
               style="fill:url(#z)" />
            <path
               d="m 368.7,317.4 c -9.2,11.6 -21.1,22.1 -36.1,30.9 -12.3,6.9 -23.7,12.8 -34.4,17.9 -61.1,3.7 -118.8,-11.8 -118.8,-11.8 15.8,-10.8 34.7,-23.5 55,-40 0.1,0 77.3,12.9 134.3,3 z"
               fill="url(#aa)"
               id="path2734"
               style="fill:url(#aa)" />
            <path
               d="m 298.2,366.2 c -115.4,54.9 -143.3,12.5 -162.8,61.6 0,-7.3 0.1,-15.1 0.1,-23.5 0,-18.5 17.5,-31.7 43.9,-49.9 0,0 57.7,15.5 118.8,11.8 z"
               fill="url(#ab)"
               id="path2741"
               style="fill:url(#linearGradient4498)" />
            <path
               d="m 295.1,254 c 38.8,-47.7 47.5,-136.9 49.5,-187.6 -7.8,26.9 -54.4,76.2 -125.5,91.4 -76.9,16.5 -99.1,92.5 -96.2,148.4 0.7,12.4 7.6,50.1 11,125.7 0.5,-1.3 0.9,-2.5 1.4,-3.6 0,-7.3 0.1,-15.1 0.1,-23.5 -0.2,-40.2 82,-55.3 159.7,-150.8 z"
               fill="url(#o)"
               opacity="0.44"
               id="path2748"
               style="fill:url(#linearGradient3872);fill-opacity:1" />
            <path
               d="m 345.8,61 c -0.1,1.9 -0.5,3.9 -1.1,6.1 C 342.8,117.8 333.6,207 294.9,254.7 217.2,350.1 135,365.2 135,405.4 c 0,8.4 0,16.2 -0.1,23.5 21.2,-53.7 52.6,1.9 197.1,-79.5 C 460.5,273.9 360,76.9 345.8,61 Z"
               fill="url(#p)"
               id="path2755"
               style="fill:url(#p)" />
            <path
               d="m 297.7,256 c 38.8,-47.7 46.4,-139.3 48.4,-189.9 0.6,-2.2 0.3,-4.2 0.4,-6 0,0 0,-0.1 -0.1,-0.1 -0.1,1.9 -0.5,3.9 -1.1,6.1 -1.9,50.7 -11.5,139.9 -50.2,187.6 -77.6,95.5 -159.8,110.6 -159.8,150.8 0,8.4 0,16.2 -0.1,23.5 0,-7.3 0,-17.2 3,-25.2 18.4,-48.7 81.9,-51.3 159.5,-146.8 z"
               fill="url(#q)"
               id="path2764"
               style="fill:url(#q)" />
            <path
               d="m 135.1,428 c 12.6,-31.8 28.8,-25.2 70,-31.6 -41.5,4.3 -58.6,-3.2 -70,31.6 z"
               fill="url(#r)"
               id="path2773"
               style="fill:url(#r)" />
            <path
               d="M 224.8,159.6 C 296,144.4 337.5,92.7 345.3,65.8 c -7.8,26.9 -54.8,76.2 -125.9,91.4 -76.9,16.5 -99.1,92.5 -96.2,148.4 0.7,12.4 7.6,50.1 11,125.7 -3.4,-75.6 -4.9,-111 -5.5,-123.4 -3,-55.8 19.1,-131.9 96.1,-148.3 z"
               fill="url(#s)"
               id="path2782"
               style="fill:url(#s)" />
          </g>
        </g>
      </g>
      <g
         id="text1077"
         style="font-style:normal;font-variant:normal;font-weight:normal;font-stretch:normal;font-size:10.5833px;line-height:1.25;font-family:MuseoModerno;-inkscape-font-specification:MuseoModerno;stroke-width:0.264583" />
    </g>
  </g>
</svg>
