<svg xmlns:dc="http://purl.org/dc/elements/1.1/" xmlns:cc="http://creativecommons.org/ns#" xmlns:rdf="http://www.w3.org/1999/02/22-rdf-syntax-ns#" xmlns:svg="http://www.w3.org/2000/svg" xmlns="http://www.w3.org/2000/svg" xmlns:sodipodi="http://sodipodi.sourceforge.net/DTD/sodipodi-0.dtd" xmlns:inkscape="http://www.inkscape.org/namespaces/inkscape" id="Layer_1" x="0px" y="0px" width="735.45099" height="629.49799" viewBox="0 0 735.45103 629.49798" sodipodi:docname="email-4284157.svg" inkscape:version="1.0.2 (e86c8708, 2021-01-15)"><metadata></metadata><defs id="defs726"></defs><g id="g721" transform="translate(-144.269,-98.546997)"><g id="g212"><g id="g122"><g id="g120"><rect x="144.269" y="98.546997" fill="#ffffff" width="402.04099" height="531.66699" id="rect118" style="fill:#ffffff"></rect></g></g><g id="g128"><g id="g126"><rect x="144.269" y="555.99799" fill="#b2e2ef" width="402.04099" height="4.8499999" id="rect124"></rect></g></g><g id="g142"><g id="g132"><polygon fill="#ffdb77" points="210.65,479.311 238.791,487.931 291.189,429.859 336.65,459.013 360.567,437.801 397.702,454.46 461.987,404.261 497.735,420.585 546.31,369.796 546.31,547.996 144.269,547.996 144.269,469.608 171.666,494.326 " id="polygon130"></polygon></g><g id="g136"><polygon fill="#b2e2ef" points="209.343,487.267 239.231,498.752 290.527,474.013 332.75,488.145 360.567,464.717 393.153,497.859 454.224,458.883 498.054,441.506 546.31,466.064 546.31,547.996 144.269,547.996 144.269,523.476 172.973,510.229 " id="polygon134"></polygon></g><g id="g140"><polygon fill="#f69070" points="209.343,512.873 239.897,512.42 287.953,494.75 334.698,518.627 356.966,479.311 393.153,508.447 454.868,492.558 497.735,471.355 546.31,484.311 546.31,547.996 144.269,547.996 144.269,529.649 170.379,535.411 " id="polygon138"></polygon></g></g><g id="g146"><rect x="188.987" y="253.911" fill="#f69070" width="92.103996" height="5.4510002" id="rect144"></rect></g><g id="g150"><rect x="188.987" y="241.429" fill="#f69070" width="306.61401" height="5.461" id="rect148"></rect></g><g id="g154"><rect x="188.987" y="228.94901" fill="#f69070" width="306.61401" height="5.4619999" id="rect152"></rect></g><g id="g158"><rect x="188.987" y="216.495" fill="#f69070" width="306.61401" height="5.4330001" id="rect156"></rect></g><g id="g162"><rect x="188.987" y="385.42401" fill="#f69070" width="193.265" height="5.4510002" id="rect160"></rect></g><g id="g166"><rect x="188.987" y="372.95401" fill="#f69070" width="306.61401" height="5.4400001" id="rect164"></rect></g><g id="g170"><rect x="188.987" y="360.48001" fill="#f69070" width="306.61401" height="5.4510002" id="rect168"></rect></g><g id="g174"><rect x="188.987" y="317.00299" fill="#f69070" width="112.181" height="5.4400001" id="rect172"></rect></g><g id="g178"><rect x="188.987" y="304.51999" fill="#f69070" width="306.61401" height="5.4619999" id="rect176"></rect></g><g id="g182"><rect x="188.987" y="292.07001" fill="#f69070" width="306.61401" height="5.4109998" id="rect180"></rect></g><g id="g186"><rect x="294.026" y="158.929" fill="#b2e2ef" width="96.552002" height="13.214" id="rect184"></rect></g><g id="g190"><rect x="196.187" y="589.58197" fill="#f69070" width="74.487999" height="7.9780002" id="rect188"></rect></g><g id="g194"><rect x="169.85699" y="585.60797" fill="#ffdb77" width="15.95" height="15.942" id="rect192"></rect></g><g id="g198"><rect x="321.22299" y="589.58197" fill="#f69070" width="74.444" height="7.9780002" id="rect196"></rect></g><g id="g202"><rect x="294.87201" y="585.60797" fill="#b2e2ef" width="15.933" height="15.942" id="rect200"></rect></g><g id="g206"><rect x="445.23099" y="589.31299" fill="#f69070" width="74.505997" height="7.9850001" id="rect204"></rect></g><g id="g210"><rect x="418.92001" y="585.33899" fill="#f69070" width="15.934" height="15.941" id="rect208"></rect></g></g><g id="g216"><path fill="#ffffff" d="m 286.746,703.044 v 12.512 c 0,6.905 5.45,12.489 12.208,12.489 h 479.183 c 6.759,0 12.211,-5.584 12.211,-12.489 v -12.512 z" id="path214"></path></g><path fill="#686969" d="M 767.053,703.044 V 438.67 c 0,-14.686 -11.646,-26.633 -26.005,-26.633 H 336.066 c -14.381,0 -26.049,11.947 -26.049,26.633 v 264.374" id="path218"></path><g id="g222"><rect x="332.728" y="437.27701" fill="#e6e6e5" width="411.63599" height="245.327" id="rect220"></rect></g><g id="g226"><path fill="#ffffff" d="m 545.263,424.78 c 0,3.81 -2.996,6.887 -6.718,6.887 -3.699,0 -6.717,-3.077 -6.717,-6.887 0,-3.793 3.018,-6.872 6.717,-6.872 3.722,0 6.718,3.079 6.718,6.872 z" id="path224"></path></g><g id="g230"><rect x="332.728" y="437.27701" fill="#bbc0c4" width="411.63599" height="20.601" id="rect228"></rect></g><g id="g234"><path fill="#f69070" d="m 352.36,447.58 c 0,3.097 -2.453,5.631 -5.489,5.631 -3.041,0 -5.513,-2.534 -5.513,-5.631 0,-3.116 2.472,-5.649 5.513,-5.649 3.036,0 5.489,2.533 5.489,5.649 z" id="path232"></path></g><g id="g238"><path fill="#ffdb77" d="m 371.469,447.58 c 0,3.097 -2.453,5.631 -5.511,5.631 -3.037,0 -5.511,-2.534 -5.511,-5.631 0,-3.116 2.474,-5.649 5.511,-5.649 3.058,0 5.511,2.533 5.511,5.649 z" id="path236"></path></g><g id="g242"><path fill="#b2e2ef" d="m 390.539,447.58 c 0,3.097 -2.453,5.631 -5.473,5.631 -3.056,0 -5.532,-2.534 -5.532,-5.631 0,-3.116 2.476,-5.649 5.532,-5.649 3.02,0 5.473,2.533 5.473,5.649 z" id="path240"></path></g><g id="g278"><path fill="#333333" d="m 731.15,447.58 3.982,-4.103 c 0.582,-0.564 0.582,-1.521 0,-2.125 -0.563,-0.581 -1.51,-0.581 -2.093,0 l -3.982,4.095 -3.981,-4.095 c -0.588,-0.581 -1.508,-0.581 -2.093,0 -0.583,0.604 -0.583,1.561 0,2.125 l 4.001,4.103 -4.001,4.081 c -0.583,0.573 -0.583,1.55 0,2.135 0.585,0.604 1.505,0.604 2.093,0 l 3.981,-4.082 3.982,4.082 c 0.583,0.604 1.529,0.604 2.093,0 0.582,-0.585 0.582,-1.562 0,-2.135 z" id="path276"></path></g><g id="g410"><g id="g282"><path fill="#d9dee6" d="m 700.333,604.786 c 0,3.553 -2.896,6.422 -6.435,6.422 H 489.927 c -3.561,0 -6.417,-2.869 -6.417,-6.422 V 476.242 c 0,-3.537 2.857,-6.416 6.417,-6.416 h 203.971 c 3.539,0 6.435,2.879 6.435,6.416 z" id="path280"></path></g><g id="g286"><path fill="#333333" d="m 700.333,604.786 c 0,3.553 -2.896,6.422 -6.435,6.422 H 489.927 c -3.561,0 -6.417,-2.869 -6.417,-6.422 V 476.242 c 0,-3.537 2.857,-6.416 6.417,-6.416 h 203.971 c 3.539,0 6.435,2.879 6.435,6.416 z" id="path284"></path></g><g id="g396"><g id="g290"><path fill="none" d="m 489.927,469.826 c -3.561,0 -6.435,2.879 -6.435,6.416 v 10.038 l 16.474,-16.454 z" id="path288"></path></g><g id="g294"><polygon fill="none" points="537.882,469.826 483.492,524.217 483.492,538.44 552.125,469.826 " id="polygon292"></polygon></g><g id="g298"><polygon fill="none" points="541.143,611.208 682.529,469.826 668.289,469.826 526.898,611.208 " id="polygon296"></polygon></g><g id="g302"><polygon fill="none" points="511.833,469.826 483.492,498.128 483.492,512.368 526.033,469.826 " id="polygon300"></polygon></g><g id="g306"><polygon fill="none" points="656.442,469.826 642.198,469.826 500.829,611.208 515.071,611.208 " id="polygon304"></polygon></g><g id="g310"><polygon fill="none" points="619.37,611.208 700.333,530.254 700.333,516.028 605.148,611.208 " id="polygon308"></polygon></g><g id="g314"><path fill="none" d="M 567.208,611.208 700.333,478.116 v -1.874 c 0,-3.376 -2.655,-6.146 -5.996,-6.372 L 552.989,611.208 Z" id="path312"></path></g><g id="g318"><polygon fill="none" points="671.53,611.208 700.333,582.431 700.333,568.189 657.305,611.208 " id="polygon316"></polygon></g><g id="g322"><path fill="none" d="m 616.132,469.826 -132.64,132.638 v 2.322 c 0,3.25 2.432,5.914 5.59,6.336 L 630.353,469.826 Z" id="path320"></path></g><g id="g326"><path fill="none" d="m 693.898,611.208 c 3.539,0 6.435,-2.869 6.435,-6.422 v -10.509 l -16.936,16.931 z" id="path324"></path></g><g id="g330"><polygon fill="none" points="645.457,611.208 700.333,556.344 700.333,542.121 631.215,611.208 " id="polygon328"></polygon></g><g id="g334"><polygon fill="none" points="590.042,469.826 483.492,576.388 483.492,590.597 604.282,469.826 " id="polygon332"></polygon></g><g id="g338"><polygon fill="none" points="563.972,469.826 483.492,550.309 483.492,564.532 578.193,469.826 " id="polygon336"></polygon></g><g id="g342"><polygon fill="none" points="593.302,611.208 700.333,504.184 700.333,489.962 579.06,611.208 " id="polygon340"></polygon></g><g id="g346"><polygon fill="#f69070" points="499.966,469.826 483.492,486.28 483.492,498.128 511.833,469.826 " id="polygon344"></polygon></g><g id="g350"><polygon fill="#b2e2ef" points="526.033,469.826 483.492,512.368 483.492,524.217 537.882,469.826 " id="polygon348"></polygon></g><g id="g354"><polygon fill="#f69070" points="552.125,469.826 483.492,538.44 483.492,550.309 563.972,469.826 " id="polygon352"></polygon></g><g id="g358"><polygon fill="#b2e2ef" points="578.193,469.826 483.492,564.532 483.492,576.388 590.042,469.826 " id="polygon356"></polygon></g><g id="g362"><polygon fill="#f69070" points="604.282,469.826 483.492,590.597 483.492,602.464 616.132,469.826 " id="polygon360"></polygon></g><g id="g366"><path fill="#b2e2ef" d="m 630.353,469.826 -141.27,141.296 c 0.261,0.051 0.544,0.086 0.845,0.086 h 10.901 l 141.37,-141.382 z" id="path364"></path></g><g id="g370"><polygon fill="#f69070" points="526.898,611.208 668.289,469.826 656.442,469.826 515.071,611.208 " id="polygon368"></polygon></g><g id="g374"><path fill="#b2e2ef" d="M 552.989,611.208 694.338,469.87 c -0.164,-0.024 -0.303,-0.044 -0.439,-0.044 H 682.53 L 541.143,611.208 Z" id="path372"></path></g><g id="g378"><polygon fill="#f69070" points="579.06,611.208 700.333,489.962 700.333,478.116 567.208,611.208 " id="polygon376"></polygon></g><g id="g382"><polygon fill="#b2e2ef" points="605.148,611.208 700.333,516.028 700.333,504.184 593.302,611.208 " id="polygon380"></polygon></g><g id="g386"><polygon fill="#f69070" points="631.215,611.208 700.333,542.121 700.333,530.254 619.37,611.208 " id="polygon384"></polygon></g><g id="g390"><polygon fill="#b2e2ef" points="657.305,611.208 700.333,568.189 700.333,556.344 645.457,611.208 " id="polygon388"></polygon></g><g id="g394"><polygon fill="#f69070" points="683.397,611.208 700.333,594.277 700.333,582.431 671.53,611.208 " id="polygon392"></polygon></g></g><g id="g400"><rect x="492.76401" y="478.17099" fill="#ffffff" width="198.29601" height="124.687" id="rect398"></rect></g><g id="g404"><rect x="505.92099" y="489.96201" fill="#bbc0c4" width="51.032001" height="22.406" id="rect402"></rect></g><g id="g408"><rect x="639.68402" y="485.13501" fill="#f3f3f3" width="42.846001" height="49.863998" id="rect406"></rect></g></g><g id="g432"><g id="g414"><rect x="372.39401" y="536.20599" fill="#ffffff" width="214.731" height="129.68201" id="rect412"></rect></g><g id="g418"><polygon fill="#f3f3f3" points="372.394,665.888 372.394,536.206 480.352,598.222 " id="polygon416"></polygon></g><g id="g422"><polygon fill="#f3f3f3" points="587.125,665.888 587.125,536.206 479.187,598.222 " id="polygon420"></polygon></g><g id="g426"><polygon fill="#bbc0c4" points="372.394,536.206 587.125,536.206 480.211,617.915 " id="polygon424"></polygon></g><g id="g430"><polygon fill="#ffffff" points="372.394,536.206 587.125,536.206 480.151,597.075 " id="polygon428"></polygon></g></g><g id="g719"><g id="XMLID_1507_"><g id="XMLID_1508_"><g id="XMLID_1511_"><path fill-rule="evenodd" clip-rule="evenodd" fill="#333237" d="m 797.588,521.365 h 60.736 c 11.771,0 21.396,9.633 21.396,21.394 V 704.02 c 0,11.763 -9.625,21.384 -21.396,21.384 h -60.736 c -11.767,0 -21.386,-9.621 -21.386,-21.384 V 542.759 c 0,-11.761 9.619,-21.394 21.386,-21.394 z" id="path578"></path></g><g id="XMLID_1510_"><path fill-rule="evenodd" clip-rule="evenodd" fill="#ffffff" d="m 785.606,538.483 h 84.703 c 0.162,0 0.302,0.13 0.302,0.303 v 167.498 c 0,0.164 -0.14,0.298 -0.302,0.298 h -84.703 c -0.166,0 -0.301,-0.134 -0.301,-0.298 V 538.786 c 0.001,-0.173 0.135,-0.303 0.301,-0.303 z" id="path581"></path></g><g id="XMLID_1509_"><path fill-rule="evenodd" clip-rule="evenodd" fill="#ffffff" d="m 827.958,720.931 c 2.88,0 5.229,-2.351 5.229,-5.229 0,-2.884 -2.349,-5.229 -5.229,-5.229 -2.88,0 -5.227,2.345 -5.227,5.229 0,2.878 2.347,5.229 5.227,5.229 z" id="path584"></path></g></g></g><g id="XMLID_1502_" opacity="0.5"><g id="XMLID_1506_"><path fill-rule="evenodd" clip-rule="evenodd" fill="#333333" d="m 843.286,564.604 c 0,8.462 -6.856,15.327 -15.328,15.327 -8.458,0 -15.327,-6.865 -15.327,-15.327 0,-8.467 6.869,-15.327 15.327,-15.327 8.472,0 15.328,6.861 15.328,15.327 z" id="path589"></path></g><g id="XMLID_1503_"><g id="XMLID_1505_"><path fill-rule="evenodd" clip-rule="evenodd" fill="#e1e5eb" d="m 836.618,572.562 c 0,-0.014 0,-0.035 0,-0.055 0,-2.093 -0.753,-4.02 -1.999,-5.518 -1.883,-0.777 -4.184,-1.231 -6.661,-1.231 -2.477,0 -4.77,0.454 -6.661,1.231 -1.246,1.498 -1.997,3.425 -1.997,5.518 0,0.02 0,0.041 0,0.055 z" id="path592"></path></g><g id="XMLID_1504_"><path fill-rule="evenodd" clip-rule="evenodd" fill="#e1e5eb" d="m 832.125,560.817 c 0,2.305 -1.863,4.175 -4.167,4.175 -2.302,0 -4.166,-1.87 -4.166,-4.175 0,-2.301 1.864,-4.171 4.166,-4.171 2.304,0 4.167,1.871 4.167,4.171 z" id="path595"></path></g></g></g><g id="XMLID_1497_"><g id="XMLID_1501_"><rect x="792.75403" y="585.10999" fill-rule="evenodd" clip-rule="evenodd" fill="#e1e5eb" width="54.285999" height="12.188" id="rect600"></rect></g><g id="XMLID_1500_"><rect x="794.18103" y="586.52698" fill-rule="evenodd" clip-rule="evenodd" fill="#ffffff" width="51.438" height="9.3520002" id="rect603"></rect></g><g id="XMLID_1499_"><rect x="847.99103" y="585.10999" fill-rule="evenodd" clip-rule="evenodd" fill="#e1e5eb" width="15.171" height="12.188" id="rect606"></rect></g><g id="XMLID_1498_"><rect x="849.40802" y="586.52698" fill-rule="evenodd" clip-rule="evenodd" fill="#255dab" width="12.327" height="9.3520002" id="rect609"></rect></g></g><g id="XMLID_1488_"><g id="XMLID_1491_"><g id="XMLID_1492_"><path fill="#ffffff" d="m 857.425,589.845 c 0.15,1.6 -1.025,3.022 -2.628,3.172 -1.6,0.151 -3.023,-1.016 -3.176,-2.62 -0.156,-1.6 1.024,-3.031 2.622,-3.182 1.607,-0.152 3.029,1.021 3.182,2.63 z m -4.666,0.44 c 0.096,0.979 0.953,1.686 1.929,1.596 0.974,-0.095 1.692,-0.958 1.597,-1.932 -0.093,-0.97 -0.958,-1.688 -1.936,-1.594 -0.965,0.093 -1.681,0.96 -1.59,1.93 z" id="path613"></path></g></g><g id="XMLID_1489_"><g id="XMLID_1490_"><path fill="#ffffff" d="m 859.537,594.579 c 0.021,0.163 -0.036,0.337 -0.167,0.461 -0.228,0.223 -0.593,0.22 -0.813,-0.008 l -2.6,-2.646 c -0.215,-0.229 -0.215,-0.591 0.007,-0.808 0.228,-0.229 0.594,-0.224 0.816,10e-4 l 2.598,2.646 c 0.094,0.102 0.145,0.221 0.159,0.354 z" id="path617"></path></g></g></g><g id="g713"><g id="g655"><g id="XMLID_1479_"><g id="XMLID_1487_"><path fill-rule="evenodd" clip-rule="evenodd" fill="#f69070" d="m 811.013,629.194 c 6.196,0 11.252,-5.055 11.252,-11.244 0,-6.2 -5.056,-11.253 -11.252,-11.253 -6.199,0 -11.247,5.053 -11.247,11.253 0,6.19 5.047,11.244 11.247,11.244 z" id="path622"></path></g><g id="XMLID_1480_"><g id="XMLID_1486_"><polygon fill-rule="evenodd" clip-rule="evenodd" fill="#cfcfce" points="818.033,615.028 811.013,620.085 804.001,615.028 811.013,609.963 " id="polygon625"></polygon></g><g id="XMLID_1485_"><polygon fill-rule="evenodd" clip-rule="evenodd" fill="#eae9e8" points="804.001,615.028 804.001,623.307 818.033,623.307 818.033,615.028 811.013,620.085 " id="polygon628"></polygon></g><g id="XMLID_1484_"><polygon fill-rule="evenodd" clip-rule="evenodd" fill="#fffdfa" points="809.729,619.166 804.001,623.307 818.033,623.307 812.288,619.166 809.729,619.166 " id="polygon631"></polygon></g></g></g><g id="XMLID_1362_"><g id="XMLID_1478_"><path fill-rule="evenodd" clip-rule="evenodd" fill="#b2e2ef" d="m 811.013,658.839 c 6.196,0 11.252,-5.05 11.252,-11.244 0,-6.195 -5.056,-11.253 -11.252,-11.253 -6.199,0 -11.247,5.058 -11.247,11.253 0,6.194 5.047,11.244 11.247,11.244 z" id="path636"></path></g><g id="XMLID_1364_"><g id="XMLID_1366_"><path fill="#fffdfa" d="m 806.429,653.479 c 1.115,0 2.026,-0.912 2.026,-2.032 v 0 -7.529 h 6.527 v 3.749 c -0.238,-0.093 -0.496,-0.143 -0.756,-0.143 -1.121,0 -2.033,0.911 -2.033,2.027 0,1.117 0.912,2.034 2.033,2.034 1.111,0 2.029,-0.917 2.029,-2.034 v 0 0 -5.634 -2.549 h -1.273 -6.527 -1.276 v 2.549 5.646 c -0.228,-0.089 -0.479,-0.149 -0.75,-0.149 -1.12,0 -2.026,0.914 -2.026,2.032 -10e-4,1.12 0.906,2.033 2.026,2.033 z" id="path639"></path></g></g></g><g id="XMLID_1349_"><g id="XMLID_1360_"><path fill-rule="evenodd" clip-rule="evenodd" fill="#f69070" d="m 811.013,688.491 c 6.196,0 11.252,-5.058 11.252,-11.252 0,-6.196 -5.056,-11.245 -11.252,-11.245 -6.199,0 -11.247,5.049 -11.247,11.245 0,6.195 5.047,11.252 11.247,11.252 z" id="path644"></path></g><g id="XMLID_1351_"><g id="XMLID_1357_"><path fill="#ffffff" d="m 813.919,683.504 c -0.257,0.248 -0.673,0.248 -0.933,0 l -0.234,-0.242 c -0.248,-0.257 -0.757,-0.462 -1.115,-0.462 h -5.121 c -0.367,0 -0.762,-0.276 -0.884,-0.616 l -2.169,-6.015 c -0.28,-0.795 0.171,-1.442 1.017,-1.442 h 4.256 c 0.188,-0.616 0.085,-1.11 -0.095,-1.385 -0.267,-0.391 -0.98,-1.123 -0.844,-2.22 0.042,-0.357 0.25,-0.917 0.47,-1.208 0.642,-0.831 1.563,-0.631 1.563,0.106 0,0.885 -0.472,1.766 1.19,2.855 1.662,1.088 2.799,3.225 2.799,3.234 0,0.005 0.207,0.22 0.466,0.48 l 2.81,2.804 c 0.249,0.259 0.249,0.677 0,0.933 z" id="path647"></path></g><g id="XMLID_1355_"><polygon fill="#ffffff" points="817.778,680.484 814.02,684.246 814.888,685.106 818.649,681.344 " id="polygon650"></polygon></g></g></g></g><g id="g711"><g id="XMLID_1345_"><g id="XMLID_1348_"><path fill-rule="evenodd" clip-rule="evenodd" fill="#ffdb77" d="m 844.904,688.491 c 6.202,0 11.252,-5.058 11.252,-11.252 0,-6.196 -5.05,-11.245 -11.252,-11.245 -6.194,0 -11.245,5.049 -11.245,11.245 0,6.195 5.051,11.252 11.245,11.252 z" id="path657"></path></g><g id="XMLID_1346_"><path fill="#ffffff" d="m 851.693,680.477 c 0.202,-0.658 0.31,-1.337 0.31,-2.036 0,-3.904 -3.187,-7.096 -7.099,-7.118 -3.911,0.022 -7.09,3.214 -7.09,7.118 0,0.699 0.098,1.39 0.298,2.05 -0.093,0.058 -0.148,0.152 -0.148,0.259 v 0.383 c 0,0.179 0.143,0.319 0.316,0.319 h 0.783 v 0.692 c 0,0.815 0.956,1.473 2.145,1.486 v -5.631 c -1.039,0.013 -1.898,0.515 -2.099,1.183 -0.028,0.091 -0.046,0.191 -0.046,0.306 v 0.943 h -0.783 c -0.059,0 -0.115,0.017 -0.168,0.06 v -0.528 c 0,-0.201 0.031,-0.394 0.087,-0.583 0.137,-0.438 0.416,-0.825 0.798,-1.119 v -0.004 c 0.1,-3.179 2.714,-5.741 5.907,-5.757 3.217,0.016 5.838,2.603 5.917,5.802 0.423,0.351 0.693,0.79 0.785,1.292 0.022,0.125 0.039,0.246 0.039,0.369 v 0.485 c -0.03,-0.007 -0.073,-0.017 -0.101,-0.017 h -0.847 v -0.943 c 0,-0.067 -0.008,-0.133 -0.021,-0.188 -0.137,-0.723 -1.009,-1.267 -2.086,-1.301 v 5.624 c 1.17,-0.026 2.107,-0.675 2.107,-1.479 v -0.692 h 0.847 c 0.17,0 0.315,-0.141 0.315,-0.319 v -0.383 c 10e-4,-0.116 -0.064,-0.224 -0.166,-0.273 z" id="path660"></path></g></g><g id="XMLID_1092_"><g id="XMLID_1132_"><path fill-rule="evenodd" clip-rule="evenodd" fill="#2c7cb9" d="m 844.904,606.697 c -6.194,0 -11.245,5.053 -11.245,11.244 0,6.198 5.051,11.253 11.245,11.253 6.202,0 11.252,-5.055 11.252,-11.253 0,-6.191 -5.05,-11.244 -11.252,-11.244 z" id="path664"></path></g><g id="XMLID_1093_"><g id="XMLID_1104_"><g id="XMLID_1130_"><path fill="#ffffff" d="m 850.16,618.643 c 0,-0.008 0,-0.013 0,-0.026 v -6.049 c 0,-0.437 -0.357,-0.8 -0.801,-0.8 -0.437,0 -0.797,0.363 -0.797,0.8 v 6.049 c 0,0.014 0,0.019 0,0.026 z" id="path667"></path></g><g id="XMLID_1121_"><path fill="#ffffff" d="m 848.563,620.67 c 0,0.017 0,0.021 0,0.03 v 2.621 c 0,0.444 0.36,0.802 0.797,0.802 0.443,0 0.801,-0.357 0.801,-0.802 V 620.7 c 0,-0.01 0,-0.014 0,-0.03 z" id="path670"></path></g><g id="XMLID_1105_"><path fill="#ffffff" d="m 850.439,620.3 h -2.162 c -0.365,0 -0.66,-0.296 -0.66,-0.66 v 0 c 0,-0.366 0.295,-0.659 0.66,-0.659 h 2.162 c 0.369,0 0.667,0.293 0.667,0.659 v 0 c 0,0.364 -0.297,0.66 -0.667,0.66 z" id="path673"></path></g></g><g id="XMLID_1098_"><g id="XMLID_1101_"><path fill="#ffffff" d="m 845.728,615.056 c 0,-0.005 0,-0.013 0,-0.026 v -2.462 c 0,-0.437 -0.357,-0.8 -0.804,-0.8 -0.437,0 -0.792,0.363 -0.792,0.8 v 2.462 c 0,0.014 0,0.021 0,0.026 z" id="path677"></path></g><g id="XMLID_1100_"><path fill="#ffffff" d="m 844.132,617.089 c 0,0.013 0,0.02 0,0.03 v 6.202 c 0,0.444 0.355,0.802 0.792,0.802 0.446,0 0.804,-0.357 0.804,-0.802 v -6.202 c 0,-0.011 0,-0.018 0,-0.03 z" id="path680"></path></g><g id="XMLID_1099_"><path fill="#ffffff" d="m 846.014,616.718 h -2.171 c -0.356,0 -0.65,-0.293 -0.65,-0.66 v 0 c 0,-0.364 0.294,-0.658 0.65,-0.658 h 2.171 c 0.365,0 0.659,0.294 0.659,0.658 v 0 c 0,0.367 -0.294,0.66 -0.659,0.66 z" id="path683"></path></g></g><g id="XMLID_1094_"><g id="XMLID_1097_"><path fill="#ffffff" d="m 841.243,617.112 c 0,-0.011 0.007,-0.023 0.007,-0.029 v -4.516 c 0,-0.437 -0.357,-0.8 -0.794,-0.8 -0.454,0 -0.808,0.363 -0.808,0.8 v 4.516 c 0,0.006 0,0.019 0,0.029 z" id="path687"></path></g><g id="XMLID_1096_"><path fill="#ffffff" d="m 839.648,619.138 c 0,0.008 0,0.015 0,0.022 v 4.161 c 0,0.444 0.354,0.802 0.808,0.802 0.437,0 0.794,-0.357 0.794,-0.802 v -4.161 c 0,-0.008 -0.007,-0.015 -0.007,-0.022 z" id="path690"></path></g><g id="XMLID_1095_"><path fill="#ffffff" d="m 841.538,618.765 h -2.172 c -0.363,0 -0.656,-0.299 -0.656,-0.657 v 0 c 0,-0.364 0.293,-0.665 0.656,-0.665 h 2.172 c 0.355,0 0.658,0.301 0.658,0.665 v 0 c 0,0.358 -0.302,0.657 -0.658,0.657 z" id="path693"></path></g></g></g></g><g id="g709"><g id="XMLID_1091_"><path fill-rule="evenodd" clip-rule="evenodd" fill="#ffdb77" d="m 844.904,658.839 c 6.202,0 11.252,-5.05 11.252,-11.244 0,-6.195 -5.05,-11.253 -11.252,-11.253 -6.194,0 -11.245,5.058 -11.245,11.253 0,6.194 5.051,11.244 11.245,11.244 z" id="path699"></path></g><g id="XMLID_1086_"><g id="XMLID_1088_"><path fill-rule="evenodd" clip-rule="evenodd" fill="#ffffff" d="m 844.904,638.628 c -4.95,0 -8.959,4.015 -8.959,8.967 0,4.95 4.009,8.965 8.959,8.965 4.957,0 8.968,-4.015 8.968,-8.965 0,-4.952 -4.011,-8.967 -8.968,-8.967 z m 0,16.644 c -4.239,0 -7.678,-3.438 -7.678,-7.678 0,-4.242 3.438,-7.678 7.678,-7.678 4.24,0 7.679,3.436 7.679,7.678 0,4.241 -3.438,7.678 -7.679,7.678 z" id="path702"></path></g><g id="XMLID_1087_"><path fill-rule="evenodd" clip-rule="evenodd" fill="#ffffff" d="m 844.904,643.01 c -2.521,0 -4.576,2.057 -4.576,4.585 0,2.521 2.055,4.584 4.576,4.584 2.527,0 4.583,-2.063 4.583,-4.584 0,-2.529 -2.055,-4.585 -4.583,-4.585 z" id="path705"></path></g></g></g></g></g><g id="g717"><path fill-rule="evenodd" clip-rule="evenodd" fill="#cccbc9" d="m 831.455,534.665 h -6.994 c -1.494,0 -2.713,-1.224 -2.713,-2.722 v 0 c 0,-1.491 1.219,-2.722 2.713,-2.722 h 6.994 c 1.496,0 2.72,1.23 2.72,2.722 v 0 c 0,1.498 -1.224,2.722 -2.72,2.722 z" id="path715"></path></g></g></g></svg>