<svg xmlns:dc="http://purl.org/dc/elements/1.1/" xmlns:cc="http://creativecommons.org/ns#" xmlns:rdf="http://www.w3.org/1999/02/22-rdf-syntax-ns#" xmlns:svg="http://www.w3.org/2000/svg" xmlns="http://www.w3.org/2000/svg" xmlns:sodipodi="http://sodipodi.sourceforge.net/DTD/sodipodi-0.dtd" xmlns:inkscape="http://www.inkscape.org/namespaces/inkscape" id="Layer_1" x="0px" y="0px" viewBox="0 0 428.47428 265.51456" xml:space="preserve" sodipodi:docname="target-4859140.svg" width="428.47427" height="265.51456" inkscape:version="1.0.2 (e86c8708, 2021-01-15)"><metadata></metadata><defs id="defs159"></defs>
<style type="text/css" id="style10">
	.st0{fill:#0BBAFF;}
	.st1{opacity:0.8;fill:#EC8457;}
	.st2{fill:#73BCC4;}
	.st3{fill:#211F1F;}
	.st4{opacity:0.34;}
	.st5{fill:#CDCDCE;}
	.st6{fill:#F1F1F1;}
	.st7{fill:#5B6375;}
	.st8{fill:#F5F3F4;}
	.st9{fill:#2F363E;}
	.st10{opacity:0.16;fill:#3D3835;}
	.st11{opacity:0.3;fill:#FFFFFF;}
	.st12{opacity:0.3;fill:#C0C0C0;}
	.st13{fill:#EC8457;}
	.st14{fill:#F69874;}
</style>

<g id="g154" transform="translate(-34.52572,-126.99899)">
	<g id="g26">
		<rect x="379.60001" y="270.39999" class="st1" width="10.1" height="23.799999" id="rect14"></rect>
		<rect x="394.29999" y="262.60001" class="st1" width="10.1" height="31.6" id="rect16"></rect>
		<rect x="438.20001" y="262.60001" class="st1" width="10.1" height="31.6" id="rect18"></rect>
		<rect x="408.89999" y="232.39999" class="st1" width="10.1" height="61.799999" id="rect20"></rect>
		<rect x="423.60001" y="245" class="st1" width="10.1" height="49.299999" id="rect22"></rect>
		<rect x="452.89999" y="223.60001" class="st1" width="10.1" height="70.599998" id="rect24"></rect>
	</g>
	<path class="st2" d="m 121.9,152.7 -16.9,7.4 -48.5,21.2 -16.9,7.4 c -3.9,1.7 -6.1,5.8 -4.6,9.1 l 8.2,18.7 40.8,93.7 c 1.5,3.3 5.9,4.6 9.8,2.9 V 313 l 82.3,-35.9 v 0 c 3.7,-1.6 5.7,-5.3 4.7,-8.5 -0.1,-0.2 -0.1,-0.4 -0.2,-0.6 l -40.9,-93.6 -8.2,-18.7 c -1.3,-3.4 -5.7,-4.7 -9.6,-3 z" id="path28" style="fill:#f0edff;fill-opacity:1"></path>
	
		<rect x="50.200001" y="184.39999" transform="matrix(0.9164,-0.4002,0.4002,0.9164,-66.683,50.7415)" class="st3" width="75.800003" height="1.3" id="rect30"></rect>
	
		<rect x="53.599998" y="194.60001" transform="matrix(0.9164,-0.4002,0.4002,0.9164,-71.4064,48.3171)" class="st3" width="52.700001" height="1" id="rect32"></rect>
	
		<rect x="56.099998" y="200.2" transform="matrix(0.9164,-0.4002,0.4002,0.9164,-73.4747,49.7864)" class="st3" width="52.700001" height="1.1" id="rect34"></rect>
	
		<rect x="57.900002" y="202.3" transform="matrix(0.9164,-0.4002,0.4002,0.9164,-73.3679,54.49)" class="st3" width="71.800003" height="1.2" id="rect36"></rect>
	
		<rect x="61.400002" y="213.2" transform="matrix(0.9164,-0.4002,0.4002,0.9164,-78.4363,51.7365)" class="st3" width="46.5" height="1" id="rect38"></rect>
	
		<rect x="63.099998" y="215.5" transform="matrix(0.9164,-0.4002,0.4002,0.9164,-78.6251,55.5385)" class="st3" width="61.099998" height="1.1" id="rect40"></rect>
	<rect x="65" y="218.8" transform="matrix(0.9164,-0.4002,0.4002,0.9164,-79.473,58.2411)" class="st3" width="69.5" height="1.1" id="rect42"></rect>
	
		<rect x="67.800003" y="226.89999" transform="matrix(0.9164,-0.4002,0.4002,0.9164,-83.0915,57.0072)" class="st3" width="54.299999" height="1.2" id="rect44"></rect>
	
		<rect x="69.5" y="229.5" transform="matrix(0.9164,-0.4002,0.4002,0.9164,-83.4725,60.3901)" class="st3" width="66.699997" height="1.1" id="rect46"></rect>
	
		<rect x="71.5" y="233.7" transform="matrix(0.9164,-0.4002,0.4002,0.9164,-84.7529,62.5779)" class="st3" width="71.800003" height="1" id="rect48"></rect>
	
		<rect x="75.099998" y="244.39999" transform="matrix(0.9164,-0.4002,0.4002,0.9164,-89.8212,59.8242)" class="st3" width="46.5" height="1.1" id="rect50"></rect>
	
		<rect x="88.599998" y="275.39999" transform="matrix(0.9164,-0.4002,0.4002,0.9164,-101.1131,67.8459)" class="st3" width="46.5" height="1.1" id="rect52"></rect>
	
		<rect x="76.800003" y="246.7" transform="matrix(0.9164,-0.4002,0.4002,0.9164,-90.0103,63.6266)" class="st3" width="61.099998" height="1.2" id="rect54"></rect>
	
		<rect x="78.599998" y="250.10001" transform="matrix(0.9164,-0.4002,0.4002,0.9164,-90.8579,66.3289)" class="st3" width="69.5" height="1.1" id="rect56"></rect>
	
		<rect x="81.5" y="258.29999" transform="matrix(0.9164,-0.4002,0.4002,0.9164,-94.4767,65.0951)" class="st3" width="54.299999" height="0.80000001" id="rect58"></rect>
	<rect x="83.199997" y="260.79999" transform="matrix(0.9164,-0.4002,0.4002,0.9164,-94.8577,68.478)" class="st3" width="66.699997" height="1" id="rect60"></rect>
	
		<rect x="90.099998" y="278.10001" transform="matrix(0.9164,-0.4002,0.4002,0.9164,-101.1749,72.7003)" class="st3" width="66.699997" height="1" id="rect62"></rect>
	
		<rect x="85.300003" y="265.89999" transform="matrix(0.9164,-0.4002,0.4002,0.9164,-96.6797,69.7723)" class="st3" width="66.699997" height="0.89999998" id="rect64"></rect>
	<path class="st4" d="m 105.6,161.5 13.2,22.6 c 0,0 1,3.3 4.3,2.1 3.4,-1.2 16.8,-11.8 16.8,-11.8 z" id="path66"></path>
	<path class="st5" d="m 105,160.2 9.4,21.4 c 0,0 1,3.3 4.3,2.1 3.4,-1.2 21.2,-9.3 21.2,-9.3 z" id="path68"></path>
	
		<circle transform="matrix(0.9997,-0.02407529,0.02407529,0.9997,-5.7637,5.7041)" class="st6" cx="234" cy="242.2" id="ellipse70" style="fill:#a0a0f0;fill-opacity:1" r="115.2"></circle>
	<path class="st7" d="m 341.4,242.2 c 0,59.3 -48.1,107.4 -107.4,107.4 -59.3,0 -107.4,-48.1 -107.4,-107.4 0,-59.3 48.1,-107.4 107.4,-107.4 59.3,0.1 107.4,48.1 107.4,107.4 z" id="path72" style="fill:#505080;fill-opacity:1"></path>
	
		<circle transform="matrix(0.9994,-0.03564596,0.03564596,0.9994,-8.4854,8.4955)" class="st6" cx="234" cy="242.2" id="ellipse74" r="75.400002"></circle>
	
		<circle transform="matrix(0.07822,-0.9969,0.9969,0.07822,-25.7695,456.5656)" class="st7" cx="234" cy="242.2" id="ellipse76" style="fill:#8381b5;fill-opacity:1" r="53.200001"></circle>
	<path class="st8" d="m 259.4,242.2 c 0,14 -11.4,25.4 -25.4,25.4 -14,0 -25.4,-11.4 -25.4,-25.4 0,-14 11.4,-25.4 25.4,-25.4 14,0 25.4,11.4 25.4,25.4 z" id="path78"></path>
	<path class="st9" d="M 398.8,179.8 385,170.3 c 0.4,-1.7 0.2,-3.5 -0.6,-5.2 -0.6,-1.2 -1.6,-2.2 -2.7,-2.9 l 1.6,-17.1 c 0.2,-2.3 -1.3,-3.5 -3.5,-2.5 l -36,16.4 c -2.1,1 -4.3,3.7 -4.7,6 l -3.5,17.9 -97.5,53.3 c -3.7,1.9 -7.3,2.2 -5.4,5.9 1.9,3.7 4.2,0.9 7.9,-0.9 l 99.4,-46.7 13.7,8.1 c 2,1.2 5.4,1.3 7.5,0.3 l 37.2,-18.8 c 2.2,-1 2.3,-2.9 0.4,-4.3 z" id="path80" style="fill:#00dafc;fill-opacity:1"></path>
	<path class="st7" d="m 384.4,165.2 c -0.6,-1.2 -1.6,-2.2 -2.7,-2.9 l 1.6,-17.1 c 0.2,-2.3 -1.3,-3.5 -3.5,-2.5 l -36,16.4 c -2.1,1 -4.3,3.7 -4.7,6 l -3.5,17.9 -97.5,53.3 c -3.6,1.8 -7.1,2.2 -5.6,5.6 l 152,-76.2 c 0,-0.2 0,-0.3 -0.1,-0.5 z" id="path82" style="fill:#00c893;fill-opacity:1"></path>
	<path class="st10" d="m 341.4,243.1 c 0,0.3 0,0.5 0,0.9 H 235.2 c -1.5,0 -2.9,-1.2 -2.9,-2.8 v -0.3 c 0,-1.5 1.4,-2.7 2.9,-2.7 h 106.1 c 0,1.6 0.1,3.3 0.1,4.9 z" id="path84"></path>
	<g id="g128">
		<path class="st6" d="M 271.7,296.1 258.6,292 221.1,280.4 208,276.3 c -3.1,-0.9 -6.2,0.3 -7,2.9 l -4.5,14.5 -22.4,72.3 c -0.8,2.6 1.1,5.4 4.1,6.4 v 0 l 63.6,19.8 v 0 c 2.9,0.9 5.8,-0.2 6.8,-2.5 0.1,-0.2 0.1,-0.3 0.2,-0.5 l 22.5,-72.4 4.5,-14.5 c 0.8,-2.5 -1,-5.3 -4.1,-6.2 z" id="path86" style="fill:#f0edff;fill-opacity:1"></path>
		
			<rect x="236.7" y="269.70001" transform="matrix(0.2968,-0.9549,0.9549,0.2968,-117.6359,435.8745)" class="st3" width="1" height="56.200001" id="rect88"></rect>
		
			<rect x="227.3" y="279.89999" transform="matrix(0.2968,-0.9549,0.9549,0.2968,-125.9283,428.0164)" class="st3" width="0.69999999" height="39.099998" id="rect90"></rect>
		
			<rect x="225.89999" y="284.29999" transform="matrix(0.2968,-0.9549,0.9549,0.2968,-131.0868,429.8034)" class="st3" width="0.80000001" height="39.099998" id="rect92"></rect>
		
			<rect x="231.2" y="283.89999" transform="matrix(0.2968,-0.9549,0.9549,0.2968,-133.7045,439.5822)" class="st3" width="0.89999998" height="53.299999" id="rect94"></rect>
		
			<rect x="220.89999" y="294.89999" transform="matrix(0.2968,-0.9549,0.9549,0.2968,-142.5106,430.8366)" class="st3" width="0.69999999" height="34.5" id="rect96"></rect>
		
			<rect x="224.8" y="295.20001" transform="matrix(0.2968,-0.9549,0.9549,0.2968,-145.1954,438.5752)" class="st3" width="0.80000001" height="45.299999" id="rect98"></rect>
		
			<rect x="226.5" y="296.89999" transform="matrix(0.2968,-0.9549,0.9549,0.2968,-148.5775,443.6452)" class="st3" width="0.80000001" height="51.5" id="rect100"></rect>
		
			<rect x="219.89999" y="304.79999" transform="matrix(0.2968,-0.9549,0.9549,0.2968,-155.3061,438.9127)" class="st3" width="0.89999998" height="40.299999" id="rect102"></rect>
		
			<rect x="223.10001" y="305.5" transform="matrix(0.2968,-0.9549,0.9549,0.2968,-158.1344,445.6698)" class="st3" width="0.80000001" height="49.5" id="rect104"></rect>
		
			<rect x="223.7" y="308.10001" transform="matrix(0.2968,-0.9549,0.9549,0.2968,-162.0993,449.4158)" class="st3" width="0.80000001" height="53.299999" id="rect106"></rect>
		
			<rect x="213.39999" y="319.10001" transform="matrix(0.2968,-0.9549,0.9549,0.2968,-170.9054,440.6703)" class="st3" width="0.80000001" height="34.5" id="rect108"></rect>
		
			<rect x="205.89999" y="343.10001" transform="matrix(0.2968,-0.9549,0.9549,0.2968,-199.0676,450.4233)" class="st3" width="0.80000001" height="34.5" id="rect110"></rect>
		
			<rect x="217.2" y="319.39999" transform="matrix(0.2968,-0.9549,0.9549,0.2968,-173.5901,448.4091)" class="st3" width="0.89999998" height="45.299999" id="rect112"></rect>
		
			<rect x="219" y="321.10001" transform="matrix(0.2968,-0.9549,0.9549,0.2968,-176.9722,453.4787)" class="st3" width="0.80000001" height="51.5" id="rect114"></rect>
		
			<rect x="212.5" y="329" transform="matrix(0.2968,-0.9549,0.9549,0.2968,-183.7009,448.7466)" class="st3" width="0.60000002" height="40.299999" id="rect116"></rect>
		
			<rect x="215.7" y="329.70001" transform="matrix(0.2968,-0.9549,0.9549,0.2968,-186.5294,455.5034)" class="st3" width="0.69999999" height="49.5" id="rect118"></rect>
		
			<rect x="211.2" y="342.70001" transform="matrix(0.2968,-0.9549,0.9549,0.2968,-202.1243,460.4112)" class="st3" width="0.69999999" height="49.5" id="rect120"></rect>
		
			<rect x="214.5" y="333.5" transform="matrix(0.2968,-0.9549,0.9549,0.2968,-191.0739,457.0776)" class="st3" width="0.60000002" height="49.5" id="rect122"></rect>
		<path class="st4" d="m 258.4,293 -3.6,19.1 c 0,0 -1.1,2.3 1.4,3.3 2.5,0.9 15.1,1.6 15.1,1.6 z" id="path124"></path>
		<path class="st5" d="m 258.7,292 -5.1,16.6 c 0,0 -1.1,2.3 1.4,3.3 2.5,0.9 16.4,5.1 16.4,5.1 z" id="path126"></path>
	</g>
	<path class="st9" d="m 350.4,321 c -2.3,2.9 -1.3,7.5 2.2,10.2 v 0 c 3.5,2.7 8.2,2.5 10.4,-0.4 l 14.9,-19.4 c 2,-1.5 -11.7,-11.2 -12.6,-9.7 z" id="path130"></path>
	<path class="st7" d="m 347.4,318.2 v 0 c 0.6,-0.7 1.4,-0.9 2,-0.4 l 17.5,13.5 c 0.6,0.5 0.7,1.4 0.1,2 l -3.1,4 c 0,0 0,0 0,0 l -22.3,28.9 c -5.7,7.4 -14.7,9.9 -20.1,5.7 -5.4,-4.2 -5.3,-13.5 0.4,-20.9 z" id="path132" style="fill:#505080;fill-opacity:1"></path>
	<path class="st2" d="m 359.5,251.4 c -14.7,19.1 -11.2,46.6 8,61.3 19.1,14.7 46.6,11.2 61.3,-8 14.7,-19.1 11.2,-46.6 -8,-61.3 -19.1,-14.7 -46.6,-11.1 -61.3,8 z m 3.9,17.1 c 1.1,-3.5 2.8,-6.9 5.2,-10 10.9,-14.1 31.1,-16.8 45.2,-5.9 6.9,5.3 11.1,12.9 12.3,21 1.2,8.3 -0.8,17.1 -6.4,24.3 -10.9,14.1 -31.1,16.8 -45.2,5.9 -11,-8.6 -15,-22.8 -11.1,-35.3 z" id="path134" style="fill:#8381b5;fill-opacity:1"></path>
	
		<circle transform="matrix(0.2367,-0.9716,0.9716,0.2367,30.6578,595.252)" class="st11" cx="394.20001" cy="278.10001" id="ellipse136" r="32.200001"></circle>
	
	<g id="g142">
		<path class="st13" d="m 112.1,330.1 c -14.3,0.3 -25.8,11.7 -25.8,25.8 0,14.3 11.8,25.9 26.3,25.9 4.2,0 8.2,-1 11.7,-2.7 l -12.8,-23.2 z" id="path140"></path>
	</g>
	<g id="g146">
		<path class="st14" d="m 116.1,326.1 -0.9,27.9 26.9,7.7 c 0.8,-2.8 1.2,-5.8 1.1,-8.8 -0.7,-14.7 -12.6,-26.4 -27.1,-26.8 z" id="path144"></path>
	</g>
	<g id="g152">
		<polyline class="st14" points="134,383.7 114.1,356 146.6,367.2   " id="polyline148"></polyline>
		<path class="st14" d="m 146.6,367.2 -32.5,-11.2 20,27.8 c 5.7,-4.2 10.1,-9.9 12.5,-16.6 z" id="path150"></path>
	</g>
</g>
</svg>