<?xml version="1.0" encoding="UTF-8" standalone="no"?>
<svg
   xmlns:dc="http://purl.org/dc/elements/1.1/"
   xmlns:cc="http://creativecommons.org/ns#"
   xmlns:rdf="http://www.w3.org/1999/02/22-rdf-syntax-ns#"
   xmlns:svg="http://www.w3.org/2000/svg"
   xmlns="http://www.w3.org/2000/svg"
   xmlns:sodipodi="http://sodipodi.sourceforge.net/DTD/sodipodi-0.dtd"
   xmlns:inkscape="http://www.inkscape.org/namespaces/inkscape"
   width="260"
   height="60"
   viewBox="0 0 68.7908 15.8748"
   version="1.1"
   id="svg944"
   inkscape:version="1.0.2 (e86c8708, 2021-01-15)"
   sodipodi:docname="progressor_logo-napisy.svg">
  <sodipodi:namedview
     pagecolor="#ffffff"
     bordercolor="#666666"
     borderopacity="1"
     objecttolerance="10"
     gridtolerance="10"
     guidetolerance="10"
     inkscape:pageopacity="0"
     inkscape:pageshadow="2"
     inkscape:window-width="1607"
     inkscape:window-height="764"
     id="namedview246"
     showgrid="false"
     inkscape:zoom="3.77"
     inkscape:cx="110.9437"
     inkscape:cy="26.387268"
     inkscape:window-x="1475"
     inkscape:window-y="160"
     inkscape:window-maximized="0"
     inkscape:current-layer="g1096"
     inkscape:document-rotation="0" />
  <defs
     id="defs938" />
  <metadata
     id="metadata941">
    <rdf:RDF>
      <cc:Work
         rdf:about="">
        <dc:format>image/svg+xml</dc:format>
        <dc:type
           rdf:resource="http://purl.org/dc/dcmitype/StillImage" />
        <dc:title></dc:title>
      </cc:Work>
    </rdf:RDF>
  </metadata>
  <g
     inkscape:label="Layer 1"
     inkscape:groupmode="layer"
     id="layer1">
    <g
       id="g1096"
       transform="translate(0.79374,1.3229)">
      <g
         id="g4425"
         style="fill:#323250;fill-opacity:1"
         transform="matrix(0.07990182,0,0,0.07990182,5.9439181,4.3575268)">
        <path
           inkscape:connector-curvature="0"
           id="path4377"
           d="m -57.107307,74.177506 c -2.747724,-1.27655 -12.881216,-6.3855 -15.487578,-7.80828 l -1.795387,-0.98008 1.984375,-0.91051 c 4.070252,-1.8676 5.193964,-2.49267 5.255319,-2.92329 0.03198,-0.22445 -0.545018,-2.17911 -1.282222,-4.34369 -4.612185,-13.542301 -5.280751,-25.495445 -2.16801,-38.761373 2.173699,-9.2639123 7.760287,-20.3596063 12.714292,-25.2522523 l 1.312926,-1.296662 3.092402,2.218238 c 3.205594,2.299427 5.175391,3.873151 5.687906,4.544221 0.282043,0.36929997 0.227881,0.48132197 -1.050837,2.17336197 -2.500365,3.30856403 -4.116964,5.92464203 -5.890577,9.53250633 -2.113169,4.298574 -2.666754,5.828514 -3.881435,10.727063 -1.372055,5.533207 -1.568598,7.220215 -1.557539,13.36892 0.01262,7.017083 0.528662,10.380974 2.550938,16.628727 1.393254,4.30442 2.057924,5.67187 2.7569,5.67187 0.155962,0 1.768325,-0.5998 3.583028,-1.33288 1.814703,-0.73307 3.340155,-1.29217 3.389893,-1.24243 0.129191,0.12919 -0.226077,1.31768 -3.086051,10.32382 -3.436554,10.82179 -3.275298,10.34078 -3.540403,10.5608 -0.169177,0.1404 -0.894305,-0.11123 -2.58794,-0.89808 z"
           style="fill:#323250;fill-opacity:1;stroke:none;stroke-width:0.188988" />
        <path
           inkscape:connector-curvature="0"
           id="path4379"
           d="M 26.391958,-10.428435 C 18.085857,-16.620362 7.9467645,-20.544549 -1.7553665,-21.32244 c -3.932494,-0.315298 -10.7987985,-0.110045 -13.4556095,0.402223 -4.912156,0.947131 -11.919937,3.035265 -13.07465,3.895905 -0.873633,0.651142 -0.909664,1.005025 -0.258188,2.535967 0.316878,0.744654 0.576143,1.437529 0.576143,1.539727 0,0.260504 -0.942226,0.08786 -5.858632,-1.073465 -5.099767,-1.204642 -6.191842,-1.438881 -10.083948,-2.162886 -1.648291,-0.306613 -3.026547,-0.587135 -3.062793,-0.623377 -0.190651,-0.190651 6.662333,-14.179597 8.526659,-17.405405 l 0.745826,-1.290492 1.606399,3.269967 c 1.066824,2.171613 1.778074,3.392937 2.117505,3.636066 l 0.511106,0.366098 2.229221,-0.86301 c 8.080838,-3.128377 15.674128,-4.492193 24.9853915,-4.487576 6.03313004,0.003 10.919664,0.601554 16.213514,1.986023 6.5567135,1.714738 11.7424575,3.842934 17.1180005,7.025123 4.42152,2.617425 9.39669,6.202026 9.39669,6.770296 0,0.426794 -2.11916,2.985947 -6.99256,8.4444067 l -0.66146,0.740868 z"
           style="fill:#323250;fill-opacity:1;stroke:none;stroke-width:0.188988" />
        <path
           inkscape:connector-curvature="0"
           id="path4381"
           d="m -22.019592,68.872846 c -4.334901,-2.34019 -10.473999,-5.80376 -10.722559,-6.04947 -0.143468,-0.14183 0.670996,-1.81718 2.813944,-5.78831 0.617006,-1.14337 1.27658,-2.43066 1.465723,-2.86063 l 0.343897,-0.78176 -1.505407,-2.14755 c -1.992855,-2.84293 -2.884218,-4.39067 -4.02267,-6.984882 -0.520194,-1.185378 -1.123018,-2.30406 -1.339612,-2.485961 -0.352258,-0.295839 -0.896895,-0.33073 -5.162386,-0.33073 h -4.76858 l -0.124174,-3.148488 c -0.06829,-1.731667 -0.124172,-5.627294 -0.124172,-8.656947 v -5.508459 l 5.055431,-0.222713 c 5.84004,-0.257278 5.270138,-0.0278 6.373736,-2.566455 0.965729,-2.221514 2.692702,-5.226805 4.115104,-7.161139 1.8293,-2.487681 1.908009,-2.07395 -1.524283,-8.0124563 -0.850725,-1.471914 -1.546775,-2.848896 -1.546775,-3.059957 0,-0.404884 2.794418,-2.16165103 10.760974,-6.76511 l 3.696616,-2.136079 0.516562,0.598683 c 0.284109,0.329277 1.428083,2.08579 2.542161,3.903364 1.114079,1.81757297 2.206758,3.515291 2.428174,3.772701 l 0.402574,0.468022 2.6322785,-0.246952 c 2.106097,-0.197588 3.425238,-0.202493 6.599163,-0.02455 l 3.96688504,0.222406 0.56806296,-0.618934 c 0.312436,-0.340413 1.503061,-2.22400603 2.645834,-4.185759 1.142772,-1.961753 2.183849,-3.607874 2.313506,-3.65805 0.309943,-0.119941 10.9060115,5.65491897 13.9565485,7.606327 l 1.026808,0.656838 -0.288091,0.689502 c -0.158454,0.379227 -0.830659,1.676416 -1.493793,2.882641 -1.800246,3.274605 -2.760003,5.2346063 -2.75418,5.6245443 0.0029,0.191595 0.390636,0.901147 0.861722,1.576779 2.105506,3.019711 3.054514,4.599749 4.086383,6.803572 0.608354,1.299292 1.211898,2.572973 1.341208,2.830404 0.346644,0.690095 1.322445,0.800431 6.131397,0.693293 4.19725,-0.09351 4.20511,-0.09293 4.30638,0.317426 0.0558,0.226111 0.11962,4.195596 0.1418,8.821079 l 0.0403,8.409969 -4.81919,0.112795 c -2.65056,0.06203 -5.016762,0.193778 -5.258223,0.292758 -0.318852,0.130705 -0.686715,0.746536 -1.343922,2.249832 -1.189672,2.721266 -2.183937,4.475126 -3.905422,6.889076 -0.778102,1.0911 -1.465495,2.18565 -1.52754,2.43234 -0.139996,0.55663 0.185687,1.24769 2.599169,5.51507 1.032026,1.82478 1.876412,3.39891 1.876412,3.49807 0,0.21321 0.160385,0.10875 -4.630209,3.01566 -4.612005,2.79855 -9.7834455,5.76002 -10.0583735,5.76002 -0.248812,0 -1.940428,-2.60781 -3.998484,-6.1641 l -1.543889,-2.66782 -0.89307996,0.19584 c -1.007009,0.22082 -11.78238454,0.29979 -12.51934954,0.0917 -0.444918,-0.1256 -0.542536,-0.0146 -1.496193,1.70089 -1.136581,2.04458 -3.969736,6.84344 -4.04024,6.84344 -0.02492,0 -1.914012,-1.00882 -4.197996,-2.24183 z m 31.7726985,-2.781 c 3.6962535,-1.94948 7.4473755,-4.45127 7.4473755,-4.96698 0,-0.17559 -0.97042,-2.01571 -2.156494,-4.08916 -2.483414,-4.34143 -2.441578,-3.83007 -0.494819,-6.04826 2.503549,-2.8526 5.286926,-7.747988 5.954779,-10.473215 0.16904,-0.689785 0.376576,-1.366171 0.46119,-1.503082 0.175718,-0.284319 3.815257,-0.569897 7.43289,-0.583224 l 2.22061,-0.0082 V 32.77577 27.131816 l -0.87682,-0.120184 c -0.48226,-0.0661 -2.63695,-0.120179 -4.788216,-0.120179 H 21.042214 L 20.71634,25.710301 C 20.172568,23.739322 18.962425,20.910125 17.867031,19.048889 16.871034,17.356551 14.541192,14.198098 13.39887,12.99163 l -0.545553,-0.576189 1.718075,-3.0884843 c 0.944938,-1.698667 1.939372,-3.598762 2.20985,-4.22243 l 0.491778,-1.133946 -0.501409,-0.399811 c -1.714031,-1.366719 -8.2534285,-5.027507 -8.9808185,-5.027507 -0.528428,0 -0.975929,0.62474497 -3.105507,4.335505 -0.980726,1.708896 -1.917298,3.191713 -2.081279,3.295147 -0.208465,0.131498 -0.971425,0.05003 -2.53647596,-0.270843 -3.08140904,-0.631764 -7.91385904,-0.641546 -11.40424954,-0.0231 l -2.362351,0.418581 -0.402738,-0.460261 c -0.221507,-0.253146 -1.021739,-1.466559 -1.778299,-2.696475 -2.092055,-3.40099603 -2.980082,-4.598564 -3.409945,-4.598564 -0.456785,0 -1.526585,0.53474897 -4.507971,2.25335297 -3.762086,2.16863103 -4.736613,2.86439003 -4.736613,3.38167903 0,0.525518 0.464939,1.488882 2.03291,4.212217 1.125424,1.9546973 2.124827,3.8505853 2.124827,4.0308353 0,0.05199 -0.560351,0.713906 -1.245227,1.47094 -2.464798,2.724486 -5.181122,7.386683 -6.231229,10.695049 -0.286771,0.903475 -0.636857,1.768681 -0.777968,1.922679 -0.206851,0.22574 -1.162335,0.304737 -4.930759,0.407662 -2.570805,0.07022 -4.695452,0.135567 -4.721439,0.145227 -0.02598,0.0097 -0.04725,2.389389 -0.04725,5.288291 0,4.906597 0.02495,5.301554 0.361035,5.716892 0.358095,0.442523 0.397256,0.446667 4.808596,0.508516 3.107168,0.04356 4.498792,0.128997 4.617553,0.283479 0.0935,0.121621 0.529918,1.282621 0.969825,2.58 0.439904,1.297379 1.098976,2.954943 1.464601,3.683474 0.850662,1.69501 2.817714,4.51706 4.194209,6.01726 0.590214,0.64326 1.186328,1.31621 1.324705,1.49545 0.219917,0.28486 -0.01122,0.80834 -1.835755,4.15774 -1.148041,2.10752 -2.140831,4.05357 -2.206199,4.32457 -0.108715,0.4507 0.0072,0.5728 1.359519,1.43152 3.499172,2.22206 7.240219,4.21787 7.906173,4.21787 0.21975,0 0.617281,-0.23387 0.883401,-0.51972 0.444625,-0.47758 0.866752,-1.16027 3.1563,-5.1046 1.214099,-2.09159 1.226587,-2.09595 4.435083,-1.54824 3.5049135,0.5983 6.7947405,0.60073 10.20675954,0.008 1.336926,-0.23243 2.54012696,-0.46457 2.67377896,-0.51585 0.379134,-0.14549 0.868836,0.50033 2.749925,3.62665 1.883347,3.13007 2.699869,4.24323 3.112487,4.24323 0.143894,0 0.999736,-0.3893 1.901878,-0.8651 z"
           style="fill:#323250;fill-opacity:1;stroke:none;stroke-width:0.188988" />
        <path
           inkscape:connector-curvature="0"
           id="path4383"
           d="m -8.5963935,46.061196 c -1.6873585,-0.37173 -4.4327335,-1.706863 -5.7375765,-2.790311 -2.137127,-1.774516 -3.852918,-4.488082 -4.586586,-7.253801 -0.499851,-1.884294 -0.535662,-4.745281 -0.08111,-6.479781 1.284332,-4.900808 5.421111,-9.005636 10.1904135,-10.111711 1.867955,-0.43321 4.788331,-0.386945 6.542873,0.103651 4.678344,1.308137 8.344371,5.001122 9.662044,9.733095 0.591798,2.125244 0.56919,5.073999 -0.05502,7.175418 -0.692087,2.329942 -1.67353,3.914931 -3.633264,5.86758 -1.818913,1.812337 -3.60731096,2.91728 -5.781686,3.57215 -1.496613,0.45075 -4.875747,0.54595 -6.52009,0.18371 z m 6.02574,-3.128028 c 2.87552404,-0.963287 5.203566,-2.996962 6.556645,-5.727589 0.811086,-1.636839 0.820544,-1.678995 0.89789,-4.002304 0.06885,-2.068055 0.02609,-2.509994 -0.358539,-3.706212 -1.426295,-4.435774 -5.636618,-7.510166 -10.294454,-7.51704 -0.835697,-0.0013 -2.019392,0.127976 -2.63044,0.287134 -4.0538205,1.055886 -7.4025755,4.838742 -7.8618915,8.881033 -0.282591,2.486999 -0.0016,4.343445 0.947073,6.258033 2.3792,4.801426 7.8398655,7.169714 12.7437165,5.526945 z"
           style="fill:#323250;fill-opacity:1;stroke:none;stroke-width:0.188988" />
        <path
           inkscape:connector-curvature="0"
           id="path4385"
           d="m 44.981728,73.434436 c -0.67563,-0.48504 -2.78031,-2.01925 -4.67708,-3.40934 -3.23085,-2.36781 -3.43514,-2.55346 -3.23469,-2.93953 0.11769,-0.22666 1.00237,-1.60273 1.96597,-3.05794 3.58595,-5.41544 7.49547,-12.80821 9.59451,-18.14285 3.357,-8.531768 4.82386,-15.608608 6.4635,-31.183038 1.69804,-16.1292813 2.61854,-21.8025433 4.75119,-29.282761 2.29172,-8.038174 5.25071,-15.108445 9.52122,-22.750191 0.94823,-1.696771 1.76804,-3.356129 1.8218,-3.687464 0.12539,-0.77266 0.0315,-0.854596 -3.23704,-2.824461 -1.44803,-0.872695 -2.66073,-1.670564 -2.69489,-1.77304 -0.13313,-0.399378 19.94868,-9.229505 20.26674,-8.911447 0.0935,0.09347 2.63546,13.963304 3.42925,18.710974 0.29005,1.734825 0.46411,3.217484 0.3868,3.294798 -0.0773,0.07731 -1.52846,-0.569854 -3.22477,-1.438148 -1.79826,-0.920475 -3.207,-1.531594 -3.37871,-1.465699 -0.70551,0.270727 -4.65722,7.50264 -7.03005,12.865488 -4.51462,10.203484 -6.1356,17.4647267 -8.23391,36.883975 -1.94658,18.015058 -3.11885,24.067299 -6.50673,33.593224 -2.116,5.9497 -4.73028,11.46247 -8.04334,16.96109 -2.99076,4.9637 -6.08828,9.45569 -6.51216,9.44384 -0.10955,-0.003 -0.75197,-0.40243 -1.42761,-0.88748 z"
           style="fill:#323250;fill-opacity:1;stroke:none;stroke-width:0.188988" />
        <path
           inkscape:connector-curvature="0"
           id="path4387"
           d="m 26.038088,100.78044 c -1.117776,-2.547784 -2.689975,-5.539104 -3.015484,-5.737374 -0.348829,-0.21246 -0.386538,-0.20176 -4.593698,1.30335 -4.663948,1.66853 -9.1979785,2.73847 -14.5520845,3.43402 -2.093007,0.271904 -3.90943496,0.342194 -8.693451,0.336414 -5.3217815,-0.006 -6.3765165,-0.0586 -8.7879475,-0.434414 -10.557322,-1.64549 -19.338369,-4.96898 -27.403274,-10.37174 -4.033544,-2.70211 -6.331101,-4.52455 -6.331101,-5.0219 0,-0.33859 4.087625,-5.32655 6.269321,-7.6502 l 1.290203,-1.37414 1.984375,1.46218 c 7.002106,5.15951 14.245429,8.49606 22.226088,10.2382 3.342097,0.72956 5.046641,0.92969 9.1459365,1.07379 6.11676104,0.21503 10.186042,-0.22385 16.049992,-1.73101 2.5128305,-0.64585 7.1929925,-2.26781 7.7625085,-2.69018 0.795866,-0.59023 0.708628,-1.26676 -0.554062,-4.2967 -0.630007,-1.51175 -1.200605,-2.96834 -1.267997,-3.23685 -0.156472,-0.62343 -0.885992,-0.81292 9.287087,2.41223 11.466138,3.63508 11.718058,3.73124 11.513108,4.39459 -0.39869,1.29043 -8.57938,17.676924 -9.43418,18.897314 -0.26673,0.38081 -0.30521,0.33749 -0.89534,-1.00758 z"
           style="fill:#323250;fill-opacity:1;stroke:none;stroke-width:0.188988" />
      </g>
      <g
         aria-label="progressor"
         id="text250"
         style="font-style:normal;font-variant:normal;font-weight:normal;font-stretch:normal;font-size:10.5833px;line-height:1.25;font-family:MuseoModerno;-inkscape-font-specification:MuseoModerno;fill:#323250;fill-opacity:1;stroke-width:0.264583">
        <path
           d="m 16.135698,0.01983722 q -0.783164,0 -1.407579,0.33866559 -0.624415,0.33866559 -0.99483,0.98424689 -0.359832,0.634998 -0.359832,1.5345784 V 7.8726455 H 14.34712 V 4.5812394 h 0.02117 q 0.179916,0.3280823 0.465665,0.5714981 0.296332,0.2434159 0.666748,0.3809988 0.380999,0.1375829 0.793747,0.1375829 0.751415,0 1.344079,-0.3386656 0.592665,-0.3386656 0.931331,-0.9524969 0.349249,-0.6244147 0.349249,-1.4710787 0,-0.6667479 -0.211666,-1.1959128 Q 18.506357,1.1734169 18.135941,0.79241809 17.765526,0.41141931 17.257528,0.22091991 16.749529,0.01983722 16.135698,0.01983722 Z m 0,0.83608067 q 0.497415,0 0.89958,0.24341591 0.412749,0.2434159 0.656165,0.6879145 0.243416,0.4444985 0.243416,1.0583299 0,0.5926648 -0.243416,1.0371634 -0.232833,0.4444986 -0.634998,0.6984978 -0.402166,0.2539992 -0.910164,0.2539992 -0.497415,0 -0.910164,-0.2434159 -0.402165,-0.2434159 -0.645581,-0.6879145 -0.232833,-0.4550819 -0.232833,-1.0689133 0,-0.6032481 0.232833,-1.0477466 0.243416,-0.4444986 0.645581,-0.6879145 0.412749,-0.24341591 0.899581,-0.24341591 z"
           style="font-style:normal;font-variant:normal;font-weight:normal;font-stretch:normal;font-family:MuseoModerno;-inkscape-font-specification:MuseoModerno;fill:#323250;fill-opacity:1;stroke-width:0.264583"
           id="path1230" />
        <path
           d="M 20.132712,5.5443196 V 1.6814153 q 0,-0.71966441 0.402166,-1.1218298 0.412749,-0.41274869 1.132413,-0.41274869 h 1.111246 v 0.83608068 h -0.93133 q -0.349249,0 -0.550332,0.20108271 -0.190499,0.2010827 -0.190499,0.5609149 v 3.7994045 z"
           style="font-style:normal;font-variant:normal;font-weight:normal;font-stretch:normal;font-family:MuseoModerno;-inkscape-font-specification:MuseoModerno;fill:#323250;fill-opacity:1;stroke-width:0.264583"
           id="path1232" />
        <path
           d="m 26.21844,5.6713192 q -0.825497,0 -1.460495,-0.3704155 Q 24.122947,4.919905 23.752532,4.284907 23.382116,3.6393257 23.382116,2.8455782 q 0,-0.7937475 0.370416,-1.4287454 0.370415,-0.64558131 1.005413,-1.01599679 0.634998,-0.38099879 1.460495,-0.38099879 0.825498,0 1.460496,0.38099879 0.645581,0.37041548 1.005413,1.01599679 0.370416,0.6349979 0.370416,1.4287454 0,0.7937475 -0.370416,1.4393288 -0.359832,0.634998 -1.005413,1.0159967 -0.634998,0.3704155 -1.460496,0.3704155 z m 0,-0.8360806 q 0.560915,0 0.973664,-0.2645825 0.412749,-0.2645825 0.645581,-0.7090811 0.232833,-0.4550819 0.232833,-1.0159968 0,-0.5609149 -0.232833,-1.0054134 Q 27.604853,1.3850829 27.192104,1.1205004 26.779355,0.85591789 26.21844,0.85591789 q -0.550331,0 -0.973663,0.26458251 -0.412749,0.2645825 -0.645581,0.7196644 -0.232833,0.4444985 -0.232833,1.0054134 0,0.5609149 0.232833,1.0159968 0.232832,0.4444986 0.645581,0.7090811 0.423332,0.2645825 0.973663,0.2645825 z"
           style="font-style:normal;font-variant:normal;font-weight:normal;font-stretch:normal;font-family:MuseoModerno;-inkscape-font-specification:MuseoModerno;fill:#323250;fill-opacity:1;stroke-width:0.264583"
           id="path1234" />
        <path
           d="M 31.128594,7.6927295 V 6.8566488 h 2.645825 q 0.391582,0 0.603248,-0.2328326 0.22225,-0.2328326 0.22225,-0.6138314 V 4.5283229 h -0.02117 q -0.201083,0.3069157 -0.486832,0.5503315 -0.285749,0.2434159 -0.656164,0.3915821 -0.370416,0.1375829 -0.836081,0.1375829 -0.761997,0 -1.344079,-0.3492489 -0.582081,-0.3598321 -0.910164,-0.9842468 -0.328082,-0.634998 -0.328082,-1.4499121 0,-0.7937474 0.328082,-1.4287454 0.328083,-0.63499801 0.941914,-1.00541349 0.624415,-0.37041549 1.502829,-0.37041549 0.846664,0 1.471078,0.35983219 0.624415,0.35983218 0.96308,1.00541349 0.349249,0.634998 0.349249,1.4922452 v 3.1961565 q 0,0.740831 -0.433915,1.1747463 -0.433915,0.4444986 -1.18533,0.4444986 z m 1.650995,-2.9209907 q 0.539749,0 0.941914,-0.2539992 0.412749,-0.2539992 0.634998,-0.6879145 0.232832,-0.4444986 0.232832,-0.9948302 0,-0.5609149 -0.222249,-1.0054134 Q 34.144835,1.3850829 33.74267,1.1310837 33.340504,0.86650119 32.779589,0.86650119 q -0.550331,0 -0.952497,0.26458251 -0.391582,0.2539992 -0.613831,0.7090811 -0.211666,0.4444985 -0.211666,1.0054134 0,0.529165 0.211666,0.9736636 0.222249,0.4339153 0.613831,0.6984978 0.402166,0.2539992 0.952497,0.2539992 z"
           style="font-style:normal;font-variant:normal;font-weight:normal;font-stretch:normal;font-family:MuseoModerno;-inkscape-font-specification:MuseoModerno;fill:#323250;fill-opacity:1;stroke-width:0.264583"
           id="path1236" />
        <path
           d="M 37.061857,5.5443196 V 1.6814153 q 0,-0.71966441 0.402165,-1.1218298 0.412749,-0.41274869 1.132413,-0.41274869 h 1.111247 v 0.83608068 h -0.931331 q -0.349249,0 -0.550331,0.20108271 -0.1905,0.2010827 -0.1905,0.5609149 v 3.7994045 z"
           style="font-style:normal;font-variant:normal;font-weight:normal;font-stretch:normal;font-family:MuseoModerno;-inkscape-font-specification:MuseoModerno;fill:#323250;fill-opacity:1;stroke-width:0.264583"
           id="path1238" />
        <path
           d="m 43.348668,5.5443196 q -0.888997,0 -1.576912,-0.3280823 Q 41.083842,4.8775718 40.69226,4.2743237 40.311261,3.6604923 40.311261,2.8455782 q 0,-0.8043308 0.328082,-1.4393287 0.328082,-0.64558131 0.910164,-1.01599679 0.582081,-0.37041549 1.354662,-0.37041549 0.836081,0 1.386413,0.35983219 0.560914,0.35983218 0.83608,0.97366359 0.275166,0.6032481 0.275166,1.3546623 0,0.1164163 -0.01058,0.2434159 0,0.1269996 -0.02117,0.2222493 h -4.021654 q 0.05292,0.4974151 0.328083,0.846664 0.275165,0.3386656 0.698497,0.5185817 0.433916,0.1693328 0.952497,0.1693328 H 44.73508 V 5.5443196 Z M 41.337841,2.485746 h 3.07974 q 0,-0.2010827 -0.04233,-0.423332 Q 44.332915,1.8295815 44.227082,1.6179155 44.121249,1.3956662 43.941333,1.2263334 43.772,1.0464173 43.507417,0.94058429 q -0.253999,-0.105833 -0.603248,-0.105833 -0.370415,0 -0.656164,0.1481662 -0.275166,0.13758291 -0.476249,0.38099881 -0.201082,0.2328326 -0.306915,0.529165 -0.105833,0.2963323 -0.127,0.5926647 z"
           style="font-style:normal;font-variant:normal;font-weight:normal;font-stretch:normal;font-family:MuseoModerno;-inkscape-font-specification:MuseoModerno;fill:#323250;fill-opacity:1;stroke-width:0.264583"
           id="path1240" />
        <path
           d="M 46.569298,5.5443196 V 4.708239 h 2.582325 q 0.253999,0 0.433915,-0.105833 0.1905,-0.1164163 0.285749,-0.2963324 0.09525,-0.1799161 0.09525,-0.3809988 0,-0.1904994 -0.08467,-0.3492489 -0.08467,-0.1693328 -0.264583,-0.2645825 -0.169333,-0.105833 -0.412749,-0.105833 H 48.11446 q -0.518582,0 -0.910164,-0.1693328 -0.380999,-0.1799161 -0.603248,-0.5185817 -0.211666,-0.3386656 -0.211666,-0.8254973 0,-0.4127487 0.201082,-0.76199761 0.201083,-0.34924889 0.560915,-0.56091488 0.359832,-0.2222493 0.825498,-0.2222493 h 2.487075 v 0.83608068 h -2.391826 q -0.328082,0 -0.518581,0.20108271 -0.1905,0.2010827 -0.1905,0.4762485 0,0.2645825 0.1905,0.4656651 0.201082,0.1904994 0.560915,0.1904994 h 1.037163 q 0.582081,0 0.973663,0.1904994 0.402166,0.1799161 0.603249,0.529165 0.211666,0.3492489 0.211666,0.8572473 0,0.4339153 -0.211666,0.8149141 -0.211666,0.3704154 -0.592665,0.603248 -0.370416,0.2328326 -0.867831,0.2328326 z"
           style="font-style:normal;font-variant:normal;font-weight:normal;font-stretch:normal;font-family:MuseoModerno;-inkscape-font-specification:MuseoModerno;fill:#323250;fill-opacity:1;stroke-width:0.264583"
           id="path1242" />
        <path
           d="M 52.150337,5.5443196 V 4.708239 h 2.582325 q 0.254,0 0.433916,-0.105833 0.190499,-0.1164163 0.285749,-0.2963324 0.09525,-0.1799161 0.09525,-0.3809988 0,-0.1904994 -0.08467,-0.3492489 -0.08467,-0.1693328 -0.264582,-0.2645825 -0.169333,-0.105833 -0.412749,-0.105833 h -1.09008 q -0.518582,0 -0.910164,-0.1693328 -0.380999,-0.1799161 -0.603248,-0.5185817 -0.211666,-0.3386656 -0.211666,-0.8254973 0,-0.4127487 0.201083,-0.76199761 0.201083,-0.34924889 0.560915,-0.56091488 0.359832,-0.2222493 0.825497,-0.2222493 h 2.487075 v 0.83608068 h -2.391825 q -0.328083,0 -0.518582,0.20108271 -0.190499,0.2010827 -0.190499,0.4762485 0,0.2645825 0.190499,0.4656651 0.201083,0.1904994 0.560915,0.1904994 h 1.037163 q 0.582082,0 0.973664,0.1904994 0.402165,0.1799161 0.603248,0.529165 0.211666,0.3492489 0.211666,0.8572473 0,0.4339153 -0.211666,0.8149141 -0.211666,0.3704154 -0.592665,0.603248 -0.370415,0.2328326 -0.86783,0.2328326 z"
           style="font-style:normal;font-variant:normal;font-weight:normal;font-stretch:normal;font-family:MuseoModerno;-inkscape-font-specification:MuseoModerno;fill:#323250;fill-opacity:1;stroke-width:0.264583"
           id="path1244" />
        <path
           d="m 60.345448,5.6713192 q -0.825498,0 -1.460496,-0.3704155 Q 58.249955,4.919905 57.879539,4.284907 57.509124,3.6393257 57.509124,2.8455782 q 0,-0.7937475 0.370415,-1.4287454 0.370416,-0.64558131 1.005413,-1.01599679 0.634998,-0.38099879 1.460496,-0.38099879 0.825497,0 1.460495,0.38099879 0.645581,0.37041548 1.005414,1.01599679 0.370415,0.6349979 0.370415,1.4287454 0,0.7937475 -0.370415,1.4393288 -0.359833,0.634998 -1.005414,1.0159967 -0.634998,0.3704155 -1.460495,0.3704155 z m 0,-0.8360806 q 0.560915,0 0.973663,-0.2645825 0.412749,-0.2645825 0.645582,-0.7090811 0.232832,-0.4550819 0.232832,-1.0159968 0,-0.5609149 -0.232832,-1.0054134 Q 61.73186,1.3850829 61.319111,1.1205004 60.906363,0.85591789 60.345448,0.85591789 q -0.550332,0 -0.973664,0.26458251 -0.412748,0.2645825 -0.645581,0.7196644 -0.232833,0.4444985 -0.232833,1.0054134 0,0.5609149 0.232833,1.0159968 0.232833,0.4444986 0.645581,0.7090811 0.423332,0.2645825 0.973664,0.2645825 z"
           style="font-style:normal;font-variant:normal;font-weight:normal;font-stretch:normal;font-family:MuseoModerno;-inkscape-font-specification:MuseoModerno;fill:#323250;fill-opacity:1;stroke-width:0.264583"
           id="path1246" />
        <path
           d="M 64.408941,5.5443196 V 1.6814153 q 0,-0.71966441 0.402165,-1.1218298 0.412749,-0.41274869 1.132413,-0.41274869 h 1.111247 v 0.83608068 h -0.931331 q -0.349248,0 -0.550331,0.20108271 -0.1905,0.2010827 -0.1905,0.5609149 v 3.7994045 z"
           style="font-style:normal;font-variant:normal;font-weight:normal;font-stretch:normal;font-family:MuseoModerno;-inkscape-font-specification:MuseoModerno;fill:#323250;fill-opacity:1;stroke-width:0.264583"
           id="path1248" />
      </g>
      <g
         id="text1077"
         style="font-style:normal;font-variant:normal;font-weight:normal;font-stretch:normal;font-size:10.5833px;line-height:1.25;font-family:MuseoModerno;-inkscape-font-specification:MuseoModerno;stroke-width:0.264583" />
      <g
         aria-label="innovations by examples"
         id="text1081"
         style="font-size:4.42176px;line-height:1.25;font-family:MuseoModerno;-inkscape-font-specification:MuseoModerno;fill:#323250;fill-opacity:1;stroke-width:0.23688">
        <path
           d="M 13.476676,12.573747 V 10.318649 H 13.8879 v 2.255098 z m 0.207823,-2.6132605 q -0.110544,0 -0.194557,-0.079592 -0.07959,-0.084013 -0.07959,-0.1945575 0,-0.110544 0.07959,-0.1901356 0.08401,-0.084014 0.194557,-0.084014 0.110544,0 0.190136,0.084014 0.08401,0.079592 0.08401,0.1901356 0,0.110544 -0.08401,0.1945575 -0.07959,0.079592 -0.190136,0.079592 z"
           style="font-size:4.42176px;fill:#323250;fill-opacity:1;stroke-width:0.23688"
           id="path1186" />
        <path
           d="m 14.530299,12.573747 v -1.30442 q 0,-0.300679 0.132653,-0.526189 0.137074,-0.22551 0.375849,-0.349319 0.238775,-0.128231 0.543877,-0.128231 0.309523,0 0.543876,0.128231 0.238775,0.123809 0.371428,0.349319 0.137075,0.22551 0.137075,0.526189 v 1.30442 h -0.406802 v -1.299998 q 0,-0.203401 -0.09286,-0.349319 -0.08844,-0.15034 -0.238775,-0.229931 -0.145918,-0.07959 -0.313945,-0.07959 -0.168027,0 -0.318367,0.07959 -0.145918,0.07959 -0.238775,0.229931 -0.08844,0.145918 -0.08844,0.349319 v 1.299998 z"
           style="font-size:4.42176px;fill:#323250;fill-opacity:1;stroke-width:0.23688"
           id="path1188" />
        <path
           d="m 17.276626,12.573747 v -1.30442 q 0,-0.300679 0.132653,-0.526189 0.137075,-0.22551 0.37585,-0.349319 0.238775,-0.128231 0.543876,-0.128231 0.309523,0 0.543877,0.128231 0.238775,0.123809 0.371428,0.349319 0.137074,0.22551 0.137074,0.526189 v 1.30442 h -0.406802 v -1.299998 q 0,-0.203401 -0.09286,-0.349319 -0.08844,-0.15034 -0.238775,-0.229931 -0.145918,-0.07959 -0.313945,-0.07959 -0.168027,0 -0.318366,0.07959 -0.145919,0.07959 -0.238776,0.229931 -0.08844,0.145918 -0.08844,0.349319 v 1.299998 z"
           style="font-size:4.42176px;fill:#323250;fill-opacity:1;stroke-width:0.23688"
           id="path1190" />
        <path
           d="m 21.084177,12.626808 q -0.344898,0 -0.610203,-0.154762 -0.265306,-0.159183 -0.420067,-0.424489 -0.154762,-0.269727 -0.154762,-0.601359 0,-0.331632 0.154762,-0.596938 0.154761,-0.269727 0.420067,-0.424489 0.265305,-0.159183 0.610203,-0.159183 0.344897,0 0.610203,0.159183 0.269727,0.154762 0.420067,0.424489 0.154761,0.265306 0.154761,0.596938 0,0.331632 -0.154761,0.601359 -0.15034,0.265306 -0.420067,0.424489 -0.265306,0.154762 -0.610203,0.154762 z m 0,-0.349319 q 0.234353,0 0.406802,-0.110544 0.172448,-0.110544 0.269727,-0.296258 0.09728,-0.190136 0.09728,-0.424489 0,-0.234353 -0.09728,-0.420067 -0.09728,-0.190136 -0.269727,-0.30068 -0.172449,-0.110544 -0.406802,-0.110544 -0.229932,0 -0.406802,0.110544 -0.172449,0.110544 -0.269728,0.30068 -0.09728,0.185714 -0.09728,0.420067 0,0.234353 0.09728,0.424489 0.09728,0.185714 0.269728,0.296258 0.17687,0.110544 0.406802,0.110544 z"
           style="font-size:4.42176px;fill:#323250;fill-opacity:1;stroke-width:0.23688"
           id="path1192" />
        <path
           d="m 23.659506,12.626808 q -0.15034,0 -0.274149,-0.08401 -0.119388,-0.08844 -0.176871,-0.247618 l -0.734012,-1.976527 h 0.446598 l 0.65442,1.826187 q 0.01769,0.04422 0.0398,0.0619 0.02211,0.01769 0.04864,0.01769 0.03095,0 0.04864,-0.01769 0.02211,-0.01769 0.0398,-0.0619 l 0.658842,-1.826187 h 0.437754 l -0.734012,1.976527 q -0.0619,0.159183 -0.181292,0.247618 -0.119388,0.08401 -0.274149,0.08401 z"
           style="font-size:4.42176px;fill:#323250;fill-opacity:1;stroke-width:0.23688"
           id="path1194" />
        <path
           d="m 26.107573,12.626808 q -0.327211,0 -0.565986,-0.154762 -0.238775,-0.159183 -0.367006,-0.428911 -0.128231,-0.269727 -0.128231,-0.596937 0,-0.331632 0.141497,-0.596938 0.141496,-0.269727 0.406802,-0.424489 0.265305,-0.159183 0.636733,-0.159183 0.358163,0 0.614625,0.154762 0.256462,0.154761 0.393536,0.420067 0.141497,0.265305 0.141497,0.592516 v 1.140814 h -0.411224 v -0.459863 h -0.0088 q -0.06633,0.128231 -0.181292,0.247618 -0.110544,0.114966 -0.278571,0.190136 -0.168027,0.07517 -0.393536,0.07517 z m 0.106122,-0.349319 q 0.221088,0 0.389115,-0.106122 0.172448,-0.110544 0.265305,-0.30068 0.09728,-0.194558 0.09728,-0.433333 0,-0.234353 -0.09286,-0.420067 -0.08844,-0.185714 -0.256462,-0.291836 -0.168027,-0.110544 -0.393537,-0.110544 -0.238775,0 -0.411223,0.110544 -0.168027,0.110544 -0.260884,0.30068 -0.08844,0.185714 -0.08844,0.424489 0,0.229931 0.08844,0.420067 0.08844,0.185714 0.256462,0.296258 0.168027,0.110544 0.406802,0.110544 z"
           style="font-size:4.42176px;fill:#323250;fill-opacity:1;stroke-width:0.23688"
           id="path1196" />
        <path
           d="m 28.798145,12.573747 q -0.30068,0 -0.473129,-0.172449 -0.168027,-0.172449 -0.168027,-0.468707 V 9.7526637 h 0.406802 v 2.1533973 q 0,0.145918 0.07959,0.234353 0.08401,0.08401 0.229931,0.08401 h 0.455442 v 0.349319 z m -1.030271,-1.905779 v -0.349319 h 1.569725 v 0.349319 z"
           style="font-size:4.42176px;fill:#323250;fill-opacity:1;stroke-width:0.23688"
           id="path1198" />
        <path
           d="m 29.825097,12.573747 v -2.255098 h 0.411224 v 2.255098 z M 30.03292,9.9604865 q -0.110544,0 -0.194557,-0.079592 -0.07959,-0.084013 -0.07959,-0.1945575 0,-0.110544 0.07959,-0.1901356 0.08401,-0.084014 0.194557,-0.084014 0.110544,0 0.190136,0.084014 0.08401,0.079592 0.08401,0.1901356 0,0.110544 -0.08401,0.1945575 -0.07959,0.079592 -0.190136,0.079592 z"
           style="font-size:4.42176px;fill:#323250;fill-opacity:1;stroke-width:0.23688"
           id="path1200" />
        <path
           d="m 31.939943,12.626808 q -0.344897,0 -0.610203,-0.154762 -0.265306,-0.159183 -0.420067,-0.424489 -0.154762,-0.269727 -0.154762,-0.601359 0,-0.331632 0.154762,-0.596938 0.154761,-0.269727 0.420067,-0.424489 0.265306,-0.159183 0.610203,-0.159183 0.344897,0 0.610203,0.159183 0.269727,0.154762 0.420067,0.424489 0.154762,0.265306 0.154762,0.596938 0,0.331632 -0.154762,0.601359 -0.15034,0.265306 -0.420067,0.424489 -0.265306,0.154762 -0.610203,0.154762 z m 0,-0.349319 q 0.234353,0 0.406802,-0.110544 0.172449,-0.110544 0.269727,-0.296258 0.09728,-0.190136 0.09728,-0.424489 0,-0.234353 -0.09728,-0.420067 -0.09728,-0.190136 -0.269727,-0.30068 -0.172449,-0.110544 -0.406802,-0.110544 -0.229932,0 -0.406802,0.110544 -0.172449,0.110544 -0.269727,0.30068 -0.09728,0.185714 -0.09728,0.420067 0,0.234353 0.09728,0.424489 0.09728,0.185714 0.269727,0.296258 0.17687,0.110544 0.406802,0.110544 z"
           style="font-size:4.42176px;fill:#323250;fill-opacity:1;stroke-width:0.23688"
           id="path1202" />
        <path
           d="m 33.650956,12.573747 v -1.30442 q 0,-0.300679 0.132653,-0.526189 0.137075,-0.22551 0.37585,-0.349319 0.238775,-0.128231 0.543876,-0.128231 0.309524,0 0.543877,0.128231 0.238775,0.123809 0.371428,0.349319 0.137074,0.22551 0.137074,0.526189 v 1.30442 h -0.406802 v -1.299998 q 0,-0.203401 -0.09286,-0.349319 -0.08844,-0.15034 -0.238775,-0.229931 -0.145918,-0.07959 -0.313945,-0.07959 -0.168027,0 -0.318366,0.07959 -0.145919,0.07959 -0.238775,0.229931 -0.08844,0.145918 -0.08844,0.349319 v 1.299998 z"
           style="font-size:4.42176px;fill:#323250;fill-opacity:1;stroke-width:0.23688"
           id="path1204" />
        <path
           d="m 36.366332,12.573747 v -0.349319 h 1.07891 q 0.106122,0 0.181292,-0.04422 0.07959,-0.04864 0.119388,-0.123809 0.03979,-0.07517 0.03979,-0.159184 0,-0.07959 -0.03537,-0.145918 -0.03537,-0.07075 -0.110544,-0.110544 -0.07075,-0.04422 -0.172448,-0.04422 h -0.455442 q -0.216666,0 -0.380271,-0.07075 -0.159183,-0.07517 -0.25204,-0.216667 -0.08844,-0.141496 -0.08844,-0.344897 0,-0.172449 0.08401,-0.318367 0.08401,-0.145918 0.234353,-0.234353 0.15034,-0.09286 0.344898,-0.09286 h 1.039113 v 0.349319 h -0.999318 q -0.137074,0 -0.216666,0.08401 -0.07959,0.08401 -0.07959,0.198979 0,0.110544 0.07959,0.194557 0.08401,0.07959 0.234353,0.07959 h 0.433333 q 0.243197,0 0.406802,0.07959 0.168027,0.07517 0.25204,0.221088 0.08843,0.145918 0.08843,0.358162 0,0.181292 -0.08843,0.340476 -0.08843,0.154761 -0.247618,0.25204 -0.154762,0.09728 -0.362585,0.09728 z"
           style="font-size:4.42176px;fill:#323250;fill-opacity:1;stroke-width:0.23688"
           id="path1206" />
        <path
           d="m 41.044416,12.626808 q -0.32721,0 -0.588094,-0.141497 -0.260884,-0.141496 -0.415646,-0.406801 -0.150339,-0.269728 -0.150339,-0.645577 V 9.3458618 h 0.406802 v 1.3751672 h 0.0088 q 0.07517,-0.137074 0.194558,-0.238775 0.123809,-0.1017 0.27857,-0.159183 0.159184,-0.05748 0.331632,-0.05748 0.313945,0 0.561564,0.141496 0.247618,0.141497 0.389115,0.40238 0.145918,0.256462 0.145918,0.610203 0,0.278571 -0.08843,0.504081 -0.08401,0.221088 -0.238775,0.380271 -0.154762,0.159184 -0.367006,0.243197 -0.212245,0.07959 -0.468707,0.07959 z m 0,-0.349319 q 0.207823,0 0.37585,-0.101701 0.172448,-0.1017 0.274149,-0.287414 0.1017,-0.185714 0.1017,-0.442176 0,-0.247619 -0.1017,-0.433333 -0.09728,-0.185714 -0.265306,-0.291836 -0.168027,-0.106122 -0.380271,-0.106122 -0.207823,0 -0.380272,0.1017 -0.168026,0.101701 -0.269727,0.291837 -0.09728,0.185714 -0.09728,0.442176 0,0.25204 0.09728,0.437754 0.101701,0.185714 0.269727,0.287414 0.172449,0.101701 0.37585,0.101701 z"
           style="font-size:4.42176px;fill:#323250;fill-opacity:1;stroke-width:0.23688"
           id="path1208" />
        <path
           d="M 43.581056,13.471364 V 12.609121 Q 43.333438,12.573747 43.13888,12.445516 42.948745,12.312863 42.838201,12.10504 42.727657,11.892796 42.727657,11.623068 v -1.304419 h 0.411223 v 1.299998 q 0,0.2034 0.08844,0.35374 0.08843,0.145918 0.234353,0.22551 0.15034,0.07959 0.318367,0.07959 0.172448,0 0.318366,-0.07959 0.15034,-0.07959 0.238775,-0.22551 0.09286,-0.15034 0.09286,-0.35374 v -1.299998 h 0.406802 v 1.304419 q 0,0.269728 -0.110544,0.47755 -0.106122,0.207823 -0.30068,0.340476 -0.190135,0.128231 -0.437754,0.168027 v 0.862243 z"
           style="font-size:4.42176px;fill:#323250;fill-opacity:1;stroke-width:0.23688"
           id="path1210" />
        <path
           d="m 47.802385,12.573747 q -0.371427,0 -0.658842,-0.137075 -0.287414,-0.141496 -0.451019,-0.393537 -0.159184,-0.256462 -0.159184,-0.596937 0,-0.336054 0.137075,-0.60136 0.137074,-0.269727 0.380271,-0.424488 0.243197,-0.154762 0.565986,-0.154762 0.349319,0 0.57925,0.15034 0.234353,0.15034 0.349319,0.406802 0.114966,0.25204 0.114966,0.565985 0,0.04864 -0.0044,0.1017 0,0.05306 -0.0088,0.09286 h -1.680269 q 0.02211,0.207823 0.137074,0.353741 0.114966,0.141497 0.291836,0.216666 0.181293,0.07075 0.397959,0.07075 h 0.588094 v 0.349319 z m -0.840134,-1.277889 h 1.286732 q 0,-0.08401 -0.01769,-0.17687 -0.01769,-0.09728 -0.0619,-0.185714 -0.04422,-0.09286 -0.119388,-0.163605 -0.07075,-0.07517 -0.181292,-0.119388 -0.106122,-0.04422 -0.25204,-0.04422 -0.154762,0 -0.27415,0.0619 -0.114965,0.05748 -0.198979,0.159183 -0.08401,0.09728 -0.128231,0.221088 -0.04422,0.12381 -0.05306,0.247619 z"
           style="font-size:4.42176px;fill:#323250;fill-opacity:1;stroke-width:0.23688"
           id="path1212" />
        <path
           d="m 49.046282,12.573747 0.773809,-1.039114 q -0.207823,-0.07075 -0.367007,-0.203401 -0.154761,-0.137074 -0.247618,-0.318367 -0.08844,-0.185714 -0.08844,-0.393536 v -0.30068 h 0.411223 v 0.30068 q 0,0.163605 0.08401,0.300679 0.08401,0.137075 0.22551,0.221088 0.141496,0.08401 0.305101,0.106123 l 0.680951,-0.92857 h 0.45102 l -0.734013,0.994896 q 0.229932,0.06633 0.393537,0.207823 0.168027,0.137074 0.260884,0.331632 0.09286,0.190135 0.09286,0.415645 v 0.305102 h -0.406802 v -0.305102 q 0,-0.17687 -0.08843,-0.318366 -0.08844,-0.145919 -0.238775,-0.234354 -0.15034,-0.09286 -0.344898,-0.110544 l -0.707481,0.968366 z"
           style="font-size:4.42176px;fill:#323250;fill-opacity:1;stroke-width:0.23688"
           id="path1214" />
        <path
           d="m 52.767677,12.626808 q -0.32721,0 -0.565985,-0.154762 -0.238775,-0.159183 -0.367006,-0.428911 -0.128231,-0.269727 -0.128231,-0.596937 0,-0.331632 0.141496,-0.596938 0.141497,-0.269727 0.406802,-0.424489 0.265306,-0.159183 0.636734,-0.159183 0.358162,0 0.614624,0.154762 0.256462,0.154761 0.393537,0.420067 0.141496,0.265305 0.141496,0.592516 v 1.140814 h -0.411223 v -0.459863 h -0.0088 q -0.06633,0.128231 -0.181292,0.247618 -0.110544,0.114966 -0.278571,0.190136 -0.168027,0.07517 -0.393537,0.07517 z M 52.8738,12.277489 q 0.221088,0 0.389115,-0.106122 0.172448,-0.110544 0.265305,-0.30068 0.09728,-0.194558 0.09728,-0.433333 0,-0.234353 -0.09286,-0.420067 -0.08844,-0.185714 -0.256462,-0.291836 -0.168027,-0.110544 -0.393537,-0.110544 -0.238775,0 -0.411223,0.110544 -0.168027,0.110544 -0.260884,0.30068 -0.08843,0.185714 -0.08843,0.424489 0,0.229931 0.08843,0.420067 0.08844,0.185714 0.256462,0.296258 0.168027,0.110544 0.406802,0.110544 z"
           style="font-size:4.42176px;fill:#323250;fill-opacity:1;stroke-width:0.23688"
           id="path1216" />
        <path
           d="m 54.688861,12.573747 v -1.357481 q 0,-0.260884 0.119388,-0.47755 0.119387,-0.216666 0.344897,-0.344897 0.22551,-0.128231 0.543876,-0.128231 0.154762,0 0.309524,0.04422 0.154761,0.03979 0.287414,0.141496 0.132653,0.09728 0.212245,0.265305 h 0.0044 q 0.08843,-0.168026 0.221088,-0.265305 0.132653,-0.101701 0.287415,-0.141496 0.154761,-0.04422 0.313945,-0.04422 0.313945,0 0.539454,0.128231 0.22551,0.128231 0.344898,0.344897 0.119387,0.216666 0.119387,0.47755 v 1.357481 h -0.406802 v -1.357481 q 0,-0.168027 -0.07959,-0.305101 -0.07959,-0.137075 -0.216667,-0.216666 -0.132652,-0.07959 -0.305101,-0.07959 -0.168027,0 -0.309523,0.08401 -0.141497,0.07959 -0.22551,0.216667 -0.07959,0.132652 -0.07959,0.300679 v 1.357481 h -0.406802 v -1.357481 q 0,-0.168027 -0.08401,-0.300679 -0.07959,-0.137075 -0.221088,-0.216667 -0.137075,-0.08401 -0.309523,-0.08401 -0.168027,0 -0.305102,0.07959 -0.132653,0.07959 -0.212244,0.216666 -0.07959,0.137074 -0.07959,0.305101 v 1.357481 z"
           style="font-size:4.42176px;fill:#323250;fill-opacity:1;stroke-width:0.23688"
           id="path1218" />
        <path
           d="m 60.121892,10.265588 q -0.32721,0 -0.588094,0.141496 -0.260883,0.141497 -0.415645,0.411224 -0.15034,0.265306 -0.15034,0.641155 v 2.087071 h 0.406802 v -1.375167 h 0.0088 q 0.07517,0.137074 0.194557,0.238775 0.123809,0.1017 0.278571,0.159183 0.159183,0.05748 0.331632,0.05748 0.313945,0 0.561563,-0.141497 0.247619,-0.141496 0.389115,-0.397958 0.145918,-0.260884 0.145918,-0.614625 0,-0.27857 -0.08844,-0.499658 -0.08401,-0.22551 -0.238775,-0.384694 -0.154761,-0.159183 -0.367006,-0.238775 -0.212244,-0.08401 -0.468707,-0.08401 z m 0,0.349319 q 0.207823,0 0.37585,0.1017 0.172449,0.101701 0.274149,0.287415 0.101701,0.185714 0.101701,0.442176 0,0.247618 -0.101701,0.433332 -0.09728,0.185714 -0.265305,0.291837 -0.168027,0.106122 -0.380272,0.106122 -0.207822,0 -0.380271,-0.101701 -0.168027,-0.1017 -0.269727,-0.287414 -0.09728,-0.190136 -0.09728,-0.446598 0,-0.25204 0.09728,-0.437754 0.1017,-0.185714 0.269727,-0.287415 0.172449,-0.1017 0.375849,-0.1017 z"
           style="font-size:4.42176px;fill:#323250;fill-opacity:1;stroke-width:0.23688"
           id="path1220" />
        <path
           d="M 61.805133,12.573747 V 9.3458618 h 0.406802 v 3.2278852 z"
           style="font-size:4.42176px;fill:#323250;fill-opacity:1;stroke-width:0.23688"
           id="path1222" />
        <path
           d="m 64.003992,12.573747 q -0.371428,0 -0.658842,-0.137075 -0.287414,-0.141496 -0.45102,-0.393537 -0.159183,-0.256462 -0.159183,-0.596937 0,-0.336054 0.137075,-0.60136 0.137074,-0.269727 0.380271,-0.424488 0.243197,-0.154762 0.565985,-0.154762 0.349319,0 0.579251,0.15034 0.234353,0.15034 0.349319,0.406802 0.114966,0.25204 0.114966,0.565985 0,0.04864 -0.0044,0.1017 0,0.05306 -0.0088,0.09286 H 63.16828 q 0.02211,0.207823 0.137074,0.353741 0.114966,0.141497 0.291836,0.216666 0.181292,0.07075 0.397959,0.07075 h 0.588094 v 0.349319 z m -0.840134,-1.277889 h 1.286732 q 0,-0.08401 -0.01769,-0.17687 -0.01769,-0.09728 -0.0619,-0.185714 -0.04422,-0.09286 -0.119387,-0.163605 -0.07075,-0.07517 -0.181292,-0.119388 -0.106123,-0.04422 -0.252041,-0.04422 -0.154761,0 -0.274149,0.0619 -0.114966,0.05748 -0.198979,0.159183 -0.08401,0.09728 -0.128231,0.221088 -0.04422,0.12381 -0.05306,0.247619 z"
           style="font-size:4.42176px;fill:#323250;fill-opacity:1;stroke-width:0.23688"
           id="path1224" />
        <path
           d="m 65.349586,12.573747 v -0.349319 h 1.078909 q 0.106123,0 0.181293,-0.04422 0.07959,-0.04864 0.119387,-0.123809 0.0398,-0.07517 0.0398,-0.159184 0,-0.07959 -0.03537,-0.145918 -0.03537,-0.07075 -0.110544,-0.110544 -0.07075,-0.04422 -0.172449,-0.04422 h -0.455441 q -0.216666,0 -0.380271,-0.07075 -0.159184,-0.07517 -0.252041,-0.216667 -0.08844,-0.141496 -0.08844,-0.344897 0,-0.172449 0.08401,-0.318367 0.08401,-0.145918 0.234354,-0.234353 0.15034,-0.09286 0.344897,-0.09286 h 1.039114 v 0.349319 h -0.999318 q -0.137075,0 -0.216666,0.08401 -0.07959,0.08401 -0.07959,0.198979 0,0.110544 0.07959,0.194557 0.08401,0.07959 0.234353,0.07959 h 0.433332 q 0.243197,0 0.406802,0.07959 0.168027,0.07517 0.252041,0.221088 0.08844,0.145918 0.08844,0.358162 0,0.181292 -0.08844,0.340476 -0.08844,0.154761 -0.247619,0.25204 -0.154762,0.09728 -0.362584,0.09728 z"
           style="font-size:4.42176px;fill:#323250;fill-opacity:1;stroke-width:0.23688"
           id="path1226" />
      </g>
    </g>
  </g>
</svg>
